%TF.GenerationSoftware,KiCad,Pcbnew,7.0.2*%
%TF.CreationDate,2024-06-27T10:52:01-03:00*%
%TF.ProjectId,Irrigation_IoT,49727269-6761-4746-996f-6e5f496f542e,rev?*%
%TF.SameCoordinates,Original*%
%TF.FileFunction,Copper,L2,Bot*%
%TF.FilePolarity,Positive*%
%FSLAX46Y46*%
G04 Gerber Fmt 4.6, Leading zero omitted, Abs format (unit mm)*
G04 Created by KiCad (PCBNEW 7.0.2) date 2024-06-27 10:52:01*
%MOMM*%
%LPD*%
G01*
G04 APERTURE LIST*
%TA.AperFunction,ComponentPad*%
%ADD10C,2.250000*%
%TD*%
%TA.AperFunction,ComponentPad*%
%ADD11R,1.700000X1.700000*%
%TD*%
%TA.AperFunction,ComponentPad*%
%ADD12O,1.700000X1.700000*%
%TD*%
%TA.AperFunction,ComponentPad*%
%ADD13C,2.000000*%
%TD*%
%TA.AperFunction,ComponentPad*%
%ADD14C,1.800000*%
%TD*%
%TA.AperFunction,ComponentPad*%
%ADD15R,1.800000X1.800000*%
%TD*%
%TA.AperFunction,ComponentPad*%
%ADD16C,3.500000*%
%TD*%
%TA.AperFunction,ComponentPad*%
%ADD17O,1.200000X1.900000*%
%TD*%
%TA.AperFunction,ComponentPad*%
%ADD18C,1.450000*%
%TD*%
%TA.AperFunction,ComponentPad*%
%ADD19R,2.600000X2.600000*%
%TD*%
%TA.AperFunction,ComponentPad*%
%ADD20O,2.600000X2.600000*%
%TD*%
%TA.AperFunction,ComponentPad*%
%ADD21C,2.400000*%
%TD*%
%TA.AperFunction,ComponentPad*%
%ADD22C,2.500000*%
%TD*%
%TA.AperFunction,ComponentPad*%
%ADD23R,4.600000X2.000000*%
%TD*%
%TA.AperFunction,ComponentPad*%
%ADD24O,4.200000X2.000000*%
%TD*%
%TA.AperFunction,ComponentPad*%
%ADD25O,2.000000X4.200000*%
%TD*%
%TA.AperFunction,ComponentPad*%
%ADD26R,1.500000X1.500000*%
%TD*%
%TA.AperFunction,ComponentPad*%
%ADD27C,1.500000*%
%TD*%
%TA.AperFunction,ComponentPad*%
%ADD28R,2.200000X2.200000*%
%TD*%
%TA.AperFunction,ComponentPad*%
%ADD29O,2.200000X2.200000*%
%TD*%
%TA.AperFunction,ViaPad*%
%ADD30C,0.800000*%
%TD*%
%TA.AperFunction,ViaPad*%
%ADD31C,1.000000*%
%TD*%
%TA.AperFunction,Conductor*%
%ADD32C,0.254000*%
%TD*%
%TA.AperFunction,Conductor*%
%ADD33C,0.508000*%
%TD*%
%TA.AperFunction,Conductor*%
%ADD34C,0.762000*%
%TD*%
G04 APERTURE END LIST*
D10*
%TO.P,F1,1*%
%TO.N,Net-(D5-K)*%
X151900000Y-73930000D03*
%TO.P,F1,2*%
%TO.N,Net-(J8-Pin_1)*%
X129300000Y-73930000D03*
%TD*%
D11*
%TO.P,J6,1,Pin_1*%
%TO.N,+3.3V*%
X108910000Y-45125000D03*
D12*
%TO.P,J6,2,Pin_2*%
%TO.N,/SDA*%
X106370000Y-45125000D03*
%TO.P,J6,3,Pin_3*%
%TO.N,/SCL*%
X103830000Y-45125000D03*
%TO.P,J6,4,Pin_4*%
%TO.N,Earth*%
X101290000Y-45125000D03*
%TD*%
D13*
%TO.P,BT3,1,1*%
%TO.N,/BT_3*%
X135470000Y-88020000D03*
X135470000Y-81520000D03*
%TO.P,BT3,2,2*%
%TO.N,Earth*%
X139970000Y-88020000D03*
X139970000Y-81520000D03*
%TD*%
D14*
%TO.P,J3,1,Pin_1*%
%TO.N,Net-(D5-K)*%
X168610000Y-56790000D03*
%TO.P,J3,2,Pin_2*%
%TO.N,Net-(D5-A)*%
X168610000Y-52980000D03*
%TO.P,J3,3,Pin_3*%
%TO.N,Net-(D9-A)*%
X168610000Y-49170000D03*
%TD*%
D15*
%TO.P,LED1,1,K*%
%TO.N,Earth*%
X145455000Y-84660000D03*
D14*
%TO.P,LED1,2,A*%
%TO.N,Net-(LED1-A)*%
X147995000Y-84660000D03*
%TD*%
D16*
%TO.P,REF\u002A\u002A,1*%
%TO.N,N/C*%
X73840000Y-98140000D03*
%TD*%
D17*
%TO.P,J2,6,Shield*%
%TO.N,Earth*%
X107480000Y-99387500D03*
D18*
X108480000Y-96687500D03*
X113480000Y-96687500D03*
D17*
X114480000Y-99387500D03*
%TD*%
D16*
%TO.P,REF\u002A\u002A,1*%
%TO.N,N/C*%
X167770000Y-97950000D03*
%TD*%
D11*
%TO.P,J9,1,Pin_1*%
%TO.N,+12V*%
X157980000Y-79765000D03*
D12*
%TO.P,J9,2,Pin_2*%
%TO.N,Net-(J8-Pin_1)*%
X157980000Y-77225000D03*
%TD*%
D14*
%TO.P,J8,1,Pin_1*%
%TO.N,Net-(J8-Pin_1)*%
X168635000Y-78105000D03*
%TO.P,J8,2,Pin_2*%
%TO.N,Net-(J10-Pin_2)*%
X168635000Y-74295000D03*
%TD*%
D16*
%TO.P,REF\u002A\u002A,1*%
%TO.N,N/C*%
X167770000Y-43470000D03*
%TD*%
D19*
%TO.P,D2,1,K*%
%TO.N,+12V*%
X155500000Y-84560000D03*
D20*
%TO.P,D2,2,A*%
%TO.N,Net-(D2-A)*%
X168200000Y-84560000D03*
%TD*%
D21*
%TO.P,K4,1*%
%TO.N,Net-(D6-A)*%
X145660000Y-66830000D03*
D22*
%TO.P,K4,2*%
%TO.N,Net-(J10-Pin_2)*%
X143160000Y-61830000D03*
D21*
%TO.P,K4,3*%
%TO.N,Net-(D7-A)*%
X155860000Y-66830000D03*
%TO.P,K4,4*%
%TO.N,Net-(D8-A)*%
X155860000Y-56830000D03*
%TO.P,K4,5*%
%TO.N,+12V*%
X145660000Y-56830000D03*
%TD*%
D13*
%TO.P,BT1,1,1*%
%TO.N,/BT_1*%
X94740000Y-88020000D03*
X94740000Y-81520000D03*
%TO.P,BT1,2,2*%
%TO.N,Earth*%
X99240000Y-88020000D03*
X99240000Y-81520000D03*
%TD*%
D14*
%TO.P,LED2,2,A*%
%TO.N,Net-(LED2-A)*%
X122435000Y-44570000D03*
D15*
%TO.P,LED2,1,K*%
%TO.N,Earth*%
X124975000Y-44570000D03*
%TD*%
D16*
%TO.P,REF\u002A\u002A,1*%
%TO.N,N/C*%
X73840000Y-43660000D03*
%TD*%
D15*
%TO.P,LED3,1,K*%
%TO.N,Earth*%
X124975000Y-64580000D03*
D14*
%TO.P,LED3,2,A*%
%TO.N,Net-(LED3-A)*%
X122435000Y-64580000D03*
%TD*%
D23*
%TO.P,J1,1*%
%TO.N,Net-(D2-A)*%
X158800000Y-89660000D03*
D24*
%TO.P,J1,2*%
%TO.N,Earth*%
X158800000Y-95960000D03*
D25*
%TO.P,J1,3,MountPin*%
%TO.N,unconnected-(J1-MountPin-Pad3)*%
X163600000Y-92560000D03*
%TD*%
D14*
%TO.P,J7,1,Pin_1*%
%TO.N,Net-(D5-K)*%
X168610000Y-69260000D03*
%TO.P,J7,2,Pin_2*%
%TO.N,Net-(D7-A)*%
X168610000Y-65450000D03*
%TO.P,J7,3,Pin_3*%
%TO.N,Net-(D8-A)*%
X168610000Y-61640000D03*
%TD*%
D26*
%TO.P,RV1,1*%
%TO.N,Net-(D5-K)*%
X164140000Y-72770000D03*
D27*
%TO.P,RV1,2*%
%TO.N,Net-(J10-Pin_2)*%
X156640000Y-70970000D03*
%TD*%
D21*
%TO.P,K3,1*%
%TO.N,Net-(D4-A)*%
X145660000Y-53201200D03*
D22*
%TO.P,K3,2*%
%TO.N,Net-(J10-Pin_2)*%
X143160000Y-48201200D03*
D21*
%TO.P,K3,3*%
%TO.N,Net-(D5-A)*%
X155860000Y-53201200D03*
%TO.P,K3,4*%
%TO.N,Net-(D9-A)*%
X155860000Y-43201200D03*
%TO.P,K3,5*%
%TO.N,+12V*%
X145660000Y-43201200D03*
%TD*%
D11*
%TO.P,J4,1,Pin_1*%
%TO.N,+3.3V*%
X90770000Y-93390000D03*
D12*
%TO.P,J4,2,Pin_2*%
%TO.N,/SDA*%
X93310000Y-93390000D03*
%TO.P,J4,3,Pin_3*%
%TO.N,/SCL*%
X95850000Y-93390000D03*
%TO.P,J4,4,Pin_4*%
%TO.N,Earth*%
X98390000Y-93390000D03*
%TD*%
D11*
%TO.P,J10,1,Pin_1*%
%TO.N,Earth*%
X161590000Y-79765000D03*
D12*
%TO.P,J10,2,Pin_2*%
%TO.N,Net-(J10-Pin_2)*%
X161590000Y-77225000D03*
%TD*%
D11*
%TO.P,J5,1,Pin_1*%
%TO.N,+3.3V*%
X79530000Y-93390000D03*
D12*
%TO.P,J5,2,Pin_2*%
%TO.N,/DHT22_SDA*%
X82070000Y-93390000D03*
%TO.P,J5,3,Pin_3*%
%TO.N,unconnected-(J5-Pin_3-Pad3)*%
X84610000Y-93390000D03*
%TO.P,J5,4,Pin_4*%
%TO.N,Earth*%
X87150000Y-93390000D03*
%TD*%
D28*
%TO.P,D3,1,K*%
%TO.N,+12V*%
X128440000Y-95630000D03*
D29*
%TO.P,D3,2,A*%
%TO.N,/VBUS*%
X118280000Y-95630000D03*
%TD*%
D13*
%TO.P,BT2,1,1*%
%TO.N,/BT_2*%
X115105000Y-88020000D03*
X115105000Y-81520000D03*
%TO.P,BT2,2,2*%
%TO.N,Earth*%
X119605000Y-88020000D03*
X119605000Y-81520000D03*
%TD*%
D30*
%TO.N,Earth*%
X92410000Y-70040000D03*
X78490000Y-72710000D03*
X73010000Y-59680000D03*
X72820000Y-63270000D03*
X72690000Y-67140000D03*
X72990000Y-69420000D03*
X72590000Y-71640000D03*
X149940000Y-82020000D03*
X150060000Y-87390000D03*
X147500000Y-91080000D03*
X148550000Y-93480000D03*
X153630000Y-91250000D03*
X153900000Y-96590000D03*
X148530000Y-97840000D03*
X80970000Y-54210000D03*
X114670000Y-76320000D03*
X86950000Y-96050000D03*
X84420000Y-46560000D03*
X107770000Y-63970000D03*
X102430000Y-99340000D03*
X111590000Y-88450000D03*
X124550000Y-95960000D03*
X128220000Y-89850000D03*
X142500000Y-84700000D03*
X146670000Y-79880000D03*
X165560000Y-82400000D03*
X161430000Y-82640000D03*
X164630000Y-88000000D03*
X168950000Y-89440000D03*
X164240000Y-97810000D03*
X158800000Y-98930000D03*
X110960000Y-98450000D03*
X134700000Y-63390000D03*
X134150000Y-43640000D03*
X76750000Y-97020000D03*
X124730000Y-99230000D03*
X118860000Y-99180000D03*
X143440000Y-81170000D03*
X142150000Y-91410000D03*
X158800000Y-92880000D03*
X167220000Y-89470000D03*
X137720000Y-84770000D03*
X123330000Y-70220000D03*
X110770000Y-63700000D03*
X91430000Y-48740000D03*
X72960000Y-65460000D03*
X86540000Y-70240000D03*
X117355000Y-84770000D03*
X96990000Y-84770000D03*
X101810000Y-88780000D03*
X101310000Y-92680000D03*
X98380000Y-99300000D03*
X90910000Y-99230000D03*
X79000000Y-98820000D03*
X81780000Y-90340000D03*
X85830000Y-88590000D03*
X85810000Y-85330000D03*
X112780000Y-70930000D03*
X119600000Y-47360000D03*
X116960000Y-45310000D03*
X116420000Y-48870000D03*
X113290000Y-51080000D03*
X102130000Y-57440000D03*
X102300000Y-50210000D03*
X98200000Y-49890000D03*
X95720000Y-46550000D03*
X73290000Y-47190000D03*
X75770000Y-54530000D03*
X72860000Y-61370000D03*
X74420000Y-71300000D03*
X74470000Y-67790000D03*
X104240000Y-72470000D03*
X107380000Y-61410000D03*
X108750000Y-68060000D03*
X115800000Y-78180000D03*
%TO.N,/RTS*%
X98660000Y-67200000D03*
%TO.N,/DTR*%
X100340000Y-65910000D03*
X99620000Y-61360000D03*
%TO.N,/RTS*%
X98540000Y-59420000D03*
%TO.N,/DTR*%
X94520000Y-50670000D03*
%TO.N,/RTS*%
X83020000Y-54050000D03*
%TO.N,/IO0*%
X88220000Y-55390000D03*
X88730000Y-53170000D03*
%TO.N,Net-(D4-A)*%
X133460000Y-48890000D03*
D31*
%TO.N,+12V*%
X147240000Y-75600000D03*
D30*
%TO.N,/VBUS*%
X122270000Y-91590000D03*
X117730000Y-75030000D03*
%TO.N,+3.3V*%
X130400000Y-90810000D03*
%TO.N,/D-*%
X104680000Y-77980000D03*
X104120000Y-85510000D03*
%TO.N,/D+*%
X102880000Y-76930000D03*
X110530000Y-85500000D03*
%TO.N,/ESP_RX*%
X75310000Y-63860000D03*
X76820000Y-60070000D03*
X86310000Y-67490000D03*
X96350000Y-67490000D03*
%TO.N,/ESP_TX*%
X86250000Y-65350000D03*
X96300000Y-65350000D03*
%TO.N,/DTR*%
X99530000Y-73970000D03*
X93500000Y-79100000D03*
X89480000Y-83460000D03*
X83160000Y-83970000D03*
%TO.N,/RTS*%
X98680000Y-71270000D03*
X93130000Y-77410000D03*
X89840000Y-78750000D03*
X81850000Y-83880000D03*
%TO.N,/SCL*%
X84080000Y-71600000D03*
%TO.N,/SDA*%
X89950000Y-76690000D03*
%TO.N,/RELE_1*%
X80400000Y-71600000D03*
%TO.N,/RELE_2*%
X82560000Y-71570000D03*
X94100000Y-58300000D03*
%TO.N,/RELE_1*%
X94070000Y-56140000D03*
%TO.N,+3.3V*%
X117750000Y-65180000D03*
X87420000Y-89650000D03*
%TO.N,/DHT22_SDA*%
X83080000Y-60420000D03*
%TO.N,/VBUS*%
X107670000Y-92710000D03*
X115400000Y-92740000D03*
%TD*%
D32*
%TO.N,Earth*%
X124975000Y-41735000D02*
X124975000Y-44570000D01*
X125160000Y-41550000D02*
X124975000Y-41735000D01*
X132060000Y-41550000D02*
X125160000Y-41550000D01*
X134150000Y-43640000D02*
X132060000Y-41550000D01*
X124975000Y-66525000D02*
X124975000Y-64580000D01*
X130140000Y-67950000D02*
X126400000Y-67950000D01*
X126400000Y-67950000D02*
X124975000Y-66525000D01*
X134700000Y-63390000D02*
X130140000Y-67950000D01*
D33*
%TO.N,+3.3V*%
X110380000Y-58030000D02*
X110380000Y-50460000D01*
X110380000Y-50460000D02*
X108910000Y-48990000D01*
X108910000Y-48990000D02*
X108910000Y-45125000D01*
X117750000Y-65180000D02*
X117530000Y-65180000D01*
X117530000Y-65180000D02*
X110380000Y-58030000D01*
D32*
%TO.N,/SDA*%
X105930000Y-48280000D02*
X106370000Y-47840000D01*
X106370000Y-47840000D02*
X106370000Y-45125000D01*
X105930000Y-58140000D02*
X105930000Y-48280000D01*
X97630000Y-66440000D02*
X105930000Y-58140000D01*
X89950000Y-76690000D02*
X97630000Y-69010000D01*
X97630000Y-69010000D02*
X97630000Y-66440000D01*
%TO.N,/SCL*%
X104500000Y-45795000D02*
X103830000Y-45125000D01*
X104500000Y-58610000D02*
X104500000Y-45795000D01*
X99400000Y-63710000D02*
X104500000Y-58610000D01*
X84080000Y-65730000D02*
X86100000Y-63710000D01*
X84080000Y-71600000D02*
X84080000Y-65730000D01*
X86100000Y-63710000D02*
X99400000Y-63710000D01*
%TO.N,/DTR*%
X89080000Y-83860000D02*
X89480000Y-83460000D01*
X83270000Y-83860000D02*
X89080000Y-83860000D01*
X83160000Y-83970000D02*
X83270000Y-83860000D01*
%TO.N,Earth*%
X111620000Y-70930000D02*
X108750000Y-68060000D01*
X112780000Y-70930000D02*
X111620000Y-70930000D01*
D34*
%TO.N,+12V*%
X148160000Y-70970000D02*
X147240000Y-71890000D01*
X148160000Y-58170000D02*
X148160000Y-70970000D01*
X146820000Y-56830000D02*
X148160000Y-58170000D01*
X145660000Y-56830000D02*
X146820000Y-56830000D01*
X147240000Y-71890000D02*
X147240000Y-75600000D01*
D32*
%TO.N,Net-(D4-A)*%
X145660000Y-47510000D02*
X145660000Y-53201200D01*
X144590000Y-46440000D02*
X145660000Y-47510000D01*
X141640000Y-46440000D02*
X144590000Y-46440000D01*
X139660000Y-50950000D02*
X140570000Y-50040000D01*
X140570000Y-50040000D02*
X140570000Y-47510000D01*
X137820000Y-50950000D02*
X139660000Y-50950000D01*
X135760000Y-48890000D02*
X137820000Y-50950000D01*
X140570000Y-47510000D02*
X141640000Y-46440000D01*
X133460000Y-48890000D02*
X135760000Y-48890000D01*
D33*
%TO.N,Net-(J8-Pin_1)*%
X138495000Y-77225000D02*
X157980000Y-77225000D01*
X135200000Y-73930000D02*
X138495000Y-77225000D01*
X129300000Y-73930000D02*
X135200000Y-73930000D01*
D32*
%TO.N,/RTS*%
X84890000Y-52180000D02*
X83020000Y-54050000D01*
X93630000Y-52180000D02*
X84890000Y-52180000D01*
X98540000Y-57090000D02*
X93630000Y-52180000D01*
X98540000Y-59420000D02*
X98540000Y-57090000D01*
X98660000Y-71250000D02*
X98680000Y-71270000D01*
X98660000Y-67200000D02*
X98660000Y-71250000D01*
%TO.N,/DTR*%
X100340000Y-73160000D02*
X99530000Y-73970000D01*
X100340000Y-65910000D02*
X100340000Y-73160000D01*
X99620000Y-55770000D02*
X99620000Y-61360000D01*
X94520000Y-50670000D02*
X99620000Y-55770000D01*
D33*
%TO.N,/IO0*%
X88730000Y-54880000D02*
X88220000Y-55390000D01*
X88730000Y-53170000D02*
X88730000Y-54880000D01*
D32*
%TO.N,/RTS*%
X93130000Y-76820000D02*
X93130000Y-77410000D01*
X98680000Y-71270000D02*
X93130000Y-76820000D01*
%TO.N,/ESP_RX*%
X86310000Y-67490000D02*
X96350000Y-67490000D01*
%TO.N,/ESP_TX*%
X96300000Y-65350000D02*
X86250000Y-65350000D01*
D33*
%TO.N,/VBUS*%
X122270000Y-80310000D02*
X122270000Y-91590000D01*
X121730000Y-79770000D02*
X122270000Y-80310000D01*
X121730000Y-79030000D02*
X121730000Y-79770000D01*
X117730000Y-75030000D02*
X121730000Y-79030000D01*
%TO.N,+3.3V*%
X127820000Y-93390000D02*
X130400000Y-90810000D01*
X116970000Y-93390000D02*
X127820000Y-93390000D01*
X93670000Y-97120000D02*
X103730000Y-97120000D01*
X103730000Y-97120000D02*
X106560000Y-94290000D01*
X90770000Y-94220000D02*
X93670000Y-97120000D01*
X116070000Y-94290000D02*
X116970000Y-93390000D01*
X90770000Y-93390000D02*
X90770000Y-94220000D01*
X106560000Y-94290000D02*
X116070000Y-94290000D01*
D32*
%TO.N,/D+*%
X102890000Y-76920000D02*
X102880000Y-76930000D01*
X106760000Y-76920000D02*
X102890000Y-76920000D01*
X110530000Y-80690000D02*
X106760000Y-76920000D01*
X110530000Y-85500000D02*
X110530000Y-80690000D01*
D33*
%TO.N,/VBUS*%
X115350000Y-92690000D02*
X107690000Y-92690000D01*
D32*
X107690000Y-92690000D02*
X107670000Y-92710000D01*
X115400000Y-92740000D02*
X115350000Y-92690000D01*
%TO.N,/D-*%
X104120000Y-78540000D02*
X104680000Y-77980000D01*
X104120000Y-85510000D02*
X104120000Y-78540000D01*
%TO.N,/ESP_RX*%
X75310000Y-61580000D02*
X76820000Y-60070000D01*
X75310000Y-63860000D02*
X75310000Y-61580000D01*
%TO.N,/RELE_2*%
X89760000Y-58300000D02*
X82560000Y-65500000D01*
X94100000Y-58300000D02*
X89760000Y-58300000D01*
X82560000Y-65500000D02*
X82560000Y-71570000D01*
%TO.N,/RELE_1*%
X80400000Y-66150000D02*
X80400000Y-71600000D01*
X94070000Y-56140000D02*
X90410000Y-56140000D01*
X90410000Y-56140000D02*
X80400000Y-66150000D01*
%TO.N,/DTR*%
X94400000Y-79100000D02*
X99530000Y-73970000D01*
X93500000Y-79100000D02*
X94400000Y-79100000D01*
%TO.N,/RTS*%
X87920000Y-78750000D02*
X89840000Y-78750000D01*
X85180000Y-81490000D02*
X87920000Y-78750000D01*
X82550000Y-81490000D02*
X85180000Y-81490000D01*
X81850000Y-82190000D02*
X82550000Y-81490000D01*
X81850000Y-83880000D02*
X81850000Y-82190000D01*
D33*
%TO.N,/SDA*%
X91570000Y-89930000D02*
X93310000Y-91670000D01*
X93310000Y-91670000D02*
X93310000Y-93390000D01*
X91570000Y-78310000D02*
X91570000Y-89930000D01*
X89950000Y-76690000D02*
X91570000Y-78310000D01*
D32*
%TO.N,/DHT22_SDA*%
X76850000Y-88170000D02*
X82070000Y-93390000D01*
X76850000Y-63220000D02*
X76850000Y-88170000D01*
X79650000Y-60420000D02*
X76850000Y-63220000D01*
X83080000Y-60420000D02*
X79650000Y-60420000D01*
D33*
%TO.N,+3.3V*%
X90770000Y-93390000D02*
X90770000Y-93000000D01*
X90770000Y-93000000D02*
X87420000Y-89650000D01*
D34*
%TO.N,Net-(J10-Pin_2)*%
X143160000Y-61830000D02*
X143160000Y-48201200D01*
D33*
%TO.N,Net-(J8-Pin_1)*%
X167145000Y-78105000D02*
X168635000Y-78105000D01*
X163820000Y-74780000D02*
X167145000Y-78105000D01*
X159040000Y-74780000D02*
X163820000Y-74780000D01*
X157980000Y-77225000D02*
X157980000Y-75840000D01*
X157980000Y-75840000D02*
X159040000Y-74780000D01*
%TO.N,Net-(D5-K)*%
X165100000Y-72770000D02*
X164140000Y-72770000D01*
X168610000Y-69260000D02*
X165100000Y-72770000D01*
X166150000Y-56790000D02*
X168610000Y-56790000D01*
X164620000Y-58320000D02*
X166150000Y-56790000D01*
X164620000Y-67160000D02*
X164620000Y-58320000D01*
X166720000Y-69260000D02*
X164620000Y-67160000D01*
X168610000Y-69260000D02*
X166720000Y-69260000D01*
%TO.N,Net-(D5-A)*%
X156081200Y-52980000D02*
X155860000Y-53201200D01*
X168610000Y-52980000D02*
X156081200Y-52980000D01*
%TD*%
%TA.AperFunction,Conductor*%
%TO.N,Earth*%
G36*
X127201580Y-40899685D02*
G01*
X127247335Y-40952489D01*
X127258226Y-40995166D01*
X127259686Y-41015607D01*
X127260001Y-41024408D01*
X127260288Y-42102278D01*
X127240621Y-42169323D01*
X127187829Y-42215092D01*
X127150666Y-42225475D01*
X127125422Y-42228422D01*
X127107866Y-42225419D01*
X127100643Y-42228026D01*
X127072944Y-42234550D01*
X127071987Y-42234661D01*
X127054408Y-42240566D01*
X127030224Y-42246072D01*
X127027351Y-42246428D01*
X127007477Y-42256329D01*
X126955986Y-42273623D01*
X126937318Y-42274340D01*
X126931883Y-42277816D01*
X126920994Y-42283029D01*
X126887769Y-42302577D01*
X126866981Y-42312340D01*
X126862954Y-42313793D01*
X126846829Y-42326664D01*
X126765964Y-42374242D01*
X126738361Y-42399426D01*
X126721592Y-42412288D01*
X126716921Y-42415274D01*
X126704945Y-42429916D01*
X126641053Y-42488210D01*
X126613345Y-42526744D01*
X126600892Y-42541489D01*
X126596201Y-42546237D01*
X126588412Y-42561419D01*
X126542342Y-42625490D01*
X126518836Y-42678754D01*
X126510677Y-42694194D01*
X126506611Y-42700727D01*
X126502674Y-42715376D01*
X126474072Y-42780187D01*
X126459661Y-42848534D01*
X126455479Y-42863593D01*
X126452519Y-42872124D01*
X126451825Y-42885700D01*
X126439187Y-42945640D01*
X126439252Y-43027669D01*
X126438485Y-43041538D01*
X126436661Y-43057853D01*
X126439254Y-43073874D01*
X126439254Y-43220097D01*
X126419569Y-43287136D01*
X126366765Y-43332891D01*
X126297607Y-43342835D01*
X126240943Y-43319364D01*
X126117089Y-43226647D01*
X125982371Y-43176400D01*
X125926132Y-43170354D01*
X125919518Y-43170000D01*
X125225000Y-43170000D01*
X125225000Y-44195810D01*
X125172453Y-44159984D01*
X125042827Y-44120000D01*
X124941276Y-44120000D01*
X124840862Y-44135135D01*
X124725000Y-44190931D01*
X124725000Y-43170000D01*
X124030482Y-43170000D01*
X124023867Y-43170354D01*
X123967628Y-43176400D01*
X123832910Y-43226647D01*
X123717811Y-43312811D01*
X123631645Y-43427913D01*
X123602923Y-43504920D01*
X123561052Y-43560854D01*
X123495587Y-43585270D01*
X123427314Y-43570418D01*
X123395513Y-43545570D01*
X123386784Y-43536087D01*
X123203626Y-43393530D01*
X122999503Y-43283064D01*
X122999499Y-43283062D01*
X122999498Y-43283062D01*
X122779984Y-43207702D01*
X122587724Y-43175620D01*
X122551049Y-43169500D01*
X122318951Y-43169500D01*
X122282276Y-43175620D01*
X122090015Y-43207702D01*
X121870501Y-43283062D01*
X121870497Y-43283063D01*
X121870497Y-43283064D01*
X121803421Y-43319364D01*
X121666372Y-43393531D01*
X121483215Y-43536087D01*
X121326020Y-43706848D01*
X121199076Y-43901150D01*
X121105844Y-44113696D01*
X121105842Y-44113700D01*
X121105843Y-44113700D01*
X121062145Y-44286260D01*
X121048865Y-44338700D01*
X121029699Y-44570000D01*
X121048865Y-44801299D01*
X121048865Y-44801301D01*
X121048866Y-44801305D01*
X121085510Y-44946007D01*
X121105844Y-45026303D01*
X121108763Y-45032957D01*
X121199076Y-45238849D01*
X121326021Y-45433153D01*
X121483216Y-45603913D01*
X121666374Y-45746470D01*
X121870497Y-45856936D01*
X121954421Y-45885747D01*
X122090015Y-45932297D01*
X122090017Y-45932297D01*
X122090019Y-45932298D01*
X122318951Y-45970500D01*
X122318952Y-45970500D01*
X122551048Y-45970500D01*
X122551049Y-45970500D01*
X122779981Y-45932298D01*
X122999503Y-45856936D01*
X123203626Y-45746470D01*
X123386784Y-45603913D01*
X123395511Y-45594432D01*
X123455394Y-45558441D01*
X123525233Y-45560538D01*
X123582850Y-45600060D01*
X123602924Y-45635079D01*
X123631647Y-45712088D01*
X123717811Y-45827188D01*
X123832910Y-45913352D01*
X123967628Y-45963599D01*
X124023867Y-45969645D01*
X124030482Y-45970000D01*
X124725000Y-45970000D01*
X124725000Y-44944189D01*
X124777547Y-44980016D01*
X124907173Y-45020000D01*
X125008724Y-45020000D01*
X125109138Y-45004865D01*
X125225000Y-44949068D01*
X125225000Y-45970000D01*
X125919518Y-45970000D01*
X125926132Y-45969645D01*
X125982371Y-45963599D01*
X126117088Y-45913352D01*
X126240943Y-45820635D01*
X126306407Y-45796218D01*
X126374680Y-45811069D01*
X126424086Y-45860474D01*
X126439254Y-45919902D01*
X126439254Y-63230097D01*
X126419569Y-63297136D01*
X126366765Y-63342891D01*
X126297607Y-63352835D01*
X126240943Y-63329364D01*
X126117089Y-63236647D01*
X125982371Y-63186400D01*
X125926132Y-63180354D01*
X125919518Y-63180000D01*
X125225000Y-63180000D01*
X125225000Y-64205810D01*
X125172453Y-64169984D01*
X125042827Y-64130000D01*
X124941276Y-64130000D01*
X124840862Y-64145135D01*
X124725000Y-64200931D01*
X124725000Y-63180000D01*
X124030482Y-63180000D01*
X124023867Y-63180354D01*
X123967628Y-63186400D01*
X123832910Y-63236647D01*
X123717811Y-63322811D01*
X123631645Y-63437913D01*
X123602923Y-63514920D01*
X123561052Y-63570854D01*
X123495587Y-63595270D01*
X123427314Y-63580418D01*
X123395513Y-63555570D01*
X123386784Y-63546087D01*
X123203626Y-63403530D01*
X122999503Y-63293064D01*
X122999499Y-63293062D01*
X122999498Y-63293062D01*
X122779984Y-63217702D01*
X122592398Y-63186400D01*
X122551049Y-63179500D01*
X122318951Y-63179500D01*
X122277602Y-63186400D01*
X122090015Y-63217702D01*
X121870501Y-63293062D01*
X121870497Y-63293063D01*
X121870497Y-63293064D01*
X121806342Y-63327783D01*
X121666372Y-63403531D01*
X121483215Y-63546087D01*
X121326020Y-63716848D01*
X121199076Y-63911150D01*
X121105844Y-64123696D01*
X121105842Y-64123700D01*
X121105843Y-64123700D01*
X121056423Y-64318856D01*
X121048865Y-64348700D01*
X121029699Y-64580000D01*
X121048865Y-64811299D01*
X121048865Y-64811301D01*
X121048866Y-64811305D01*
X121100415Y-65014865D01*
X121105844Y-65036303D01*
X121145123Y-65125849D01*
X121199076Y-65248849D01*
X121326021Y-65443153D01*
X121483216Y-65613913D01*
X121666374Y-65756470D01*
X121870497Y-65866936D01*
X121980257Y-65904617D01*
X122090015Y-65942297D01*
X122090017Y-65942297D01*
X122090019Y-65942298D01*
X122318951Y-65980500D01*
X122318952Y-65980500D01*
X122551048Y-65980500D01*
X122551049Y-65980500D01*
X122779981Y-65942298D01*
X122999503Y-65866936D01*
X123203626Y-65756470D01*
X123386784Y-65613913D01*
X123395511Y-65604432D01*
X123455394Y-65568441D01*
X123525233Y-65570538D01*
X123582850Y-65610060D01*
X123602924Y-65645079D01*
X123631647Y-65722088D01*
X123717811Y-65837188D01*
X123832910Y-65923352D01*
X123967628Y-65973599D01*
X124023867Y-65979645D01*
X124030482Y-65980000D01*
X124725000Y-65980000D01*
X124725000Y-64954189D01*
X124777547Y-64990016D01*
X124907173Y-65030000D01*
X125008724Y-65030000D01*
X125109138Y-65014865D01*
X125225000Y-64959068D01*
X125225000Y-65980000D01*
X125919518Y-65980000D01*
X125926132Y-65979645D01*
X125982371Y-65973599D01*
X126117088Y-65923352D01*
X126240943Y-65830635D01*
X126306407Y-65806218D01*
X126374680Y-65821069D01*
X126424086Y-65870474D01*
X126439254Y-65929902D01*
X126439255Y-66222171D01*
X126438187Y-66225808D01*
X126438492Y-66238487D01*
X126436456Y-66246090D01*
X126438110Y-66258171D01*
X126439255Y-66274985D01*
X126439255Y-66290289D01*
X126439898Y-66293368D01*
X126441361Y-66354713D01*
X126456284Y-66417749D01*
X126455828Y-66426307D01*
X126459816Y-66436945D01*
X126464370Y-66451901D01*
X126480314Y-66519249D01*
X126511285Y-66584991D01*
X126512850Y-66595035D01*
X126519231Y-66604747D01*
X126527770Y-66619985D01*
X126541451Y-66649025D01*
X126552373Y-66672209D01*
X126588876Y-66720420D01*
X126600655Y-66735978D01*
X126604818Y-66746956D01*
X126613192Y-66755026D01*
X126626009Y-66769465D01*
X126654436Y-66807010D01*
X126654438Y-66807012D01*
X126688118Y-66836252D01*
X126720226Y-66864127D01*
X126727349Y-66875234D01*
X126736998Y-66881074D01*
X126754084Y-66893521D01*
X126764401Y-66902478D01*
X126782118Y-66917860D01*
X126827782Y-66943231D01*
X126864442Y-66963600D01*
X126874644Y-66973953D01*
X126884758Y-66977323D01*
X126905785Y-66986572D01*
X126939558Y-67005336D01*
X126947903Y-67009081D01*
X126974279Y-67013672D01*
X127026633Y-67029830D01*
X127039758Y-67038522D01*
X127049530Y-67039493D01*
X127073841Y-67044399D01*
X127091485Y-67049845D01*
X127092318Y-67049921D01*
X127119968Y-67055716D01*
X127144825Y-67054742D01*
X127154334Y-67055615D01*
X127219290Y-67081346D01*
X127260025Y-67138113D01*
X127266993Y-67179062D01*
X127269807Y-77699142D01*
X127270000Y-78419999D01*
X127270000Y-78420000D01*
X156581431Y-78482067D01*
X156648426Y-78501894D01*
X156694069Y-78554794D01*
X156703866Y-78623974D01*
X156690826Y-78655364D01*
X156692435Y-78655965D01*
X156686205Y-78672667D01*
X156686204Y-78672669D01*
X156656787Y-78751539D01*
X156635909Y-78807516D01*
X156630079Y-78861746D01*
X156629500Y-78867127D01*
X156629500Y-78870448D01*
X156629500Y-78870449D01*
X156629500Y-80659560D01*
X156629500Y-80659578D01*
X156629501Y-80662872D01*
X156629853Y-80666152D01*
X156629854Y-80666159D01*
X156635909Y-80722484D01*
X156661056Y-80789906D01*
X156686204Y-80857331D01*
X156772454Y-80972546D01*
X156887669Y-81058796D01*
X157022517Y-81109091D01*
X157082127Y-81115500D01*
X158877872Y-81115499D01*
X158937483Y-81109091D01*
X159072331Y-81058796D01*
X159187546Y-80972546D01*
X159273796Y-80857331D01*
X159324091Y-80722483D01*
X159330500Y-80662873D01*
X159330499Y-78867128D01*
X159324091Y-78807517D01*
X159273796Y-78672669D01*
X159273795Y-78672667D01*
X159267565Y-78655964D01*
X159272063Y-78654286D01*
X159259596Y-78620926D01*
X159274403Y-78552644D01*
X159323777Y-78503206D01*
X159383532Y-78488001D01*
X160186651Y-78489701D01*
X160253646Y-78509528D01*
X160299289Y-78562429D01*
X160309086Y-78631608D01*
X160302568Y-78657034D01*
X160246400Y-78807626D01*
X160240354Y-78863867D01*
X160240000Y-78870481D01*
X160240000Y-79515000D01*
X161156314Y-79515000D01*
X161130507Y-79555156D01*
X161090000Y-79693111D01*
X161090000Y-79836889D01*
X161130507Y-79974844D01*
X161156314Y-80015000D01*
X160240000Y-80015000D01*
X160240000Y-80659518D01*
X160240354Y-80666132D01*
X160246400Y-80722371D01*
X160296647Y-80857089D01*
X160382811Y-80972188D01*
X160497910Y-81058352D01*
X160632628Y-81108599D01*
X160688867Y-81114645D01*
X160695482Y-81115000D01*
X161340000Y-81115000D01*
X161340000Y-80200501D01*
X161447685Y-80249680D01*
X161554237Y-80265000D01*
X161625763Y-80265000D01*
X161732315Y-80249680D01*
X161840000Y-80200501D01*
X161840000Y-81115000D01*
X162484518Y-81115000D01*
X162491132Y-81114645D01*
X162547371Y-81108599D01*
X162682089Y-81058352D01*
X162797188Y-80972188D01*
X162883352Y-80857089D01*
X162933599Y-80722371D01*
X162939645Y-80666132D01*
X162940000Y-80659518D01*
X162940000Y-80015000D01*
X162023686Y-80015000D01*
X162049493Y-79974844D01*
X162090000Y-79836889D01*
X162090000Y-79693111D01*
X162049493Y-79555156D01*
X162023686Y-79515000D01*
X162940000Y-79515000D01*
X162940000Y-78870481D01*
X162939645Y-78863867D01*
X162933599Y-78807628D01*
X162879649Y-78662984D01*
X162874665Y-78593292D01*
X162908149Y-78531969D01*
X162969472Y-78498484D01*
X162996086Y-78495650D01*
X164925730Y-78499736D01*
X164992725Y-78519563D01*
X165038368Y-78572463D01*
X165049464Y-78624270D01*
X165039999Y-80819999D01*
X165040000Y-80819999D01*
X165040000Y-80820000D01*
X170060000Y-80830000D01*
X170275929Y-80830000D01*
X170342968Y-80849685D01*
X170388723Y-80902489D01*
X170399928Y-80954068D01*
X170396723Y-86519500D01*
X170390007Y-98176547D01*
X170387106Y-98203140D01*
X170158714Y-99240422D01*
X170125075Y-99301660D01*
X170119595Y-99306792D01*
X169157771Y-100154340D01*
X169117705Y-100178007D01*
X167740316Y-100672703D01*
X167698415Y-100680002D01*
X115385514Y-100685547D01*
X115318473Y-100665870D01*
X115272712Y-100613070D01*
X115262761Y-100543913D01*
X115291779Y-100480354D01*
X115295759Y-100475976D01*
X115348593Y-100420566D01*
X115462166Y-100243844D01*
X115540244Y-100048814D01*
X115580000Y-99842537D01*
X115580000Y-99637500D01*
X114780000Y-99637500D01*
X114780000Y-99137500D01*
X115580000Y-99137500D01*
X115580000Y-98988049D01*
X115579718Y-98982140D01*
X115565035Y-98828379D01*
X115505850Y-98626812D01*
X115409587Y-98440087D01*
X115279730Y-98274961D01*
X115120963Y-98137388D01*
X114939036Y-98032353D01*
X114740514Y-97963643D01*
X114729998Y-97962131D01*
X114729998Y-98871387D01*
X114705543Y-98831890D01*
X114616038Y-98764299D01*
X114508160Y-98733605D01*
X114396479Y-98743954D01*
X114296078Y-98793948D01*
X114229999Y-98866431D01*
X114230000Y-97966240D01*
X114194822Y-97974775D01*
X114125032Y-97971450D01*
X114094909Y-97950000D01*
X165514671Y-97950000D01*
X165533966Y-98244380D01*
X165534757Y-98248361D01*
X165534758Y-98248362D01*
X165590726Y-98529738D01*
X165590728Y-98529745D01*
X165591519Y-98533722D01*
X165592819Y-98537553D01*
X165592823Y-98537566D01*
X165685042Y-98809230D01*
X165686348Y-98813077D01*
X165688141Y-98816713D01*
X165688144Y-98816720D01*
X165815032Y-99074025D01*
X165815038Y-99074036D01*
X165816828Y-99077665D01*
X165819079Y-99081034D01*
X165819082Y-99081039D01*
X165936471Y-99256724D01*
X165980727Y-99322957D01*
X165983408Y-99326014D01*
X166165165Y-99533268D01*
X166175242Y-99544758D01*
X166397043Y-99739273D01*
X166642335Y-99903172D01*
X166645968Y-99904963D01*
X166645974Y-99904967D01*
X166800260Y-99981052D01*
X166906923Y-100033652D01*
X167075619Y-100090917D01*
X167182433Y-100127176D01*
X167182435Y-100127176D01*
X167186278Y-100128481D01*
X167475620Y-100186034D01*
X167770000Y-100205329D01*
X168064380Y-100186034D01*
X168353722Y-100128481D01*
X168633077Y-100033652D01*
X168897665Y-99903172D01*
X169142957Y-99739273D01*
X169364758Y-99544758D01*
X169559273Y-99322957D01*
X169723172Y-99077665D01*
X169853652Y-98813077D01*
X169948481Y-98533722D01*
X170006034Y-98244380D01*
X170025329Y-97950000D01*
X170006034Y-97655620D01*
X169948481Y-97366278D01*
X169853652Y-97086923D01*
X169723172Y-96822336D01*
X169695658Y-96781159D01*
X169561532Y-96580424D01*
X169559273Y-96577043D01*
X169364758Y-96355242D01*
X169142957Y-96160727D01*
X169091149Y-96126110D01*
X168901039Y-95999082D01*
X168901034Y-95999079D01*
X168897665Y-95996828D01*
X168894036Y-95995038D01*
X168894025Y-95995032D01*
X168636720Y-95868144D01*
X168636713Y-95868141D01*
X168633077Y-95866348D01*
X168629230Y-95865042D01*
X168357566Y-95772823D01*
X168357553Y-95772819D01*
X168353722Y-95771519D01*
X168349745Y-95770728D01*
X168349738Y-95770726D01*
X168068362Y-95714758D01*
X168068361Y-95714757D01*
X168064380Y-95713966D01*
X168060330Y-95713700D01*
X168060326Y-95713700D01*
X167774058Y-95694937D01*
X167770000Y-95694671D01*
X167765942Y-95694937D01*
X167479673Y-95713700D01*
X167479667Y-95713700D01*
X167475620Y-95713966D01*
X167471640Y-95714757D01*
X167471637Y-95714758D01*
X167190261Y-95770726D01*
X167190250Y-95770728D01*
X167186278Y-95771519D01*
X167182449Y-95772818D01*
X167182433Y-95772823D01*
X166910769Y-95865042D01*
X166910762Y-95865044D01*
X166906923Y-95866348D01*
X166903286Y-95868141D01*
X166903280Y-95868144D01*
X166645976Y-95995032D01*
X166645964Y-95995038D01*
X166642336Y-95996828D01*
X166638973Y-95999075D01*
X166638961Y-95999082D01*
X166400424Y-96158467D01*
X166400414Y-96158473D01*
X166397043Y-96160727D01*
X166393992Y-96163402D01*
X166393985Y-96163408D01*
X166178290Y-96352568D01*
X166178282Y-96352575D01*
X166175242Y-96355242D01*
X166172575Y-96358282D01*
X166172568Y-96358290D01*
X165983408Y-96573985D01*
X165983402Y-96573992D01*
X165980727Y-96577043D01*
X165978473Y-96580414D01*
X165978467Y-96580424D01*
X165819082Y-96818961D01*
X165819075Y-96818973D01*
X165816828Y-96822336D01*
X165815038Y-96825964D01*
X165815032Y-96825976D01*
X165688144Y-97083280D01*
X165688141Y-97083286D01*
X165686348Y-97086923D01*
X165685044Y-97090762D01*
X165685042Y-97090769D01*
X165592823Y-97362433D01*
X165592818Y-97362449D01*
X165591519Y-97366278D01*
X165590728Y-97370250D01*
X165590726Y-97370261D01*
X165536183Y-97644472D01*
X165533966Y-97655620D01*
X165533700Y-97659667D01*
X165533700Y-97659673D01*
X165519616Y-97874552D01*
X165514671Y-97950000D01*
X114094909Y-97950000D01*
X114068117Y-97930922D01*
X114042149Y-97866057D01*
X114055372Y-97797450D01*
X114094463Y-97752696D01*
X114151620Y-97712673D01*
X113546252Y-97107304D01*
X113612969Y-97096738D01*
X113732923Y-97035618D01*
X113828118Y-96940423D01*
X113889238Y-96820469D01*
X113899804Y-96753750D01*
X114505173Y-97359119D01*
X114544934Y-97302337D01*
X114635518Y-97108078D01*
X114690997Y-96901029D01*
X114709679Y-96687499D01*
X114690997Y-96473970D01*
X114635519Y-96266923D01*
X114544932Y-96072659D01*
X114505173Y-96015878D01*
X113899804Y-96621246D01*
X113889238Y-96554531D01*
X113828118Y-96434577D01*
X113732923Y-96339382D01*
X113612969Y-96278262D01*
X113546251Y-96267695D01*
X114151620Y-95662325D01*
X114094837Y-95622566D01*
X113900576Y-95531980D01*
X113693529Y-95476502D01*
X113479999Y-95457820D01*
X113266470Y-95476502D01*
X113059422Y-95531980D01*
X112865161Y-95622566D01*
X112808378Y-95662324D01*
X113413748Y-96267694D01*
X113347031Y-96278262D01*
X113227077Y-96339382D01*
X113131882Y-96434577D01*
X113070762Y-96554531D01*
X113060195Y-96621249D01*
X112454824Y-96015878D01*
X112415066Y-96072661D01*
X112324480Y-96266922D01*
X112269002Y-96473970D01*
X112250320Y-96687499D01*
X112269002Y-96901029D01*
X112324480Y-97108076D01*
X112415066Y-97302337D01*
X112454825Y-97359119D01*
X113060194Y-96753750D01*
X113070762Y-96820469D01*
X113131882Y-96940423D01*
X113227077Y-97035618D01*
X113347031Y-97096738D01*
X113413747Y-97107304D01*
X112808378Y-97712673D01*
X112865162Y-97752433D01*
X113059423Y-97843019D01*
X113266470Y-97898497D01*
X113480000Y-97917179D01*
X113693527Y-97898497D01*
X113814643Y-97866044D01*
X113884493Y-97867707D01*
X113942356Y-97906869D01*
X113969861Y-97971097D01*
X113958275Y-98039999D01*
X113918666Y-98086826D01*
X113756376Y-98202394D01*
X113611407Y-98354433D01*
X113497833Y-98531155D01*
X113419755Y-98726185D01*
X113380000Y-98932462D01*
X113380000Y-99137500D01*
X114180000Y-99137500D01*
X114180000Y-99637500D01*
X113380000Y-99637500D01*
X113380000Y-99786950D01*
X113380281Y-99792859D01*
X113394964Y-99946620D01*
X113454149Y-100148187D01*
X113550410Y-100334908D01*
X113668513Y-100485088D01*
X113694481Y-100549953D01*
X113681258Y-100618560D01*
X113633042Y-100669127D01*
X113571055Y-100685740D01*
X108384806Y-100686289D01*
X108317765Y-100666612D01*
X108272004Y-100613812D01*
X108262053Y-100544655D01*
X108291071Y-100481096D01*
X108295051Y-100476718D01*
X108348593Y-100420566D01*
X108462166Y-100243844D01*
X108540244Y-100048814D01*
X108580000Y-99842537D01*
X108580000Y-99637500D01*
X107780000Y-99637500D01*
X107780000Y-99137500D01*
X108579999Y-99137500D01*
X108580000Y-98988049D01*
X108579718Y-98982140D01*
X108565035Y-98828379D01*
X108505850Y-98626812D01*
X108409587Y-98440087D01*
X108279730Y-98274961D01*
X108120963Y-98137388D01*
X108038527Y-98089794D01*
X107990311Y-98039227D01*
X107977089Y-97970620D01*
X108003057Y-97905755D01*
X108059971Y-97865227D01*
X108129761Y-97861902D01*
X108132621Y-97862632D01*
X108266470Y-97898497D01*
X108480000Y-97917179D01*
X108693529Y-97898497D01*
X108900578Y-97843018D01*
X109094837Y-97752434D01*
X109151620Y-97712673D01*
X108546252Y-97107304D01*
X108612969Y-97096738D01*
X108732923Y-97035618D01*
X108828118Y-96940423D01*
X108889238Y-96820469D01*
X108899804Y-96753751D01*
X109505173Y-97359119D01*
X109544934Y-97302337D01*
X109635518Y-97108078D01*
X109690997Y-96901029D01*
X109709679Y-96687500D01*
X109690997Y-96473970D01*
X109635519Y-96266923D01*
X109544932Y-96072659D01*
X109505173Y-96015878D01*
X108899804Y-96621247D01*
X108889238Y-96554531D01*
X108828118Y-96434577D01*
X108732923Y-96339382D01*
X108612969Y-96278262D01*
X108546250Y-96267694D01*
X109151620Y-95662325D01*
X109094837Y-95622566D01*
X108900576Y-95531980D01*
X108693529Y-95476502D01*
X108480000Y-95457820D01*
X108266470Y-95476502D01*
X108059422Y-95531980D01*
X107865161Y-95622566D01*
X107808378Y-95662324D01*
X107808378Y-95662325D01*
X108413747Y-96267695D01*
X108347031Y-96278262D01*
X108227077Y-96339382D01*
X108131882Y-96434577D01*
X108070762Y-96554531D01*
X108060195Y-96621247D01*
X107454825Y-96015878D01*
X107454824Y-96015878D01*
X107415066Y-96072661D01*
X107324480Y-96266922D01*
X107269002Y-96473970D01*
X107250320Y-96687500D01*
X107269002Y-96901029D01*
X107324480Y-97108076D01*
X107415066Y-97302337D01*
X107454825Y-97359119D01*
X108060194Y-96753750D01*
X108070762Y-96820469D01*
X108131882Y-96940423D01*
X108227077Y-97035618D01*
X108347031Y-97096738D01*
X108413747Y-97107304D01*
X107808378Y-97712673D01*
X107856529Y-97746389D01*
X107900154Y-97800966D01*
X107907348Y-97870464D01*
X107875825Y-97932819D01*
X107815595Y-97968233D01*
X107745780Y-97965462D01*
X107744853Y-97965145D01*
X107740515Y-97963644D01*
X107730000Y-97962131D01*
X107730000Y-98871389D01*
X107705543Y-98831890D01*
X107616038Y-98764299D01*
X107508160Y-98733605D01*
X107396479Y-98743954D01*
X107296078Y-98793948D01*
X107230000Y-98866430D01*
X107230000Y-97966240D01*
X107118593Y-97993268D01*
X106927494Y-98080539D01*
X106756378Y-98202392D01*
X106611407Y-98354433D01*
X106497833Y-98531155D01*
X106419755Y-98726185D01*
X106380000Y-98932462D01*
X106380000Y-99137500D01*
X107180000Y-99137500D01*
X107180000Y-99637500D01*
X106380000Y-99637500D01*
X106380000Y-99786950D01*
X106380281Y-99792859D01*
X106394964Y-99946620D01*
X106454149Y-100148187D01*
X106550412Y-100334912D01*
X106669096Y-100485830D01*
X106695065Y-100550695D01*
X106681842Y-100619302D01*
X106633626Y-100669869D01*
X106571639Y-100686482D01*
X73432883Y-100689996D01*
X73371435Y-100673707D01*
X73126232Y-100533851D01*
X73077751Y-100483538D01*
X73064168Y-100415002D01*
X73089795Y-100350001D01*
X73146496Y-100309175D01*
X73216268Y-100305483D01*
X73227527Y-100308721D01*
X73256278Y-100318481D01*
X73545620Y-100376034D01*
X73840000Y-100395329D01*
X74134380Y-100376034D01*
X74423722Y-100318481D01*
X74703077Y-100223652D01*
X74967665Y-100093172D01*
X75212957Y-99929273D01*
X75434758Y-99734758D01*
X75629273Y-99512957D01*
X75793172Y-99267665D01*
X75923652Y-99003077D01*
X76018481Y-98723722D01*
X76076034Y-98434380D01*
X76095329Y-98140000D01*
X76076034Y-97845620D01*
X76018481Y-97556278D01*
X75923652Y-97276923D01*
X75793172Y-97012336D01*
X75629273Y-96767043D01*
X75434758Y-96545242D01*
X75337558Y-96460000D01*
X75216014Y-96353408D01*
X75212957Y-96350727D01*
X75195978Y-96339382D01*
X74971039Y-96189082D01*
X74971034Y-96189079D01*
X74967665Y-96186828D01*
X74964036Y-96185038D01*
X74964025Y-96185032D01*
X74706720Y-96058144D01*
X74706713Y-96058141D01*
X74703077Y-96056348D01*
X74699230Y-96055042D01*
X74427566Y-95962823D01*
X74427553Y-95962819D01*
X74423722Y-95961519D01*
X74419745Y-95960728D01*
X74419738Y-95960726D01*
X74138362Y-95904758D01*
X74138361Y-95904757D01*
X74134380Y-95903966D01*
X74130330Y-95903700D01*
X74130326Y-95903700D01*
X73844058Y-95884937D01*
X73840000Y-95884671D01*
X73835942Y-95884937D01*
X73549673Y-95903700D01*
X73549667Y-95903700D01*
X73545620Y-95903966D01*
X73541640Y-95904757D01*
X73541637Y-95904758D01*
X73260261Y-95960726D01*
X73260250Y-95960728D01*
X73256278Y-95961519D01*
X73252449Y-95962818D01*
X73252433Y-95962823D01*
X72980769Y-96055042D01*
X72980762Y-96055044D01*
X72976923Y-96056348D01*
X72973286Y-96058141D01*
X72973280Y-96058144D01*
X72715976Y-96185032D01*
X72715964Y-96185038D01*
X72712336Y-96186828D01*
X72708973Y-96189075D01*
X72708961Y-96189082D01*
X72470424Y-96348467D01*
X72470414Y-96348473D01*
X72467043Y-96350727D01*
X72463992Y-96353402D01*
X72463985Y-96353408D01*
X72248290Y-96542568D01*
X72248282Y-96542575D01*
X72245242Y-96545242D01*
X72242575Y-96548282D01*
X72242568Y-96548290D01*
X72053408Y-96763985D01*
X72053402Y-96763992D01*
X72050727Y-96767043D01*
X72048473Y-96770414D01*
X72048467Y-96770424D01*
X71889082Y-97008961D01*
X71889075Y-97008973D01*
X71886828Y-97012336D01*
X71885038Y-97015964D01*
X71885032Y-97015976D01*
X71758144Y-97273280D01*
X71758141Y-97273286D01*
X71756348Y-97276923D01*
X71755044Y-97280762D01*
X71755042Y-97280769D01*
X71662823Y-97552433D01*
X71662818Y-97552449D01*
X71661519Y-97556278D01*
X71660728Y-97560250D01*
X71660726Y-97560261D01*
X71604869Y-97841079D01*
X71603966Y-97845620D01*
X71603700Y-97849667D01*
X71603700Y-97849673D01*
X71588568Y-98080539D01*
X71584671Y-98140000D01*
X71584937Y-98144058D01*
X71596264Y-98316880D01*
X71603966Y-98434380D01*
X71604757Y-98438361D01*
X71604758Y-98438362D01*
X71660726Y-98719738D01*
X71660728Y-98719745D01*
X71661519Y-98723722D01*
X71662819Y-98727553D01*
X71662823Y-98727566D01*
X71712573Y-98874122D01*
X71715483Y-98943932D01*
X71680188Y-99004232D01*
X71617896Y-99035878D01*
X71548384Y-99028822D01*
X71493720Y-98985306D01*
X71488618Y-98977433D01*
X71256743Y-98588112D01*
X71239307Y-98527286D01*
X71200026Y-96671261D01*
X71199999Y-96668735D01*
X71199945Y-96573985D01*
X71181442Y-63860000D01*
X74404540Y-63860000D01*
X74424326Y-64048257D01*
X74482820Y-64228284D01*
X74577466Y-64392216D01*
X74704129Y-64532889D01*
X74857269Y-64644151D01*
X75030197Y-64721144D01*
X75215352Y-64760500D01*
X75215354Y-64760500D01*
X75404648Y-64760500D01*
X75583423Y-64722500D01*
X75589803Y-64721144D01*
X75762730Y-64644151D01*
X75762729Y-64644150D01*
X75915870Y-64532889D01*
X76002322Y-64436875D01*
X76006350Y-64432400D01*
X76065837Y-64395752D01*
X76135694Y-64397083D01*
X76193742Y-64435969D01*
X76221552Y-64500066D01*
X76222500Y-64515373D01*
X76222500Y-88087033D01*
X76220229Y-88107599D01*
X76222439Y-88177917D01*
X76222500Y-88181811D01*
X76222500Y-88209476D01*
X76222988Y-88213343D01*
X76222989Y-88213354D01*
X76223007Y-88213494D01*
X76223921Y-88225118D01*
X76225298Y-88268943D01*
X76230916Y-88288278D01*
X76234861Y-88307328D01*
X76237383Y-88327293D01*
X76253519Y-88368049D01*
X76257302Y-88379098D01*
X76269530Y-88421187D01*
X76269531Y-88421189D01*
X76269532Y-88421191D01*
X76279779Y-88438517D01*
X76288338Y-88455989D01*
X76295747Y-88474705D01*
X76321511Y-88510165D01*
X76327925Y-88519929D01*
X76347197Y-88552516D01*
X76350237Y-88557656D01*
X76364475Y-88571894D01*
X76377108Y-88586686D01*
X76388936Y-88602966D01*
X76422705Y-88630902D01*
X76431346Y-88638765D01*
X79620400Y-91827819D01*
X79653885Y-91889142D01*
X79648901Y-91958834D01*
X79607029Y-92014767D01*
X79541565Y-92039184D01*
X79532719Y-92039500D01*
X78635439Y-92039500D01*
X78635420Y-92039500D01*
X78632128Y-92039501D01*
X78628848Y-92039853D01*
X78628840Y-92039854D01*
X78572515Y-92045909D01*
X78437669Y-92096204D01*
X78322454Y-92182454D01*
X78236204Y-92297668D01*
X78208587Y-92371715D01*
X78185909Y-92432517D01*
X78179500Y-92492127D01*
X78179500Y-92495448D01*
X78179500Y-92495449D01*
X78179500Y-94284560D01*
X78179500Y-94284578D01*
X78179501Y-94287872D01*
X78179853Y-94291152D01*
X78179854Y-94291159D01*
X78185909Y-94347484D01*
X78198694Y-94381762D01*
X78236204Y-94482331D01*
X78322454Y-94597546D01*
X78437669Y-94683796D01*
X78572517Y-94734091D01*
X78632127Y-94740500D01*
X80427872Y-94740499D01*
X80487483Y-94734091D01*
X80622331Y-94683796D01*
X80737546Y-94597546D01*
X80823796Y-94482331D01*
X80872810Y-94350916D01*
X80914681Y-94294983D01*
X80980146Y-94270566D01*
X81048419Y-94285418D01*
X81076672Y-94306568D01*
X81198599Y-94428495D01*
X81392170Y-94564035D01*
X81606337Y-94663903D01*
X81834592Y-94725063D01*
X82070000Y-94745659D01*
X82305408Y-94725063D01*
X82533663Y-94663903D01*
X82747830Y-94564035D01*
X82941401Y-94428495D01*
X83108495Y-94261401D01*
X83238426Y-94075839D01*
X83293002Y-94032216D01*
X83362500Y-94025022D01*
X83424855Y-94056545D01*
X83441571Y-94075837D01*
X83571505Y-94261401D01*
X83738599Y-94428495D01*
X83932170Y-94564035D01*
X84146337Y-94663903D01*
X84358059Y-94720633D01*
X84374592Y-94725063D01*
X84609999Y-94745659D01*
X84609999Y-94745658D01*
X84610000Y-94745659D01*
X84845408Y-94725063D01*
X85073663Y-94663903D01*
X85287830Y-94564035D01*
X85481401Y-94428495D01*
X85648495Y-94261401D01*
X85778732Y-94075403D01*
X85833307Y-94031780D01*
X85902805Y-94024586D01*
X85965160Y-94056109D01*
X85981880Y-94075404D01*
X86111893Y-94261081D01*
X86278918Y-94428106D01*
X86472423Y-94563600D01*
X86686509Y-94663430D01*
X86900000Y-94720634D01*
X86900000Y-93825501D01*
X87007685Y-93874680D01*
X87114237Y-93890000D01*
X87185763Y-93890000D01*
X87292315Y-93874680D01*
X87399999Y-93825501D01*
X87399999Y-94720633D01*
X87613490Y-94663430D01*
X87827576Y-94563600D01*
X88021081Y-94428106D01*
X88188106Y-94261081D01*
X88323600Y-94067576D01*
X88423430Y-93853492D01*
X88480636Y-93640000D01*
X87583686Y-93640000D01*
X87609493Y-93599844D01*
X87650000Y-93461889D01*
X87650000Y-93318111D01*
X87609493Y-93180156D01*
X87583686Y-93140000D01*
X88480636Y-93140000D01*
X88480635Y-93139999D01*
X88423430Y-92926507D01*
X88323599Y-92712421D01*
X88188109Y-92518921D01*
X88021081Y-92351893D01*
X87827576Y-92216399D01*
X87613492Y-92116569D01*
X87400000Y-92059364D01*
X87400000Y-92954498D01*
X87292315Y-92905320D01*
X87185763Y-92890000D01*
X87114237Y-92890000D01*
X87007685Y-92905320D01*
X86900000Y-92954498D01*
X86900000Y-92059364D01*
X86899999Y-92059364D01*
X86686507Y-92116569D01*
X86472421Y-92216400D01*
X86278921Y-92351890D01*
X86111893Y-92518918D01*
X85981880Y-92704596D01*
X85927303Y-92748220D01*
X85857804Y-92755413D01*
X85795450Y-92723891D01*
X85778730Y-92704595D01*
X85648495Y-92518599D01*
X85481401Y-92351505D01*
X85287830Y-92215965D01*
X85073663Y-92116097D01*
X85012502Y-92099709D01*
X84845407Y-92054936D01*
X84609999Y-92034340D01*
X84374592Y-92054936D01*
X84146336Y-92116097D01*
X83932170Y-92215965D01*
X83738598Y-92351505D01*
X83571505Y-92518598D01*
X83441575Y-92704159D01*
X83386998Y-92747784D01*
X83317500Y-92754978D01*
X83255145Y-92723455D01*
X83238425Y-92704159D01*
X83186979Y-92630686D01*
X83108495Y-92518599D01*
X82941401Y-92351505D01*
X82747830Y-92215965D01*
X82533663Y-92116097D01*
X82472502Y-92099709D01*
X82305407Y-92054936D01*
X82070000Y-92034340D01*
X81834593Y-92054936D01*
X81736357Y-92081258D01*
X81666507Y-92079595D01*
X81616583Y-92049164D01*
X77513819Y-87946400D01*
X77480334Y-87885077D01*
X77477500Y-87858719D01*
X77477500Y-71600000D01*
X79494540Y-71600000D01*
X79498241Y-71635217D01*
X79514326Y-71788257D01*
X79572820Y-71968284D01*
X79667466Y-72132216D01*
X79794129Y-72272889D01*
X79947269Y-72384151D01*
X80120197Y-72461144D01*
X80305352Y-72500500D01*
X80305354Y-72500500D01*
X80494648Y-72500500D01*
X80635786Y-72470500D01*
X80679803Y-72461144D01*
X80852730Y-72384151D01*
X80941649Y-72319548D01*
X81005870Y-72272889D01*
X81132533Y-72132216D01*
X81227179Y-71968284D01*
X81285674Y-71788256D01*
X81305460Y-71600000D01*
X81285674Y-71411744D01*
X81227179Y-71231716D01*
X81227179Y-71231715D01*
X81132533Y-71067783D01*
X81059350Y-70986505D01*
X81029120Y-70923513D01*
X81027500Y-70903533D01*
X81027500Y-66461280D01*
X81047185Y-66394241D01*
X81063815Y-66373603D01*
X81720819Y-65716598D01*
X81782142Y-65683114D01*
X81851834Y-65688098D01*
X81907767Y-65729970D01*
X81932184Y-65795434D01*
X81932500Y-65804280D01*
X81932500Y-70873533D01*
X81912815Y-70940572D01*
X81900650Y-70956505D01*
X81827466Y-71037783D01*
X81732820Y-71201715D01*
X81674326Y-71381742D01*
X81654540Y-71570000D01*
X81674326Y-71758257D01*
X81732820Y-71938284D01*
X81827466Y-72102216D01*
X81954129Y-72242889D01*
X82107269Y-72354151D01*
X82280197Y-72431144D01*
X82465352Y-72470500D01*
X82465354Y-72470500D01*
X82654648Y-72470500D01*
X82778083Y-72444262D01*
X82839803Y-72431144D01*
X83012730Y-72354151D01*
X83165871Y-72242888D01*
X83214344Y-72189052D01*
X83273830Y-72152404D01*
X83343687Y-72153734D01*
X83398642Y-72189052D01*
X83431260Y-72225277D01*
X83474130Y-72272889D01*
X83627269Y-72384151D01*
X83800197Y-72461144D01*
X83985352Y-72500500D01*
X83985354Y-72500500D01*
X84174648Y-72500500D01*
X84315786Y-72470500D01*
X84359803Y-72461144D01*
X84532730Y-72384151D01*
X84621649Y-72319548D01*
X84685870Y-72272889D01*
X84812533Y-72132216D01*
X84907179Y-71968284D01*
X84965674Y-71788256D01*
X84985460Y-71600000D01*
X84965674Y-71411744D01*
X84907179Y-71231716D01*
X84907179Y-71231715D01*
X84812533Y-71067783D01*
X84739350Y-70986505D01*
X84709120Y-70923513D01*
X84707500Y-70903533D01*
X84707500Y-66041280D01*
X84727185Y-65974241D01*
X84743815Y-65953603D01*
X85170931Y-65526486D01*
X85232252Y-65493003D01*
X85301943Y-65497987D01*
X85357877Y-65539858D01*
X85376541Y-65575851D01*
X85422820Y-65718284D01*
X85517466Y-65882216D01*
X85644129Y-66022889D01*
X85797269Y-66134151D01*
X85970197Y-66211144D01*
X86155352Y-66250500D01*
X86155354Y-66250500D01*
X86344648Y-66250500D01*
X86468084Y-66224262D01*
X86529803Y-66211144D01*
X86702730Y-66134151D01*
X86720755Y-66121055D01*
X86855870Y-66022889D01*
X86859797Y-66018528D01*
X86919283Y-65981879D01*
X86951947Y-65977500D01*
X95598053Y-65977500D01*
X95665092Y-65997185D01*
X95690203Y-66018528D01*
X95694129Y-66022889D01*
X95847269Y-66134151D01*
X96020197Y-66211144D01*
X96205352Y-66250500D01*
X96205354Y-66250500D01*
X96394648Y-66250500D01*
X96518084Y-66224262D01*
X96579803Y-66211144D01*
X96666634Y-66172484D01*
X96752727Y-66134153D01*
X96773791Y-66118849D01*
X96852651Y-66061554D01*
X96918455Y-66038075D01*
X96986509Y-66053900D01*
X97035204Y-66104006D01*
X97049080Y-66172484D01*
X97045638Y-66192715D01*
X97036919Y-66226668D01*
X97030619Y-66245069D01*
X97022625Y-66263542D01*
X97015769Y-66306831D01*
X97013401Y-66318267D01*
X97002500Y-66360727D01*
X97002500Y-66380858D01*
X97000973Y-66400256D01*
X96998203Y-66417749D01*
X96997825Y-66420133D01*
X96999414Y-66436945D01*
X97001950Y-66463767D01*
X97002500Y-66475437D01*
X97002500Y-66607626D01*
X96982815Y-66674665D01*
X96930011Y-66720420D01*
X96860853Y-66730364D01*
X96805615Y-66707944D01*
X96802730Y-66705848D01*
X96629802Y-66628855D01*
X96444648Y-66589500D01*
X96444646Y-66589500D01*
X96255354Y-66589500D01*
X96255352Y-66589500D01*
X96070197Y-66628855D01*
X95897269Y-66705848D01*
X95744129Y-66817110D01*
X95740203Y-66821472D01*
X95680717Y-66858121D01*
X95648053Y-66862500D01*
X87011947Y-66862500D01*
X86944908Y-66842815D01*
X86919797Y-66821472D01*
X86915870Y-66817110D01*
X86762730Y-66705848D01*
X86589802Y-66628855D01*
X86404648Y-66589500D01*
X86404646Y-66589500D01*
X86215354Y-66589500D01*
X86215352Y-66589500D01*
X86030197Y-66628855D01*
X85857269Y-66705848D01*
X85704129Y-66817110D01*
X85577466Y-66957783D01*
X85482820Y-67121715D01*
X85424326Y-67301742D01*
X85404540Y-67489999D01*
X85424326Y-67678257D01*
X85482820Y-67858284D01*
X85577466Y-68022216D01*
X85704129Y-68162889D01*
X85857269Y-68274151D01*
X86030197Y-68351144D01*
X86215352Y-68390500D01*
X86215354Y-68390500D01*
X86404648Y-68390500D01*
X86528084Y-68364262D01*
X86589803Y-68351144D01*
X86762730Y-68274151D01*
X86915871Y-68162888D01*
X86919796Y-68158528D01*
X86979283Y-68121879D01*
X87011947Y-68117500D01*
X95648053Y-68117500D01*
X95715092Y-68137185D01*
X95740203Y-68158528D01*
X95744129Y-68162889D01*
X95897269Y-68274151D01*
X96070197Y-68351144D01*
X96255352Y-68390500D01*
X96255354Y-68390500D01*
X96444648Y-68390500D01*
X96568083Y-68364262D01*
X96629803Y-68351144D01*
X96802730Y-68274151D01*
X96805608Y-68272059D01*
X96871410Y-68248576D01*
X96939465Y-68264395D01*
X96988164Y-68314497D01*
X97002499Y-68372373D01*
X97002500Y-68698718D01*
X96982816Y-68765757D01*
X96966181Y-68786399D01*
X89999400Y-75753181D01*
X89938077Y-75786666D01*
X89911719Y-75789500D01*
X89855352Y-75789500D01*
X89670197Y-75828855D01*
X89497269Y-75905848D01*
X89344129Y-76017110D01*
X89217466Y-76157783D01*
X89122820Y-76321715D01*
X89064326Y-76501742D01*
X89044540Y-76690000D01*
X89064326Y-76878257D01*
X89122820Y-77058284D01*
X89217466Y-77222216D01*
X89344129Y-77362889D01*
X89497269Y-77474151D01*
X89670193Y-77551143D01*
X89670196Y-77551143D01*
X89670197Y-77551144D01*
X89728146Y-77563461D01*
X89789627Y-77596652D01*
X89790046Y-77597070D01*
X89830795Y-77637819D01*
X89864280Y-77699142D01*
X89859296Y-77768834D01*
X89817424Y-77824767D01*
X89751960Y-77849184D01*
X89745804Y-77849403D01*
X89560197Y-77888855D01*
X89387269Y-77965848D01*
X89234129Y-78077110D01*
X89230203Y-78081472D01*
X89170717Y-78118121D01*
X89138053Y-78122500D01*
X88002966Y-78122500D01*
X87982399Y-78120229D01*
X87912095Y-78122439D01*
X87908200Y-78122500D01*
X87880524Y-78122500D01*
X87876652Y-78122988D01*
X87876635Y-78122990D01*
X87876493Y-78123008D01*
X87864874Y-78123922D01*
X87821057Y-78125299D01*
X87801724Y-78130916D01*
X87782678Y-78134860D01*
X87762705Y-78137383D01*
X87721953Y-78153518D01*
X87710905Y-78157301D01*
X87668807Y-78169532D01*
X87651480Y-78179779D01*
X87634012Y-78188336D01*
X87615295Y-78195746D01*
X87579825Y-78221516D01*
X87570067Y-78227927D01*
X87560972Y-78233305D01*
X87532344Y-78250237D01*
X87532342Y-78250238D01*
X87532343Y-78250238D01*
X87518107Y-78264473D01*
X87503319Y-78277103D01*
X87487033Y-78288936D01*
X87459091Y-78322711D01*
X87451230Y-78331349D01*
X84956400Y-80826181D01*
X84895077Y-80859666D01*
X84868719Y-80862500D01*
X82632965Y-80862500D01*
X82612398Y-80860229D01*
X82542095Y-80862439D01*
X82538200Y-80862500D01*
X82510524Y-80862500D01*
X82506652Y-80862988D01*
X82506635Y-80862990D01*
X82506493Y-80863008D01*
X82494874Y-80863922D01*
X82451057Y-80865299D01*
X82431724Y-80870916D01*
X82412679Y-80874860D01*
X82392707Y-80877383D01*
X82351954Y-80893518D01*
X82340907Y-80897300D01*
X82298804Y-80909532D01*
X82281476Y-80919780D01*
X82264009Y-80928337D01*
X82245298Y-80935745D01*
X82209837Y-80961509D01*
X82200077Y-80967920D01*
X82162345Y-80990235D01*
X82148107Y-81004473D01*
X82133319Y-81017103D01*
X82117033Y-81028936D01*
X82089091Y-81062711D01*
X82081230Y-81071349D01*
X81464954Y-81687625D01*
X81448806Y-81700563D01*
X81400646Y-81751847D01*
X81397941Y-81754639D01*
X81378377Y-81774204D01*
X81376003Y-81777264D01*
X81375984Y-81777286D01*
X81375879Y-81777423D01*
X81368317Y-81786274D01*
X81338306Y-81818233D01*
X81328606Y-81835877D01*
X81317928Y-81852133D01*
X81305592Y-81868036D01*
X81288185Y-81908262D01*
X81283047Y-81918750D01*
X81261927Y-81957166D01*
X81256919Y-81976670D01*
X81250619Y-81995069D01*
X81242625Y-82013542D01*
X81235769Y-82056831D01*
X81233401Y-82068267D01*
X81222500Y-82110727D01*
X81222500Y-82130858D01*
X81220973Y-82150256D01*
X81217825Y-82170130D01*
X81221950Y-82213765D01*
X81222500Y-82225435D01*
X81222500Y-83183533D01*
X81202815Y-83250572D01*
X81190650Y-83266505D01*
X81117466Y-83347783D01*
X81022820Y-83511715D01*
X80964326Y-83691742D01*
X80944540Y-83879999D01*
X80964326Y-84068257D01*
X81022820Y-84248284D01*
X81117466Y-84412216D01*
X81244129Y-84552889D01*
X81397269Y-84664151D01*
X81570197Y-84741144D01*
X81755352Y-84780500D01*
X81755354Y-84780500D01*
X81944648Y-84780500D01*
X82068609Y-84754151D01*
X82129803Y-84741144D01*
X82235671Y-84694008D01*
X82302727Y-84664153D01*
X82308443Y-84660000D01*
X82375956Y-84610949D01*
X82441760Y-84587470D01*
X82509814Y-84603295D01*
X82540990Y-84628296D01*
X82554129Y-84642889D01*
X82707269Y-84754151D01*
X82880197Y-84831144D01*
X83065352Y-84870500D01*
X83065354Y-84870500D01*
X83254648Y-84870500D01*
X83378084Y-84844262D01*
X83439803Y-84831144D01*
X83612730Y-84754151D01*
X83736605Y-84664151D01*
X83765870Y-84642889D01*
X83801521Y-84603295D01*
X83868842Y-84528527D01*
X83928327Y-84491879D01*
X83960991Y-84487500D01*
X88997034Y-84487500D01*
X89017601Y-84489770D01*
X89020475Y-84489679D01*
X89020477Y-84489680D01*
X89087918Y-84487561D01*
X89091813Y-84487500D01*
X89115574Y-84487500D01*
X89119476Y-84487500D01*
X89123482Y-84486993D01*
X89135113Y-84486077D01*
X89178943Y-84484701D01*
X89198280Y-84479082D01*
X89217321Y-84475138D01*
X89237293Y-84472616D01*
X89278055Y-84456476D01*
X89289092Y-84452698D01*
X89331191Y-84440468D01*
X89348510Y-84430224D01*
X89365994Y-84421659D01*
X89384703Y-84414253D01*
X89420168Y-84388485D01*
X89429924Y-84382076D01*
X89437220Y-84377761D01*
X89500331Y-84360500D01*
X89574648Y-84360500D01*
X89698084Y-84334262D01*
X89759803Y-84321144D01*
X89932730Y-84244151D01*
X90085871Y-84132888D01*
X90212533Y-83992216D01*
X90307179Y-83828284D01*
X90365674Y-83648256D01*
X90385460Y-83460000D01*
X90365674Y-83271744D01*
X90325586Y-83148366D01*
X90307179Y-83091715D01*
X90212533Y-82927783D01*
X90085870Y-82787110D01*
X89932730Y-82675848D01*
X89759802Y-82598855D01*
X89574648Y-82559500D01*
X89574646Y-82559500D01*
X89385354Y-82559500D01*
X89385352Y-82559500D01*
X89200197Y-82598855D01*
X89027269Y-82675848D01*
X88874129Y-82787110D01*
X88747466Y-82927783D01*
X88652820Y-83091715D01*
X88634917Y-83146818D01*
X88595480Y-83204493D01*
X88531121Y-83231692D01*
X88516986Y-83232500D01*
X83717230Y-83232500D01*
X83650191Y-83212815D01*
X83644344Y-83208818D01*
X83612727Y-83185846D01*
X83439802Y-83108855D01*
X83254648Y-83069500D01*
X83254646Y-83069500D01*
X83065354Y-83069500D01*
X83065352Y-83069500D01*
X82880197Y-83108855D01*
X82707269Y-83185848D01*
X82674383Y-83209741D01*
X82608576Y-83233220D01*
X82540522Y-83217394D01*
X82491828Y-83167287D01*
X82477499Y-83109422D01*
X82477499Y-82879262D01*
X82477499Y-82501277D01*
X82497184Y-82434242D01*
X82513813Y-82413605D01*
X82773600Y-82153819D01*
X82834923Y-82120334D01*
X82861281Y-82117500D01*
X85097034Y-82117500D01*
X85117601Y-82119770D01*
X85120475Y-82119679D01*
X85120477Y-82119680D01*
X85187918Y-82117561D01*
X85191813Y-82117500D01*
X85215574Y-82117500D01*
X85219476Y-82117500D01*
X85223482Y-82116993D01*
X85235113Y-82116077D01*
X85278943Y-82114701D01*
X85298280Y-82109082D01*
X85317321Y-82105138D01*
X85337293Y-82102616D01*
X85378055Y-82086476D01*
X85389092Y-82082698D01*
X85431191Y-82070468D01*
X85448510Y-82060224D01*
X85465994Y-82051659D01*
X85484703Y-82044253D01*
X85520168Y-82018485D01*
X85529915Y-82012081D01*
X85567656Y-81989763D01*
X85581892Y-81975526D01*
X85596679Y-81962896D01*
X85612967Y-81951063D01*
X85640904Y-81917290D01*
X85648756Y-81908661D01*
X88143599Y-79413819D01*
X88204923Y-79380334D01*
X88231281Y-79377500D01*
X89138053Y-79377500D01*
X89205092Y-79397185D01*
X89230203Y-79418528D01*
X89234129Y-79422889D01*
X89387269Y-79534151D01*
X89560197Y-79611144D01*
X89745352Y-79650500D01*
X89745354Y-79650500D01*
X89934648Y-79650500D01*
X90068395Y-79622071D01*
X90119803Y-79611144D01*
X90292730Y-79534151D01*
X90332165Y-79505500D01*
X90445870Y-79422889D01*
X90484187Y-79380334D01*
X90572533Y-79282216D01*
X90584112Y-79262159D01*
X90634679Y-79213944D01*
X90703286Y-79200720D01*
X90768151Y-79226688D01*
X90808680Y-79283601D01*
X90815500Y-79324159D01*
X90815500Y-89866000D01*
X90814191Y-89883970D01*
X90810685Y-89907906D01*
X90815028Y-89957546D01*
X90815500Y-89968353D01*
X90815500Y-89973941D01*
X90815916Y-89977502D01*
X90815917Y-89977517D01*
X90819116Y-90004885D01*
X90819482Y-90008469D01*
X90826162Y-90084819D01*
X90830423Y-90104039D01*
X90856621Y-90176020D01*
X90857804Y-90179424D01*
X90881916Y-90252187D01*
X90890496Y-90269908D01*
X90932613Y-90333946D01*
X90934550Y-90336986D01*
X90974130Y-90401154D01*
X90974131Y-90401155D01*
X90974772Y-90402194D01*
X90987202Y-90417453D01*
X91042937Y-90470035D01*
X91045525Y-90472549D01*
X92519182Y-91946206D01*
X92552666Y-92007527D01*
X92555500Y-92033885D01*
X92555500Y-92205099D01*
X92535815Y-92272138D01*
X92502625Y-92306673D01*
X92438600Y-92351504D01*
X92316673Y-92473431D01*
X92255350Y-92506915D01*
X92185658Y-92501931D01*
X92129725Y-92460059D01*
X92112810Y-92429082D01*
X92092322Y-92374151D01*
X92063796Y-92297669D01*
X91977546Y-92182454D01*
X91862331Y-92096204D01*
X91727483Y-92045909D01*
X91667873Y-92039500D01*
X91664551Y-92039500D01*
X90927886Y-92039500D01*
X90860847Y-92019815D01*
X90840205Y-92003181D01*
X88330049Y-89493025D01*
X88299799Y-89443662D01*
X88247179Y-89281715D01*
X88152533Y-89117783D01*
X88025870Y-88977110D01*
X87872730Y-88865848D01*
X87699802Y-88788855D01*
X87514648Y-88749500D01*
X87514646Y-88749500D01*
X87325354Y-88749500D01*
X87325352Y-88749500D01*
X87140197Y-88788855D01*
X86967269Y-88865848D01*
X86814129Y-88977110D01*
X86687466Y-89117783D01*
X86592820Y-89281715D01*
X86534326Y-89461742D01*
X86514540Y-89650000D01*
X86534326Y-89838257D01*
X86592820Y-90018284D01*
X86687466Y-90182216D01*
X86814129Y-90322889D01*
X86967269Y-90434151D01*
X87140193Y-90511143D01*
X87140196Y-90511143D01*
X87140197Y-90511144D01*
X87198146Y-90523461D01*
X87259627Y-90556652D01*
X87260046Y-90557070D01*
X89383181Y-92680205D01*
X89416666Y-92741528D01*
X89419500Y-92767886D01*
X89419500Y-94284560D01*
X89419500Y-94284578D01*
X89419501Y-94287872D01*
X89419853Y-94291152D01*
X89419854Y-94291159D01*
X89425909Y-94347484D01*
X89438694Y-94381762D01*
X89476204Y-94482331D01*
X89562454Y-94597546D01*
X89677669Y-94683796D01*
X89812517Y-94734091D01*
X89872127Y-94740500D01*
X90172113Y-94740499D01*
X90239152Y-94760183D01*
X90259794Y-94776818D01*
X93091234Y-97608258D01*
X93103015Y-97621890D01*
X93117461Y-97641294D01*
X93122774Y-97645752D01*
X93155634Y-97673325D01*
X93163609Y-97680633D01*
X93167559Y-97684583D01*
X93192029Y-97703931D01*
X93194739Y-97706138D01*
X93252573Y-97754667D01*
X93252578Y-97754669D01*
X93253512Y-97755453D01*
X93270101Y-97766022D01*
X93271207Y-97766538D01*
X93271209Y-97766539D01*
X93339584Y-97798422D01*
X93342775Y-97799968D01*
X93411282Y-97834373D01*
X93429866Y-97840831D01*
X93431054Y-97841076D01*
X93431060Y-97841079D01*
X93505007Y-97856347D01*
X93508354Y-97857089D01*
X93581812Y-97874500D01*
X93581817Y-97874500D01*
X93582994Y-97874779D01*
X93602571Y-97876780D01*
X93603790Y-97876744D01*
X93603793Y-97876745D01*
X93675051Y-97874671D01*
X93679161Y-97874552D01*
X93682767Y-97874500D01*
X103666000Y-97874500D01*
X103683970Y-97875809D01*
X103687723Y-97876358D01*
X103707906Y-97879315D01*
X103757547Y-97874972D01*
X103768355Y-97874500D01*
X103770343Y-97874500D01*
X103773941Y-97874500D01*
X103777514Y-97874082D01*
X103777520Y-97874082D01*
X103797611Y-97871733D01*
X103804910Y-97870880D01*
X103808448Y-97870518D01*
X103883612Y-97863943D01*
X103883617Y-97863941D01*
X103884832Y-97863835D01*
X103904027Y-97859580D01*
X103905179Y-97859160D01*
X103905184Y-97859160D01*
X103976074Y-97833357D01*
X103979434Y-97832190D01*
X104051036Y-97808464D01*
X104051041Y-97808460D01*
X104052202Y-97808076D01*
X104069902Y-97799507D01*
X104070919Y-97798837D01*
X104070924Y-97798836D01*
X104133967Y-97757371D01*
X104136979Y-97755453D01*
X104201154Y-97715870D01*
X104201154Y-97715869D01*
X104202193Y-97715229D01*
X104217444Y-97702805D01*
X104218281Y-97701917D01*
X104218285Y-97701915D01*
X104270071Y-97647023D01*
X104272515Y-97644507D01*
X106836204Y-95080819D01*
X106897528Y-95047334D01*
X106923886Y-95044500D01*
X116006000Y-95044500D01*
X116023970Y-95045809D01*
X116027723Y-95046358D01*
X116047906Y-95049315D01*
X116097547Y-95044972D01*
X116108355Y-95044500D01*
X116110343Y-95044500D01*
X116113941Y-95044500D01*
X116117514Y-95044082D01*
X116117520Y-95044082D01*
X116137611Y-95041733D01*
X116144910Y-95040880D01*
X116148448Y-95040518D01*
X116223612Y-95033943D01*
X116223617Y-95033941D01*
X116224832Y-95033835D01*
X116244027Y-95029580D01*
X116245179Y-95029160D01*
X116245184Y-95029160D01*
X116316074Y-95003357D01*
X116319434Y-95002190D01*
X116391036Y-94978464D01*
X116391041Y-94978460D01*
X116392202Y-94978076D01*
X116409902Y-94969507D01*
X116410919Y-94968837D01*
X116410924Y-94968836D01*
X116473967Y-94927371D01*
X116476959Y-94925465D01*
X116541154Y-94885870D01*
X116541154Y-94885869D01*
X116542193Y-94885229D01*
X116557444Y-94872805D01*
X116558281Y-94871917D01*
X116558285Y-94871915D01*
X116610071Y-94817023D01*
X116612515Y-94814507D01*
X116637590Y-94789432D01*
X116698911Y-94755949D01*
X116768603Y-94760933D01*
X116824536Y-94802805D01*
X116848953Y-94868269D01*
X116839830Y-94924567D01*
X116753127Y-95133886D01*
X116694317Y-95378850D01*
X116674551Y-95630000D01*
X116694317Y-95881149D01*
X116753126Y-96126110D01*
X116779210Y-96189082D01*
X116849534Y-96358859D01*
X116981164Y-96573659D01*
X117144776Y-96765224D01*
X117336341Y-96928836D01*
X117551141Y-97060466D01*
X117783889Y-97156873D01*
X118028852Y-97215683D01*
X118280000Y-97235449D01*
X118531148Y-97215683D01*
X118776111Y-97156873D01*
X119008859Y-97060466D01*
X119223659Y-96928836D01*
X119415224Y-96765224D01*
X119578836Y-96573659D01*
X119710466Y-96358859D01*
X119806873Y-96126111D01*
X119865683Y-95881148D01*
X119885449Y-95630000D01*
X119865683Y-95378852D01*
X119806873Y-95133889D01*
X119710466Y-94901141D01*
X119578836Y-94686341D01*
X119415224Y-94494776D01*
X119260687Y-94362789D01*
X119222495Y-94304283D01*
X119221997Y-94234415D01*
X119259350Y-94175369D01*
X119322697Y-94145891D01*
X119341220Y-94144500D01*
X126771010Y-94144500D01*
X126838049Y-94164185D01*
X126883804Y-94216989D01*
X126893748Y-94286147D01*
X126887194Y-94311825D01*
X126857521Y-94391380D01*
X126845909Y-94422516D01*
X126842798Y-94451457D01*
X126839500Y-94482127D01*
X126839500Y-94485448D01*
X126839500Y-94485449D01*
X126839500Y-96774560D01*
X126839500Y-96774578D01*
X126839501Y-96777872D01*
X126845909Y-96837483D01*
X126896204Y-96972331D01*
X126982454Y-97087546D01*
X127097669Y-97173796D01*
X127232517Y-97224091D01*
X127292127Y-97230500D01*
X129587872Y-97230499D01*
X129647483Y-97224091D01*
X129782331Y-97173796D01*
X129897546Y-97087546D01*
X129983796Y-96972331D01*
X130034091Y-96837483D01*
X130040500Y-96777873D01*
X130040500Y-95709999D01*
X156220976Y-95709999D01*
X156220978Y-95710000D01*
X157266314Y-95710000D01*
X157240507Y-95750156D01*
X157200000Y-95888111D01*
X157200000Y-96031889D01*
X157240507Y-96169844D01*
X157266314Y-96210000D01*
X156220977Y-96210000D01*
X156240916Y-96329491D01*
X156321631Y-96564606D01*
X156439946Y-96783233D01*
X156592631Y-96979403D01*
X156775522Y-97147766D01*
X156983634Y-97283733D01*
X157211278Y-97383586D01*
X157452262Y-97444612D01*
X157635412Y-97459788D01*
X157640527Y-97460000D01*
X158550000Y-97460000D01*
X158550000Y-96460000D01*
X159050000Y-96460000D01*
X159050000Y-97460000D01*
X159959473Y-97460000D01*
X159964587Y-97459788D01*
X160147737Y-97444612D01*
X160388721Y-97383586D01*
X160616365Y-97283733D01*
X160824477Y-97147766D01*
X161007368Y-96979403D01*
X161160053Y-96783233D01*
X161278368Y-96564606D01*
X161359083Y-96329491D01*
X161379023Y-96210000D01*
X160333686Y-96210000D01*
X160359493Y-96169844D01*
X160400000Y-96031889D01*
X160400000Y-95888111D01*
X160359493Y-95750156D01*
X160333686Y-95710000D01*
X161379022Y-95710000D01*
X161379023Y-95709999D01*
X161359083Y-95590508D01*
X161278368Y-95355393D01*
X161160053Y-95136766D01*
X161007368Y-94940596D01*
X160824477Y-94772233D01*
X160616365Y-94636266D01*
X160388721Y-94536413D01*
X160147737Y-94475387D01*
X159964587Y-94460211D01*
X159959473Y-94460000D01*
X159050000Y-94460000D01*
X159050000Y-95460000D01*
X158550000Y-95460000D01*
X158550000Y-94460000D01*
X157640527Y-94460000D01*
X157635412Y-94460211D01*
X157452262Y-94475387D01*
X157211278Y-94536413D01*
X156983634Y-94636266D01*
X156775522Y-94772233D01*
X156592631Y-94940596D01*
X156439946Y-95136766D01*
X156321631Y-95355393D01*
X156240916Y-95590508D01*
X156220976Y-95709999D01*
X130040500Y-95709999D01*
X130040499Y-94482128D01*
X130034091Y-94422517D01*
X129983796Y-94287669D01*
X129897546Y-94172454D01*
X129782331Y-94086204D01*
X129647483Y-94035909D01*
X129635903Y-94034664D01*
X129591166Y-94029854D01*
X129591165Y-94029853D01*
X129587873Y-94029500D01*
X129584551Y-94029500D01*
X128546885Y-94029500D01*
X128479846Y-94009815D01*
X128434091Y-93957011D01*
X128424147Y-93887853D01*
X128453172Y-93824297D01*
X128459204Y-93817819D01*
X128554956Y-93722067D01*
X162099500Y-93722067D01*
X162114892Y-93907821D01*
X162175937Y-94148881D01*
X162205812Y-94216989D01*
X162275825Y-94376604D01*
X162275827Y-94376607D01*
X162411836Y-94584785D01*
X162580256Y-94767738D01*
X162591922Y-94776818D01*
X162776485Y-94920470D01*
X162776487Y-94920471D01*
X162776491Y-94920474D01*
X162995190Y-95038828D01*
X163230386Y-95119571D01*
X163475665Y-95160500D01*
X163724335Y-95160500D01*
X163969614Y-95119571D01*
X164204810Y-95038828D01*
X164423509Y-94920474D01*
X164619744Y-94767738D01*
X164788164Y-94584785D01*
X164924173Y-94376607D01*
X165024063Y-94148881D01*
X165085108Y-93907821D01*
X165100500Y-93722067D01*
X165100500Y-91397933D01*
X165085108Y-91212179D01*
X165024063Y-90971119D01*
X164924173Y-90743393D01*
X164788164Y-90535215D01*
X164619744Y-90352262D01*
X164524055Y-90277784D01*
X164423514Y-90199529D01*
X164423510Y-90199526D01*
X164423509Y-90199526D01*
X164204810Y-90081172D01*
X164204806Y-90081170D01*
X164204805Y-90081170D01*
X163969615Y-90000429D01*
X163724335Y-89959500D01*
X163475665Y-89959500D01*
X163230384Y-90000429D01*
X162995194Y-90081170D01*
X162995190Y-90081171D01*
X162995190Y-90081172D01*
X162950820Y-90105184D01*
X162776485Y-90199529D01*
X162580259Y-90352259D01*
X162580256Y-90352261D01*
X162580256Y-90352262D01*
X162411836Y-90535215D01*
X162367118Y-90603661D01*
X162275825Y-90743395D01*
X162206110Y-90902331D01*
X162175937Y-90971119D01*
X162164180Y-91017546D01*
X162114892Y-91212177D01*
X162110552Y-91264554D01*
X162099500Y-91397933D01*
X162099500Y-93722067D01*
X128554956Y-93722067D01*
X129509137Y-92767886D01*
X130559954Y-91717068D01*
X130621275Y-91683585D01*
X130621493Y-91683537D01*
X130679803Y-91671144D01*
X130679804Y-91671143D01*
X130679806Y-91671143D01*
X130852730Y-91594151D01*
X131005870Y-91482889D01*
X131132533Y-91342216D01*
X131227179Y-91178284D01*
X131235040Y-91154090D01*
X131285674Y-90998256D01*
X131305460Y-90810000D01*
X131294380Y-90704578D01*
X155999500Y-90704578D01*
X155999501Y-90707872D01*
X155999853Y-90711152D01*
X155999854Y-90711159D01*
X156005909Y-90767483D01*
X156056204Y-90902331D01*
X156142454Y-91017546D01*
X156257669Y-91103796D01*
X156392517Y-91154091D01*
X156452127Y-91160500D01*
X161147872Y-91160499D01*
X161207483Y-91154091D01*
X161342331Y-91103796D01*
X161457546Y-91017546D01*
X161543796Y-90902331D01*
X161594091Y-90767483D01*
X161600500Y-90707873D01*
X161600499Y-88612128D01*
X161594091Y-88552517D01*
X161543796Y-88417669D01*
X161457546Y-88302454D01*
X161342331Y-88216204D01*
X161207483Y-88165909D01*
X161147873Y-88159500D01*
X161144550Y-88159500D01*
X156455439Y-88159500D01*
X156455420Y-88159500D01*
X156452128Y-88159501D01*
X156448848Y-88159853D01*
X156448840Y-88159854D01*
X156392515Y-88165909D01*
X156257669Y-88216204D01*
X156142454Y-88302454D01*
X156056204Y-88417668D01*
X156005910Y-88552515D01*
X156005909Y-88552517D01*
X155999500Y-88612127D01*
X155999500Y-88615448D01*
X155999500Y-88615449D01*
X155999500Y-90704560D01*
X155999500Y-90704578D01*
X131294380Y-90704578D01*
X131285674Y-90621744D01*
X131249737Y-90511143D01*
X131227179Y-90441715D01*
X131132533Y-90277783D01*
X131005870Y-90137110D01*
X130852730Y-90025848D01*
X130679802Y-89948855D01*
X130494648Y-89909500D01*
X130494646Y-89909500D01*
X130305354Y-89909500D01*
X130305352Y-89909500D01*
X130120197Y-89948855D01*
X129947269Y-90025848D01*
X129794129Y-90137110D01*
X129667466Y-90277783D01*
X129572821Y-90441714D01*
X129520201Y-90603661D01*
X129489951Y-90653023D01*
X127543795Y-92599181D01*
X127482472Y-92632666D01*
X127456114Y-92635500D01*
X122719106Y-92635500D01*
X122652067Y-92615815D01*
X122606312Y-92563011D01*
X122596368Y-92493853D01*
X122625393Y-92430297D01*
X122668671Y-92398220D01*
X122722732Y-92374150D01*
X122875870Y-92262889D01*
X123002533Y-92122216D01*
X123097179Y-91958284D01*
X123107718Y-91925848D01*
X123155674Y-91778256D01*
X123175460Y-91590000D01*
X123155674Y-91401744D01*
X123097179Y-91221716D01*
X123097179Y-91221715D01*
X123041113Y-91124606D01*
X123024500Y-91062606D01*
X123024500Y-88020000D01*
X133964356Y-88020000D01*
X133984891Y-88267816D01*
X133984891Y-88267819D01*
X133984892Y-88267821D01*
X134045937Y-88508881D01*
X134087207Y-88602966D01*
X134145825Y-88736604D01*
X134145827Y-88736607D01*
X134281836Y-88944785D01*
X134450256Y-89127738D01*
X134450259Y-89127740D01*
X134646485Y-89280470D01*
X134646487Y-89280471D01*
X134646491Y-89280474D01*
X134865190Y-89398828D01*
X135100386Y-89479571D01*
X135345665Y-89520500D01*
X135594335Y-89520500D01*
X135839614Y-89479571D01*
X136074810Y-89398828D01*
X136293509Y-89280474D01*
X136489744Y-89127738D01*
X136658164Y-88944785D01*
X136794173Y-88736607D01*
X136894063Y-88508881D01*
X136955108Y-88267821D01*
X136975643Y-88020000D01*
X138464858Y-88020000D01*
X138485386Y-88267732D01*
X138546413Y-88508721D01*
X138646268Y-88736370D01*
X138746563Y-88889882D01*
X138746564Y-88889882D01*
X139444070Y-88192376D01*
X139446884Y-88205915D01*
X139516442Y-88340156D01*
X139619638Y-88450652D01*
X139748819Y-88529209D01*
X139800002Y-88543549D01*
X139099942Y-89243609D01*
X139099942Y-89243610D01*
X139146766Y-89280055D01*
X139365393Y-89398368D01*
X139600506Y-89479083D01*
X139845707Y-89520000D01*
X140094293Y-89520000D01*
X140339493Y-89479083D01*
X140574606Y-89398368D01*
X140793233Y-89280053D01*
X140840056Y-89243609D01*
X140141568Y-88545121D01*
X140258458Y-88494349D01*
X140375739Y-88398934D01*
X140462928Y-88275415D01*
X140493354Y-88189802D01*
X141193434Y-88889882D01*
X141293730Y-88736369D01*
X141393586Y-88508721D01*
X141454613Y-88267732D01*
X141475141Y-88020000D01*
X141454613Y-87772267D01*
X141393586Y-87531278D01*
X141293730Y-87303630D01*
X141193434Y-87150116D01*
X140495929Y-87847622D01*
X140493116Y-87834085D01*
X140423558Y-87699844D01*
X140320362Y-87589348D01*
X140191181Y-87510791D01*
X140139997Y-87496450D01*
X140840057Y-86796390D01*
X140840056Y-86796388D01*
X140793235Y-86759947D01*
X140574606Y-86641631D01*
X140339493Y-86560916D01*
X140094293Y-86520000D01*
X139845707Y-86520000D01*
X139600506Y-86560916D01*
X139365393Y-86641631D01*
X139146764Y-86759946D01*
X139099942Y-86796388D01*
X139099942Y-86796390D01*
X139798431Y-87494878D01*
X139681542Y-87545651D01*
X139564261Y-87641066D01*
X139477072Y-87764585D01*
X139446645Y-87850197D01*
X138746564Y-87150116D01*
X138646266Y-87303634D01*
X138546413Y-87531278D01*
X138485386Y-87772267D01*
X138464858Y-88020000D01*
X136975643Y-88020000D01*
X136955108Y-87772179D01*
X136894063Y-87531119D01*
X136794173Y-87303393D01*
X136658164Y-87095215D01*
X136489744Y-86912262D01*
X136467612Y-86895036D01*
X136293514Y-86759529D01*
X136293510Y-86759526D01*
X136293509Y-86759526D01*
X136074810Y-86641172D01*
X136074806Y-86641170D01*
X136074805Y-86641170D01*
X135839615Y-86560429D01*
X135594335Y-86519500D01*
X135345665Y-86519500D01*
X135100384Y-86560429D01*
X134865194Y-86641170D01*
X134646485Y-86759529D01*
X134450259Y-86912259D01*
X134281837Y-87095214D01*
X134145825Y-87303395D01*
X134072746Y-87470000D01*
X134045937Y-87531119D01*
X134011667Y-87666447D01*
X133984891Y-87772183D01*
X133964356Y-88020000D01*
X123024500Y-88020000D01*
X123024500Y-85604518D01*
X144055000Y-85604518D01*
X144055354Y-85611132D01*
X144061400Y-85667371D01*
X144111647Y-85802089D01*
X144197811Y-85917188D01*
X144312910Y-86003352D01*
X144447628Y-86053599D01*
X144503867Y-86059645D01*
X144510482Y-86060000D01*
X145205000Y-86060000D01*
X145205000Y-85034189D01*
X145257547Y-85070016D01*
X145387173Y-85110000D01*
X145488724Y-85110000D01*
X145589138Y-85094865D01*
X145705000Y-85039068D01*
X145705000Y-86060000D01*
X146399518Y-86060000D01*
X146406132Y-86059645D01*
X146462371Y-86053599D01*
X146597089Y-86003352D01*
X146712188Y-85917188D01*
X146798352Y-85802088D01*
X146827075Y-85725080D01*
X146868946Y-85669146D01*
X146934410Y-85644729D01*
X147002683Y-85659581D01*
X147034487Y-85684431D01*
X147043212Y-85693910D01*
X147043215Y-85693912D01*
X147043216Y-85693913D01*
X147226374Y-85836470D01*
X147430497Y-85946936D01*
X147502437Y-85971633D01*
X147650015Y-86022297D01*
X147650017Y-86022297D01*
X147650019Y-86022298D01*
X147878951Y-86060500D01*
X147878952Y-86060500D01*
X148111048Y-86060500D01*
X148111049Y-86060500D01*
X148339981Y-86022298D01*
X148559503Y-85946936D01*
X148637774Y-85904578D01*
X153699500Y-85904578D01*
X153699501Y-85907872D01*
X153699853Y-85911152D01*
X153699854Y-85911159D01*
X153705909Y-85967484D01*
X153719287Y-86003352D01*
X153756204Y-86102331D01*
X153842454Y-86217546D01*
X153957669Y-86303796D01*
X154092517Y-86354091D01*
X154152127Y-86360500D01*
X156847872Y-86360499D01*
X156907483Y-86354091D01*
X157042331Y-86303796D01*
X157157546Y-86217546D01*
X157243796Y-86102331D01*
X157294091Y-85967483D01*
X157300500Y-85907873D01*
X157300499Y-84560000D01*
X166394450Y-84560000D01*
X166414616Y-84829100D01*
X166427955Y-84887541D01*
X166474666Y-85092195D01*
X166573257Y-85343398D01*
X166708185Y-85577102D01*
X166876439Y-85788085D01*
X167074259Y-85971635D01*
X167297226Y-86123651D01*
X167540359Y-86240738D01*
X167798228Y-86320280D01*
X168065071Y-86360500D01*
X168334929Y-86360500D01*
X168601772Y-86320280D01*
X168859641Y-86240738D01*
X169102775Y-86123651D01*
X169325741Y-85971635D01*
X169523561Y-85788085D01*
X169691815Y-85577102D01*
X169826743Y-85343398D01*
X169925334Y-85092195D01*
X169985383Y-84829103D01*
X170005549Y-84560000D01*
X169985383Y-84290897D01*
X169925334Y-84027805D01*
X169826743Y-83776602D01*
X169691815Y-83542898D01*
X169523561Y-83331915D01*
X169446055Y-83260000D01*
X169325743Y-83148366D01*
X169242651Y-83091715D01*
X169102775Y-82996349D01*
X168859641Y-82879262D01*
X168780098Y-82854726D01*
X168601771Y-82799719D01*
X168334929Y-82759500D01*
X168065071Y-82759500D01*
X167798228Y-82799719D01*
X167540359Y-82879262D01*
X167297228Y-82996347D01*
X167074257Y-83148366D01*
X166876439Y-83331915D01*
X166708184Y-83542899D01*
X166573257Y-83776601D01*
X166474666Y-84027804D01*
X166414616Y-84290899D01*
X166394450Y-84560000D01*
X157300499Y-84560000D01*
X157300499Y-83212128D01*
X157294091Y-83152517D01*
X157243796Y-83017669D01*
X157157546Y-82902454D01*
X157042331Y-82816204D01*
X156907483Y-82765909D01*
X156847873Y-82759500D01*
X156844550Y-82759500D01*
X154155439Y-82759500D01*
X154155420Y-82759500D01*
X154152128Y-82759501D01*
X154148848Y-82759853D01*
X154148840Y-82759854D01*
X154092515Y-82765909D01*
X153957669Y-82816204D01*
X153842454Y-82902454D01*
X153756204Y-83017668D01*
X153705909Y-83152516D01*
X153702326Y-83185846D01*
X153699500Y-83212127D01*
X153699500Y-83215448D01*
X153699500Y-83215449D01*
X153699500Y-85904560D01*
X153699500Y-85904578D01*
X148637774Y-85904578D01*
X148763626Y-85836470D01*
X148946784Y-85693913D01*
X149103979Y-85523153D01*
X149230924Y-85328849D01*
X149324157Y-85116300D01*
X149381134Y-84891305D01*
X149400300Y-84660000D01*
X149381134Y-84428695D01*
X149324157Y-84203700D01*
X149230924Y-83991151D01*
X149103979Y-83796847D01*
X148946784Y-83626087D01*
X148763626Y-83483530D01*
X148559503Y-83373064D01*
X148559499Y-83373062D01*
X148559498Y-83373062D01*
X148339984Y-83297702D01*
X148168282Y-83269050D01*
X148111049Y-83259500D01*
X147878951Y-83259500D01*
X147837602Y-83266400D01*
X147650015Y-83297702D01*
X147430501Y-83373062D01*
X147430497Y-83373063D01*
X147430497Y-83373064D01*
X147294415Y-83446708D01*
X147226372Y-83483531D01*
X147043214Y-83626088D01*
X147034485Y-83635571D01*
X146974597Y-83671560D01*
X146904759Y-83669458D01*
X146847144Y-83629933D01*
X146827075Y-83594919D01*
X146798352Y-83517911D01*
X146712188Y-83402811D01*
X146597089Y-83316647D01*
X146462371Y-83266400D01*
X146406132Y-83260354D01*
X146399518Y-83260000D01*
X145705000Y-83260000D01*
X145705000Y-84285810D01*
X145652453Y-84249984D01*
X145522827Y-84210000D01*
X145421276Y-84210000D01*
X145320862Y-84225135D01*
X145205000Y-84280931D01*
X145205000Y-83260000D01*
X144510482Y-83260000D01*
X144503867Y-83260354D01*
X144447628Y-83266400D01*
X144312910Y-83316647D01*
X144197811Y-83402811D01*
X144111647Y-83517910D01*
X144061400Y-83652628D01*
X144055354Y-83708867D01*
X144055000Y-83715481D01*
X144055000Y-84410000D01*
X145079722Y-84410000D01*
X145031375Y-84493740D01*
X145001190Y-84625992D01*
X145011327Y-84761265D01*
X145060887Y-84887541D01*
X145078797Y-84910000D01*
X144055000Y-84910000D01*
X144055000Y-85604518D01*
X123024500Y-85604518D01*
X123024500Y-81519999D01*
X133964356Y-81519999D01*
X133984891Y-81767816D01*
X133984891Y-81767819D01*
X133984892Y-81767821D01*
X134045937Y-82008881D01*
X134072952Y-82070468D01*
X134145825Y-82236604D01*
X134145827Y-82236607D01*
X134281836Y-82444785D01*
X134450256Y-82627738D01*
X134450259Y-82627740D01*
X134646485Y-82780470D01*
X134646487Y-82780471D01*
X134646491Y-82780474D01*
X134865190Y-82898828D01*
X135100386Y-82979571D01*
X135345665Y-83020500D01*
X135594335Y-83020500D01*
X135839614Y-82979571D01*
X136074810Y-82898828D01*
X136293509Y-82780474D01*
X136489744Y-82627738D01*
X136658164Y-82444785D01*
X136794173Y-82236607D01*
X136894063Y-82008881D01*
X136955108Y-81767821D01*
X136975643Y-81520000D01*
X136975643Y-81519999D01*
X138464858Y-81519999D01*
X138485386Y-81767732D01*
X138546413Y-82008721D01*
X138646268Y-82236370D01*
X138746563Y-82389882D01*
X138746564Y-82389882D01*
X139444070Y-81692376D01*
X139446884Y-81705915D01*
X139516442Y-81840156D01*
X139619638Y-81950652D01*
X139748819Y-82029209D01*
X139800002Y-82043549D01*
X139099942Y-82743609D01*
X139099942Y-82743610D01*
X139146766Y-82780055D01*
X139365393Y-82898368D01*
X139600506Y-82979083D01*
X139845707Y-83020000D01*
X140094293Y-83020000D01*
X140339493Y-82979083D01*
X140574606Y-82898368D01*
X140793233Y-82780053D01*
X140840056Y-82743609D01*
X140141568Y-82045121D01*
X140258458Y-81994349D01*
X140375739Y-81898934D01*
X140462928Y-81775415D01*
X140493354Y-81689802D01*
X141193434Y-82389882D01*
X141293730Y-82236369D01*
X141393586Y-82008721D01*
X141454613Y-81767732D01*
X141475141Y-81520000D01*
X141454613Y-81272267D01*
X141393586Y-81031278D01*
X141293730Y-80803630D01*
X141193434Y-80650116D01*
X140495929Y-81347622D01*
X140493116Y-81334085D01*
X140423558Y-81199844D01*
X140320362Y-81089348D01*
X140191181Y-81010791D01*
X140139997Y-80996450D01*
X140840057Y-80296390D01*
X140840056Y-80296388D01*
X140793235Y-80259947D01*
X140574606Y-80141631D01*
X140339493Y-80060916D01*
X140094293Y-80020000D01*
X139845707Y-80020000D01*
X139600506Y-80060916D01*
X139365393Y-80141631D01*
X139146764Y-80259946D01*
X139099942Y-80296388D01*
X139099942Y-80296390D01*
X139798431Y-80994878D01*
X139681542Y-81045651D01*
X139564261Y-81141066D01*
X139477072Y-81264585D01*
X139446645Y-81350197D01*
X138746564Y-80650116D01*
X138646266Y-80803634D01*
X138546413Y-81031278D01*
X138485386Y-81272267D01*
X138464858Y-81519999D01*
X136975643Y-81519999D01*
X136955108Y-81272179D01*
X136894063Y-81031119D01*
X136794173Y-80803393D01*
X136658164Y-80595215D01*
X136489744Y-80412262D01*
X136417487Y-80356022D01*
X136293514Y-80259529D01*
X136293510Y-80259526D01*
X136293509Y-80259526D01*
X136074810Y-80141172D01*
X136074806Y-80141170D01*
X136074805Y-80141170D01*
X135839615Y-80060429D01*
X135594335Y-80019500D01*
X135345665Y-80019500D01*
X135100384Y-80060429D01*
X134865194Y-80141170D01*
X134865190Y-80141171D01*
X134865190Y-80141172D01*
X134804629Y-80173946D01*
X134646485Y-80259529D01*
X134450259Y-80412259D01*
X134450256Y-80412261D01*
X134450256Y-80412262D01*
X134281836Y-80595215D01*
X134239825Y-80659518D01*
X134145825Y-80803395D01*
X134059025Y-81001281D01*
X134045937Y-81031119D01*
X134011667Y-81166447D01*
X133984891Y-81272183D01*
X133964356Y-81519999D01*
X123024500Y-81519999D01*
X123024500Y-80373992D01*
X123025809Y-80356022D01*
X123026715Y-80349837D01*
X123029314Y-80332093D01*
X123024970Y-80282452D01*
X123024499Y-80271633D01*
X123024500Y-80266059D01*
X123020881Y-80235104D01*
X123020515Y-80231517D01*
X123013837Y-80155175D01*
X123009580Y-80135972D01*
X123009160Y-80134819D01*
X123009160Y-80134816D01*
X122983347Y-80063896D01*
X122982199Y-80060593D01*
X122958464Y-79988964D01*
X122958462Y-79988961D01*
X122958078Y-79987801D01*
X122949504Y-79970091D01*
X122907376Y-79906038D01*
X122905461Y-79903033D01*
X122871806Y-79848469D01*
X122865229Y-79837806D01*
X122852802Y-79822551D01*
X122797061Y-79769963D01*
X122794473Y-79767449D01*
X122520819Y-79493795D01*
X122487334Y-79432472D01*
X122484500Y-79406114D01*
X122484500Y-79093992D01*
X122485809Y-79076022D01*
X122486017Y-79074599D01*
X122489314Y-79052093D01*
X122484972Y-79002459D01*
X122484500Y-78991653D01*
X122484500Y-78989669D01*
X122484500Y-78986059D01*
X122480881Y-78955104D01*
X122480515Y-78951517D01*
X122473837Y-78875175D01*
X122469580Y-78855972D01*
X122469160Y-78854819D01*
X122469160Y-78854816D01*
X122443347Y-78783896D01*
X122442199Y-78780593D01*
X122418464Y-78708964D01*
X122418462Y-78708961D01*
X122418078Y-78707801D01*
X122409504Y-78690091D01*
X122367376Y-78626038D01*
X122365461Y-78623033D01*
X122340656Y-78582818D01*
X122325229Y-78557806D01*
X122312802Y-78542551D01*
X122257061Y-78489963D01*
X122254473Y-78487449D01*
X118640049Y-74873025D01*
X118609799Y-74823662D01*
X118557179Y-74661715D01*
X118462533Y-74497783D01*
X118335870Y-74357110D01*
X118182730Y-74245848D01*
X118009802Y-74168855D01*
X117824648Y-74129500D01*
X117824646Y-74129500D01*
X117635354Y-74129500D01*
X117635352Y-74129500D01*
X117450197Y-74168855D01*
X117277269Y-74245848D01*
X117124129Y-74357110D01*
X116997466Y-74497783D01*
X116902820Y-74661715D01*
X116844326Y-74841742D01*
X116824540Y-75029999D01*
X116844326Y-75218257D01*
X116902820Y-75398284D01*
X116997466Y-75562216D01*
X117124129Y-75702889D01*
X117277269Y-75814151D01*
X117450193Y-75891143D01*
X117450196Y-75891143D01*
X117450197Y-75891144D01*
X117508146Y-75903461D01*
X117569627Y-75936652D01*
X117570042Y-75937066D01*
X120939181Y-79306206D01*
X120972665Y-79367527D01*
X120975499Y-79393885D01*
X120975498Y-79706004D01*
X120974190Y-79723969D01*
X120970685Y-79747906D01*
X120975028Y-79797547D01*
X120975500Y-79808354D01*
X120975500Y-79813941D01*
X120975916Y-79817502D01*
X120975917Y-79817517D01*
X120979116Y-79844885D01*
X120979482Y-79848469D01*
X120986162Y-79924819D01*
X120990423Y-79944039D01*
X121016621Y-80016020D01*
X121017804Y-80019424D01*
X121041916Y-80092187D01*
X121050496Y-80109908D01*
X121092613Y-80173946D01*
X121094550Y-80176986D01*
X121134130Y-80241154D01*
X121134131Y-80241155D01*
X121134772Y-80242194D01*
X121147202Y-80257453D01*
X121202937Y-80310035D01*
X121205525Y-80312549D01*
X121479181Y-80586205D01*
X121512666Y-80647528D01*
X121515500Y-80673886D01*
X121515500Y-91062606D01*
X121498887Y-91124606D01*
X121442820Y-91221715D01*
X121384326Y-91401742D01*
X121374544Y-91494816D01*
X121364540Y-91590000D01*
X121364976Y-91594151D01*
X121384326Y-91778257D01*
X121442820Y-91958284D01*
X121537466Y-92122216D01*
X121664129Y-92262889D01*
X121817267Y-92374150D01*
X121871329Y-92398220D01*
X121924567Y-92443471D01*
X121944888Y-92510320D01*
X121925843Y-92577543D01*
X121873477Y-92623799D01*
X121820894Y-92635500D01*
X117033993Y-92635500D01*
X117016023Y-92634191D01*
X117005611Y-92632666D01*
X116992093Y-92630686D01*
X116992092Y-92630686D01*
X116942459Y-92635028D01*
X116931653Y-92635500D01*
X116926059Y-92635500D01*
X116922497Y-92635916D01*
X116922484Y-92635917D01*
X116895091Y-92639119D01*
X116891505Y-92639485D01*
X116815177Y-92646162D01*
X116795962Y-92650422D01*
X116723926Y-92676640D01*
X116720524Y-92677822D01*
X116647814Y-92701917D01*
X116630088Y-92710498D01*
X116566067Y-92752604D01*
X116563029Y-92754539D01*
X116490387Y-92799347D01*
X116422995Y-92817789D01*
X116356331Y-92796868D01*
X116311560Y-92743227D01*
X116301967Y-92706774D01*
X116285674Y-92551744D01*
X116246213Y-92430297D01*
X116227179Y-92371715D01*
X116132533Y-92207783D01*
X116005870Y-92067110D01*
X115852730Y-91955848D01*
X115679802Y-91878855D01*
X115494648Y-91839500D01*
X115494646Y-91839500D01*
X115305354Y-91839500D01*
X115305352Y-91839500D01*
X115120197Y-91878855D01*
X115017053Y-91924779D01*
X114966617Y-91935500D01*
X108170764Y-91935500D01*
X108120328Y-91924779D01*
X107949802Y-91848855D01*
X107764648Y-91809500D01*
X107764646Y-91809500D01*
X107575354Y-91809500D01*
X107575352Y-91809500D01*
X107390197Y-91848855D01*
X107217269Y-91925848D01*
X107064129Y-92037110D01*
X106937466Y-92177783D01*
X106842820Y-92341715D01*
X106784326Y-92521742D01*
X106765154Y-92704159D01*
X106764540Y-92710000D01*
X106765226Y-92716524D01*
X106784326Y-92898257D01*
X106842820Y-93078284D01*
X106937466Y-93242216D01*
X107015182Y-93328528D01*
X107045412Y-93391519D01*
X107036787Y-93460855D01*
X106992045Y-93514520D01*
X106925393Y-93535478D01*
X106923032Y-93535500D01*
X106623993Y-93535500D01*
X106606023Y-93534191D01*
X106595639Y-93532670D01*
X106582093Y-93530686D01*
X106582092Y-93530686D01*
X106532459Y-93535028D01*
X106521653Y-93535500D01*
X106516059Y-93535500D01*
X106512497Y-93535916D01*
X106512484Y-93535917D01*
X106485091Y-93539119D01*
X106481505Y-93539485D01*
X106405177Y-93546162D01*
X106385962Y-93550422D01*
X106313926Y-93576640D01*
X106310524Y-93577822D01*
X106237814Y-93601917D01*
X106220088Y-93610498D01*
X106156067Y-93652604D01*
X106153030Y-93654539D01*
X106087816Y-93694765D01*
X106072543Y-93707206D01*
X106019944Y-93762956D01*
X106017433Y-93765541D01*
X103453795Y-96329181D01*
X103392472Y-96362666D01*
X103366114Y-96365500D01*
X94033886Y-96365500D01*
X93966847Y-96345815D01*
X93946205Y-96329181D01*
X92129804Y-94512780D01*
X92096319Y-94451457D01*
X92101302Y-94381769D01*
X92112812Y-94350911D01*
X92154684Y-94294981D01*
X92220149Y-94270566D01*
X92288422Y-94285419D01*
X92316673Y-94306569D01*
X92438599Y-94428495D01*
X92632170Y-94564035D01*
X92846337Y-94663903D01*
X93074592Y-94725063D01*
X93310000Y-94745659D01*
X93545408Y-94725063D01*
X93773663Y-94663903D01*
X93987830Y-94564035D01*
X94181401Y-94428495D01*
X94348495Y-94261401D01*
X94478426Y-94075839D01*
X94533002Y-94032216D01*
X94602500Y-94025022D01*
X94664855Y-94056545D01*
X94681571Y-94075837D01*
X94811505Y-94261401D01*
X94978599Y-94428495D01*
X95172170Y-94564035D01*
X95386337Y-94663903D01*
X95598059Y-94720633D01*
X95614592Y-94725063D01*
X95849999Y-94745659D01*
X95849999Y-94745658D01*
X95850000Y-94745659D01*
X96085408Y-94725063D01*
X96313663Y-94663903D01*
X96527830Y-94564035D01*
X96721401Y-94428495D01*
X96888495Y-94261401D01*
X97018732Y-94075403D01*
X97073307Y-94031780D01*
X97142805Y-94024586D01*
X97205160Y-94056109D01*
X97221880Y-94075404D01*
X97351893Y-94261081D01*
X97518918Y-94428106D01*
X97712423Y-94563600D01*
X97926509Y-94663430D01*
X98140000Y-94720634D01*
X98140000Y-93825501D01*
X98247685Y-93874680D01*
X98354237Y-93890000D01*
X98425763Y-93890000D01*
X98532315Y-93874680D01*
X98639999Y-93825501D01*
X98639999Y-94720633D01*
X98853490Y-94663430D01*
X99067576Y-94563600D01*
X99261081Y-94428106D01*
X99428106Y-94261081D01*
X99563600Y-94067576D01*
X99663430Y-93853492D01*
X99720636Y-93640000D01*
X98823686Y-93640000D01*
X98849493Y-93599844D01*
X98890000Y-93461889D01*
X98890000Y-93318111D01*
X98849493Y-93180156D01*
X98823686Y-93140000D01*
X99720636Y-93140000D01*
X99720635Y-93139999D01*
X99663430Y-92926507D01*
X99563599Y-92712421D01*
X99428109Y-92518921D01*
X99261081Y-92351893D01*
X99067576Y-92216399D01*
X98853492Y-92116569D01*
X98640000Y-92059364D01*
X98640000Y-92954498D01*
X98532315Y-92905320D01*
X98425763Y-92890000D01*
X98354237Y-92890000D01*
X98247685Y-92905320D01*
X98140000Y-92954498D01*
X98140000Y-92059364D01*
X98139999Y-92059364D01*
X97926507Y-92116569D01*
X97712421Y-92216400D01*
X97518921Y-92351890D01*
X97351893Y-92518918D01*
X97221880Y-92704596D01*
X97167303Y-92748220D01*
X97097804Y-92755413D01*
X97035450Y-92723891D01*
X97018730Y-92704595D01*
X96888495Y-92518599D01*
X96721401Y-92351505D01*
X96527830Y-92215965D01*
X96313663Y-92116097D01*
X96252502Y-92099709D01*
X96085407Y-92054936D01*
X95849999Y-92034340D01*
X95614592Y-92054936D01*
X95386336Y-92116097D01*
X95172170Y-92215965D01*
X94978598Y-92351505D01*
X94811508Y-92518595D01*
X94681574Y-92704160D01*
X94626997Y-92747785D01*
X94557498Y-92754977D01*
X94495144Y-92723455D01*
X94478429Y-92704164D01*
X94348495Y-92518599D01*
X94181401Y-92351505D01*
X94117374Y-92306672D01*
X94073751Y-92252096D01*
X94064500Y-92205099D01*
X94064500Y-91733999D01*
X94065809Y-91716028D01*
X94069315Y-91692094D01*
X94064972Y-91642452D01*
X94064500Y-91631645D01*
X94064500Y-91629657D01*
X94064500Y-91626059D01*
X94060879Y-91595082D01*
X94060515Y-91591508D01*
X94053837Y-91515173D01*
X94049579Y-91495967D01*
X94023360Y-91423932D01*
X94022175Y-91420522D01*
X93998080Y-91347804D01*
X93989504Y-91330093D01*
X93988837Y-91329079D01*
X93988836Y-91329076D01*
X93947352Y-91266003D01*
X93945481Y-91263065D01*
X93905871Y-91198847D01*
X93905870Y-91198846D01*
X93905230Y-91197808D01*
X93892800Y-91182549D01*
X93837061Y-91129963D01*
X93834473Y-91127449D01*
X92360819Y-89653795D01*
X92327334Y-89592472D01*
X92324500Y-89566114D01*
X92324500Y-88020000D01*
X93234356Y-88020000D01*
X93254891Y-88267816D01*
X93254891Y-88267819D01*
X93254892Y-88267821D01*
X93315937Y-88508881D01*
X93357207Y-88602966D01*
X93415825Y-88736604D01*
X93415827Y-88736607D01*
X93551836Y-88944785D01*
X93720256Y-89127738D01*
X93720259Y-89127740D01*
X93916485Y-89280470D01*
X93916487Y-89280471D01*
X93916491Y-89280474D01*
X94135190Y-89398828D01*
X94370386Y-89479571D01*
X94615665Y-89520500D01*
X94864335Y-89520500D01*
X95109614Y-89479571D01*
X95344810Y-89398828D01*
X95563509Y-89280474D01*
X95759744Y-89127738D01*
X95928164Y-88944785D01*
X96064173Y-88736607D01*
X96164063Y-88508881D01*
X96225108Y-88267821D01*
X96245643Y-88020000D01*
X97734858Y-88020000D01*
X97755386Y-88267732D01*
X97816413Y-88508721D01*
X97916268Y-88736370D01*
X98016563Y-88889882D01*
X98016564Y-88889882D01*
X98714070Y-88192376D01*
X98716884Y-88205915D01*
X98786442Y-88340156D01*
X98889638Y-88450652D01*
X99018819Y-88529209D01*
X99070002Y-88543549D01*
X98369942Y-89243609D01*
X98369942Y-89243610D01*
X98416766Y-89280055D01*
X98635393Y-89398368D01*
X98870506Y-89479083D01*
X99115707Y-89520000D01*
X99364293Y-89520000D01*
X99609493Y-89479083D01*
X99844606Y-89398368D01*
X100063233Y-89280053D01*
X100110056Y-89243609D01*
X99411568Y-88545121D01*
X99528458Y-88494349D01*
X99645739Y-88398934D01*
X99732928Y-88275415D01*
X99763354Y-88189802D01*
X100463434Y-88889882D01*
X100563730Y-88736369D01*
X100663586Y-88508721D01*
X100724613Y-88267732D01*
X100745141Y-88020000D01*
X100745141Y-88019999D01*
X113599356Y-88019999D01*
X113619891Y-88267816D01*
X113619891Y-88267819D01*
X113619892Y-88267821D01*
X113680937Y-88508881D01*
X113722207Y-88602966D01*
X113780825Y-88736604D01*
X113780827Y-88736607D01*
X113916836Y-88944785D01*
X114085256Y-89127738D01*
X114085259Y-89127740D01*
X114281485Y-89280470D01*
X114281487Y-89280471D01*
X114281491Y-89280474D01*
X114500190Y-89398828D01*
X114735386Y-89479571D01*
X114980665Y-89520500D01*
X115229335Y-89520500D01*
X115474614Y-89479571D01*
X115709810Y-89398828D01*
X115928509Y-89280474D01*
X116124744Y-89127738D01*
X116293164Y-88944785D01*
X116429173Y-88736607D01*
X116529063Y-88508881D01*
X116590108Y-88267821D01*
X116610643Y-88020000D01*
X118099858Y-88020000D01*
X118120386Y-88267732D01*
X118181413Y-88508721D01*
X118281268Y-88736370D01*
X118381563Y-88889882D01*
X118381564Y-88889882D01*
X119079070Y-88192376D01*
X119081884Y-88205915D01*
X119151442Y-88340156D01*
X119254638Y-88450652D01*
X119383819Y-88529209D01*
X119435002Y-88543549D01*
X118734942Y-89243609D01*
X118734942Y-89243610D01*
X118781766Y-89280055D01*
X119000393Y-89398368D01*
X119235506Y-89479083D01*
X119480707Y-89520000D01*
X119729293Y-89520000D01*
X119974493Y-89479083D01*
X120209606Y-89398368D01*
X120428233Y-89280053D01*
X120475056Y-89243609D01*
X119776568Y-88545121D01*
X119893458Y-88494349D01*
X120010739Y-88398934D01*
X120097928Y-88275415D01*
X120128354Y-88189802D01*
X120828434Y-88889882D01*
X120928730Y-88736369D01*
X121028586Y-88508721D01*
X121089613Y-88267732D01*
X121110141Y-88020000D01*
X121089613Y-87772267D01*
X121028586Y-87531278D01*
X120928730Y-87303630D01*
X120828434Y-87150116D01*
X120130929Y-87847622D01*
X120128116Y-87834085D01*
X120058558Y-87699844D01*
X119955362Y-87589348D01*
X119826181Y-87510791D01*
X119774996Y-87496449D01*
X120475056Y-86796389D01*
X120475056Y-86796387D01*
X120428235Y-86759947D01*
X120209606Y-86641631D01*
X119974493Y-86560916D01*
X119729293Y-86520000D01*
X119480707Y-86520000D01*
X119235506Y-86560916D01*
X119000393Y-86641631D01*
X118781764Y-86759946D01*
X118734942Y-86796388D01*
X118734942Y-86796390D01*
X119433430Y-87494879D01*
X119316542Y-87545651D01*
X119199261Y-87641066D01*
X119112072Y-87764585D01*
X119081645Y-87850197D01*
X118381564Y-87150116D01*
X118281266Y-87303634D01*
X118181413Y-87531278D01*
X118120386Y-87772267D01*
X118099858Y-88020000D01*
X116610643Y-88020000D01*
X116590108Y-87772179D01*
X116529063Y-87531119D01*
X116429173Y-87303393D01*
X116293164Y-87095215D01*
X116124744Y-86912262D01*
X116102612Y-86895036D01*
X115928514Y-86759529D01*
X115928510Y-86759526D01*
X115928509Y-86759526D01*
X115709810Y-86641172D01*
X115709806Y-86641170D01*
X115709805Y-86641170D01*
X115474615Y-86560429D01*
X115229335Y-86519500D01*
X114980665Y-86519500D01*
X114735384Y-86560429D01*
X114500194Y-86641170D01*
X114281485Y-86759529D01*
X114085259Y-86912259D01*
X113916837Y-87095214D01*
X113780825Y-87303395D01*
X113707746Y-87470000D01*
X113680937Y-87531119D01*
X113646667Y-87666447D01*
X113619891Y-87772183D01*
X113599356Y-88019999D01*
X100745141Y-88019999D01*
X100724613Y-87772267D01*
X100663586Y-87531278D01*
X100563730Y-87303630D01*
X100463434Y-87150116D01*
X99765929Y-87847622D01*
X99763116Y-87834085D01*
X99693558Y-87699844D01*
X99590362Y-87589348D01*
X99461181Y-87510791D01*
X99409997Y-87496450D01*
X100110057Y-86796390D01*
X100110056Y-86796388D01*
X100063235Y-86759947D01*
X99844606Y-86641631D01*
X99609493Y-86560916D01*
X99364293Y-86520000D01*
X99115707Y-86520000D01*
X98870506Y-86560916D01*
X98635393Y-86641631D01*
X98416764Y-86759946D01*
X98369942Y-86796388D01*
X98369942Y-86796390D01*
X99068431Y-87494878D01*
X98951542Y-87545651D01*
X98834261Y-87641066D01*
X98747072Y-87764585D01*
X98716645Y-87850197D01*
X98016564Y-87150116D01*
X97916266Y-87303634D01*
X97816413Y-87531278D01*
X97755386Y-87772267D01*
X97734858Y-88020000D01*
X96245643Y-88020000D01*
X96225108Y-87772179D01*
X96164063Y-87531119D01*
X96064173Y-87303393D01*
X95928164Y-87095215D01*
X95759744Y-86912262D01*
X95737612Y-86895036D01*
X95563514Y-86759529D01*
X95563510Y-86759526D01*
X95563509Y-86759526D01*
X95344810Y-86641172D01*
X95344806Y-86641170D01*
X95344805Y-86641170D01*
X95109615Y-86560429D01*
X94864335Y-86519500D01*
X94615665Y-86519500D01*
X94370384Y-86560429D01*
X94135194Y-86641170D01*
X93916485Y-86759529D01*
X93720259Y-86912259D01*
X93551837Y-87095214D01*
X93415825Y-87303395D01*
X93342746Y-87470000D01*
X93315937Y-87531119D01*
X93281667Y-87666447D01*
X93254891Y-87772183D01*
X93234356Y-88020000D01*
X92324500Y-88020000D01*
X92324500Y-81520000D01*
X93234356Y-81520000D01*
X93254891Y-81767816D01*
X93254891Y-81767819D01*
X93254892Y-81767821D01*
X93315937Y-82008881D01*
X93342952Y-82070468D01*
X93415825Y-82236604D01*
X93415827Y-82236607D01*
X93551836Y-82444785D01*
X93720256Y-82627738D01*
X93720259Y-82627740D01*
X93916485Y-82780470D01*
X93916487Y-82780471D01*
X93916491Y-82780474D01*
X94135190Y-82898828D01*
X94370386Y-82979571D01*
X94615665Y-83020500D01*
X94864335Y-83020500D01*
X95109614Y-82979571D01*
X95344810Y-82898828D01*
X95563509Y-82780474D01*
X95759744Y-82627738D01*
X95928164Y-82444785D01*
X96064173Y-82236607D01*
X96164063Y-82008881D01*
X96225108Y-81767821D01*
X96245643Y-81520000D01*
X97734858Y-81520000D01*
X97755386Y-81767732D01*
X97816413Y-82008721D01*
X97916268Y-82236370D01*
X98016563Y-82389882D01*
X98016564Y-82389882D01*
X98714070Y-81692376D01*
X98716884Y-81705915D01*
X98786442Y-81840156D01*
X98889638Y-81950652D01*
X99018819Y-82029209D01*
X99070002Y-82043549D01*
X98369942Y-82743609D01*
X98369942Y-82743610D01*
X98416766Y-82780055D01*
X98635393Y-82898368D01*
X98870506Y-82979083D01*
X99115707Y-83020000D01*
X99364293Y-83020000D01*
X99609493Y-82979083D01*
X99844606Y-82898368D01*
X100063233Y-82780053D01*
X100110056Y-82743609D01*
X99411568Y-82045121D01*
X99528458Y-81994349D01*
X99645739Y-81898934D01*
X99732928Y-81775415D01*
X99763354Y-81689802D01*
X100463434Y-82389882D01*
X100563730Y-82236369D01*
X100663586Y-82008721D01*
X100724613Y-81767732D01*
X100745141Y-81519999D01*
X100724613Y-81272267D01*
X100663586Y-81031278D01*
X100563730Y-80803630D01*
X100463434Y-80650116D01*
X99765929Y-81347622D01*
X99763116Y-81334085D01*
X99693558Y-81199844D01*
X99590362Y-81089348D01*
X99461181Y-81010791D01*
X99409997Y-80996450D01*
X100110057Y-80296390D01*
X100110056Y-80296388D01*
X100063235Y-80259947D01*
X99844606Y-80141631D01*
X99609493Y-80060916D01*
X99364293Y-80020000D01*
X99115707Y-80020000D01*
X98870506Y-80060916D01*
X98635393Y-80141631D01*
X98416764Y-80259946D01*
X98369942Y-80296388D01*
X98369942Y-80296390D01*
X99068431Y-80994878D01*
X98951542Y-81045651D01*
X98834261Y-81141066D01*
X98747072Y-81264585D01*
X98716645Y-81350197D01*
X98016564Y-80650116D01*
X97916266Y-80803634D01*
X97816413Y-81031278D01*
X97755386Y-81272267D01*
X97734858Y-81520000D01*
X96245643Y-81520000D01*
X96225108Y-81272179D01*
X96164063Y-81031119D01*
X96064173Y-80803393D01*
X95928164Y-80595215D01*
X95759744Y-80412262D01*
X95687487Y-80356022D01*
X95563514Y-80259529D01*
X95563510Y-80259526D01*
X95563509Y-80259526D01*
X95344810Y-80141172D01*
X95344806Y-80141170D01*
X95344805Y-80141170D01*
X95109615Y-80060429D01*
X94864335Y-80019500D01*
X94615665Y-80019500D01*
X94370384Y-80060429D01*
X94135194Y-80141170D01*
X94135190Y-80141171D01*
X94135190Y-80141172D01*
X94074629Y-80173946D01*
X93916485Y-80259529D01*
X93720259Y-80412259D01*
X93720256Y-80412261D01*
X93720256Y-80412262D01*
X93551836Y-80595215D01*
X93509825Y-80659518D01*
X93415825Y-80803395D01*
X93329025Y-81001281D01*
X93315937Y-81031119D01*
X93281667Y-81166447D01*
X93254891Y-81272183D01*
X93234356Y-81520000D01*
X92324500Y-81520000D01*
X92324500Y-78373999D01*
X92325809Y-78356028D01*
X92327414Y-78345069D01*
X92329315Y-78332094D01*
X92324972Y-78282452D01*
X92324500Y-78271645D01*
X92324500Y-78269657D01*
X92324500Y-78266059D01*
X92320879Y-78235082D01*
X92320515Y-78231509D01*
X92319641Y-78221516D01*
X92316499Y-78185605D01*
X92330266Y-78117106D01*
X92378881Y-78066923D01*
X92446910Y-78050990D01*
X92512753Y-78074365D01*
X92514254Y-78075714D01*
X92677267Y-78194150D01*
X92700352Y-78204428D01*
X92825887Y-78260320D01*
X92879125Y-78305571D01*
X92899446Y-78372420D01*
X92880401Y-78439643D01*
X92867602Y-78456572D01*
X92767466Y-78567783D01*
X92672820Y-78731715D01*
X92614326Y-78911742D01*
X92594540Y-79100000D01*
X92614326Y-79288257D01*
X92672820Y-79468284D01*
X92767466Y-79632216D01*
X92894129Y-79772889D01*
X93047269Y-79884151D01*
X93220197Y-79961144D01*
X93405352Y-80000500D01*
X93405354Y-80000500D01*
X93594648Y-80000500D01*
X93737710Y-79970091D01*
X93779803Y-79961144D01*
X93952730Y-79884151D01*
X94025896Y-79830993D01*
X94105870Y-79772889D01*
X94109797Y-79768528D01*
X94169283Y-79731879D01*
X94201947Y-79727500D01*
X94317034Y-79727500D01*
X94337601Y-79729770D01*
X94340475Y-79729679D01*
X94340477Y-79729680D01*
X94407918Y-79727561D01*
X94411813Y-79727500D01*
X94435574Y-79727500D01*
X94439476Y-79727500D01*
X94443482Y-79726993D01*
X94455113Y-79726077D01*
X94498943Y-79724701D01*
X94518280Y-79719082D01*
X94537321Y-79715138D01*
X94557293Y-79712616D01*
X94598055Y-79696476D01*
X94609092Y-79692698D01*
X94651191Y-79680468D01*
X94668510Y-79670224D01*
X94685994Y-79661659D01*
X94704703Y-79654253D01*
X94740168Y-79628485D01*
X94749915Y-79622081D01*
X94787656Y-79599763D01*
X94801892Y-79585526D01*
X94816679Y-79572896D01*
X94832967Y-79561063D01*
X94860904Y-79527290D01*
X94868756Y-79518661D01*
X97457418Y-76930000D01*
X101974540Y-76930000D01*
X101994326Y-77118257D01*
X102052820Y-77298284D01*
X102147466Y-77462216D01*
X102274129Y-77602889D01*
X102427269Y-77714151D01*
X102600197Y-77791144D01*
X102785352Y-77830500D01*
X102785354Y-77830500D01*
X102974648Y-77830500D01*
X103098083Y-77804262D01*
X103159803Y-77791144D01*
X103332730Y-77714151D01*
X103434822Y-77639977D01*
X103485870Y-77602889D01*
X103498801Y-77588528D01*
X103558287Y-77551879D01*
X103590951Y-77547500D01*
X103703015Y-77547500D01*
X103770054Y-77567185D01*
X103815809Y-77619989D01*
X103825753Y-77689147D01*
X103820947Y-77709812D01*
X103810034Y-77743399D01*
X103794326Y-77791742D01*
X103777011Y-77956489D01*
X103750426Y-78021103D01*
X103741371Y-78031208D01*
X103734954Y-78037625D01*
X103718806Y-78050563D01*
X103670646Y-78101847D01*
X103667941Y-78104639D01*
X103648377Y-78124204D01*
X103646003Y-78127264D01*
X103645984Y-78127286D01*
X103645879Y-78127423D01*
X103638317Y-78136274D01*
X103608306Y-78168233D01*
X103598606Y-78185877D01*
X103587928Y-78202133D01*
X103575592Y-78218036D01*
X103558185Y-78258262D01*
X103553047Y-78268750D01*
X103531927Y-78307166D01*
X103526919Y-78326670D01*
X103520619Y-78345069D01*
X103512625Y-78363542D01*
X103505769Y-78406831D01*
X103503401Y-78418267D01*
X103492500Y-78460727D01*
X103492500Y-78480858D01*
X103490973Y-78500256D01*
X103489505Y-78509528D01*
X103487825Y-78520133D01*
X103491950Y-78563767D01*
X103492500Y-78575437D01*
X103492500Y-84813533D01*
X103472815Y-84880572D01*
X103460650Y-84896505D01*
X103387466Y-84977783D01*
X103292820Y-85141715D01*
X103234326Y-85321742D01*
X103214540Y-85510000D01*
X103234326Y-85698257D01*
X103292820Y-85878284D01*
X103387466Y-86042216D01*
X103514129Y-86182889D01*
X103667269Y-86294151D01*
X103840197Y-86371144D01*
X104025352Y-86410500D01*
X104025354Y-86410500D01*
X104214648Y-86410500D01*
X104338084Y-86384262D01*
X104399803Y-86371144D01*
X104572730Y-86294151D01*
X104646247Y-86240738D01*
X104725870Y-86182889D01*
X104852533Y-86042216D01*
X104947179Y-85878284D01*
X104971936Y-85802089D01*
X105005674Y-85698256D01*
X105025460Y-85510000D01*
X105005674Y-85321744D01*
X104947179Y-85141716D01*
X104947179Y-85141715D01*
X104852533Y-84977783D01*
X104779350Y-84896505D01*
X104749120Y-84833513D01*
X104747500Y-84813533D01*
X104747500Y-78986683D01*
X104767185Y-78919644D01*
X104819989Y-78873889D01*
X104845720Y-78865393D01*
X104895481Y-78854816D01*
X104959803Y-78841144D01*
X105132730Y-78764151D01*
X105159570Y-78744651D01*
X105285870Y-78652889D01*
X105333810Y-78599647D01*
X105412533Y-78512216D01*
X105507179Y-78348284D01*
X105565674Y-78168256D01*
X105585460Y-77980000D01*
X105565674Y-77791744D01*
X105539053Y-77709816D01*
X105537059Y-77639977D01*
X105573139Y-77580144D01*
X105635840Y-77549316D01*
X105656985Y-77547500D01*
X106448719Y-77547500D01*
X106515758Y-77567185D01*
X106536400Y-77583819D01*
X109866181Y-80913600D01*
X109899666Y-80974923D01*
X109902500Y-81001281D01*
X109902499Y-84803533D01*
X109882814Y-84870572D01*
X109870650Y-84886504D01*
X109797466Y-84967783D01*
X109702820Y-85131715D01*
X109644326Y-85311742D01*
X109624540Y-85499999D01*
X109644326Y-85688257D01*
X109702820Y-85868284D01*
X109797466Y-86032216D01*
X109924129Y-86172889D01*
X110077269Y-86284151D01*
X110250197Y-86361144D01*
X110435352Y-86400500D01*
X110435354Y-86400500D01*
X110624648Y-86400500D01*
X110762756Y-86371144D01*
X110809803Y-86361144D01*
X110982730Y-86284151D01*
X111042483Y-86240738D01*
X111135870Y-86172889D01*
X111262533Y-86032216D01*
X111357179Y-85868284D01*
X111378687Y-85802089D01*
X111415674Y-85688256D01*
X111435460Y-85500000D01*
X111415674Y-85311744D01*
X111385332Y-85218363D01*
X111357179Y-85131715D01*
X111262533Y-84967783D01*
X111189350Y-84886505D01*
X111159120Y-84823513D01*
X111157500Y-84803533D01*
X111157500Y-81520000D01*
X113599356Y-81520000D01*
X113619891Y-81767816D01*
X113619891Y-81767819D01*
X113619892Y-81767821D01*
X113680937Y-82008881D01*
X113707952Y-82070468D01*
X113780825Y-82236604D01*
X113780827Y-82236607D01*
X113916836Y-82444785D01*
X114085256Y-82627738D01*
X114085259Y-82627740D01*
X114281485Y-82780470D01*
X114281487Y-82780471D01*
X114281491Y-82780474D01*
X114500190Y-82898828D01*
X114735386Y-82979571D01*
X114980665Y-83020500D01*
X115229335Y-83020500D01*
X115474614Y-82979571D01*
X115709810Y-82898828D01*
X115928509Y-82780474D01*
X116124744Y-82627738D01*
X116293164Y-82444785D01*
X116429173Y-82236607D01*
X116529063Y-82008881D01*
X116590108Y-81767821D01*
X116610643Y-81520000D01*
X118099858Y-81520000D01*
X118120386Y-81767732D01*
X118181413Y-82008721D01*
X118281268Y-82236370D01*
X118381563Y-82389882D01*
X118381564Y-82389882D01*
X119079070Y-81692376D01*
X119081884Y-81705915D01*
X119151442Y-81840156D01*
X119254638Y-81950652D01*
X119383819Y-82029209D01*
X119435002Y-82043549D01*
X118734942Y-82743609D01*
X118734942Y-82743610D01*
X118781766Y-82780055D01*
X119000393Y-82898368D01*
X119235506Y-82979083D01*
X119480707Y-83020000D01*
X119729293Y-83020000D01*
X119974493Y-82979083D01*
X120209606Y-82898368D01*
X120428233Y-82780053D01*
X120475056Y-82743609D01*
X119776568Y-82045121D01*
X119893458Y-81994349D01*
X120010739Y-81898934D01*
X120097928Y-81775415D01*
X120128354Y-81689802D01*
X120828434Y-82389882D01*
X120928730Y-82236369D01*
X121028586Y-82008721D01*
X121089613Y-81767732D01*
X121110141Y-81519999D01*
X121089613Y-81272267D01*
X121028586Y-81031278D01*
X120928730Y-80803630D01*
X120828434Y-80650116D01*
X120130929Y-81347622D01*
X120128116Y-81334085D01*
X120058558Y-81199844D01*
X119955362Y-81089348D01*
X119826181Y-81010791D01*
X119774997Y-80996450D01*
X120475057Y-80296390D01*
X120475056Y-80296388D01*
X120428235Y-80259947D01*
X120209606Y-80141631D01*
X119974493Y-80060916D01*
X119729293Y-80020000D01*
X119480707Y-80020000D01*
X119235506Y-80060916D01*
X119000393Y-80141631D01*
X118781764Y-80259946D01*
X118734942Y-80296388D01*
X118734942Y-80296390D01*
X119433431Y-80994878D01*
X119316542Y-81045651D01*
X119199261Y-81141066D01*
X119112072Y-81264585D01*
X119081645Y-81350197D01*
X118381564Y-80650116D01*
X118281266Y-80803634D01*
X118181413Y-81031278D01*
X118120386Y-81272267D01*
X118099858Y-81520000D01*
X116610643Y-81520000D01*
X116590108Y-81272179D01*
X116529063Y-81031119D01*
X116429173Y-80803393D01*
X116293164Y-80595215D01*
X116124744Y-80412262D01*
X116052487Y-80356022D01*
X115928514Y-80259529D01*
X115928510Y-80259526D01*
X115928509Y-80259526D01*
X115709810Y-80141172D01*
X115709806Y-80141170D01*
X115709805Y-80141170D01*
X115474615Y-80060429D01*
X115229335Y-80019500D01*
X114980665Y-80019500D01*
X114735384Y-80060429D01*
X114500194Y-80141170D01*
X114500190Y-80141171D01*
X114500190Y-80141172D01*
X114439629Y-80173946D01*
X114281485Y-80259529D01*
X114085259Y-80412259D01*
X114085256Y-80412261D01*
X114085256Y-80412262D01*
X113916836Y-80595215D01*
X113874825Y-80659518D01*
X113780825Y-80803395D01*
X113694025Y-81001281D01*
X113680937Y-81031119D01*
X113646667Y-81166447D01*
X113619891Y-81272183D01*
X113599356Y-81520000D01*
X111157500Y-81520000D01*
X111157500Y-80772965D01*
X111159770Y-80752401D01*
X111158826Y-80722371D01*
X111157561Y-80682095D01*
X111157500Y-80678200D01*
X111157500Y-80654414D01*
X111157500Y-80650524D01*
X111157012Y-80646660D01*
X111156994Y-80646516D01*
X111156076Y-80634860D01*
X111154700Y-80591057D01*
X111149082Y-80571723D01*
X111145139Y-80552682D01*
X111142616Y-80532707D01*
X111126480Y-80491953D01*
X111122697Y-80480904D01*
X111110468Y-80438809D01*
X111100222Y-80421485D01*
X111091661Y-80404009D01*
X111084253Y-80385297D01*
X111076039Y-80373992D01*
X111058485Y-80349832D01*
X111052074Y-80340070D01*
X111029763Y-80302344D01*
X111015530Y-80288111D01*
X111002893Y-80273316D01*
X110991063Y-80257033D01*
X110991060Y-80257031D01*
X110991060Y-80257030D01*
X110957287Y-80229090D01*
X110948647Y-80221228D01*
X107262375Y-76534956D01*
X107249439Y-76518809D01*
X107198152Y-76470647D01*
X107195355Y-76467936D01*
X107178558Y-76451139D01*
X107175796Y-76448377D01*
X107172714Y-76445987D01*
X107172710Y-76445983D01*
X107172604Y-76445901D01*
X107163716Y-76438310D01*
X107161160Y-76435910D01*
X107131767Y-76408307D01*
X107124304Y-76404204D01*
X107114120Y-76398605D01*
X107097858Y-76387922D01*
X107081963Y-76375592D01*
X107041736Y-76358184D01*
X107031248Y-76353046D01*
X106992831Y-76331926D01*
X106973337Y-76326921D01*
X106954933Y-76320620D01*
X106936458Y-76312625D01*
X106893171Y-76305769D01*
X106881736Y-76303401D01*
X106839274Y-76292500D01*
X106839272Y-76292500D01*
X106819142Y-76292500D01*
X106799743Y-76290973D01*
X106779868Y-76287825D01*
X106779867Y-76287825D01*
X106759261Y-76289772D01*
X106736230Y-76291950D01*
X106724561Y-76292500D01*
X103572943Y-76292500D01*
X103505904Y-76272815D01*
X103496424Y-76264758D01*
X103496415Y-76264772D01*
X103332730Y-76145848D01*
X103159802Y-76068855D01*
X102974648Y-76029500D01*
X102974646Y-76029500D01*
X102785354Y-76029500D01*
X102785352Y-76029500D01*
X102600197Y-76068855D01*
X102427269Y-76145848D01*
X102274129Y-76257110D01*
X102147466Y-76397783D01*
X102052820Y-76561715D01*
X101994326Y-76741742D01*
X101974540Y-76930000D01*
X97457418Y-76930000D01*
X99480599Y-74906819D01*
X99541923Y-74873334D01*
X99568281Y-74870500D01*
X99624648Y-74870500D01*
X99759943Y-74841742D01*
X99809803Y-74831144D01*
X99982730Y-74754151D01*
X100098220Y-74670243D01*
X100135870Y-74642889D01*
X100262533Y-74502216D01*
X100357179Y-74338284D01*
X100374378Y-74285352D01*
X100415674Y-74158256D01*
X100432989Y-73993505D01*
X100459572Y-73928894D01*
X100468619Y-73918798D01*
X100725044Y-73662373D01*
X100741190Y-73649439D01*
X100743159Y-73647341D01*
X100743162Y-73647340D01*
X100789384Y-73598117D01*
X100792001Y-73595416D01*
X100811623Y-73575796D01*
X100814086Y-73572619D01*
X100821684Y-73563720D01*
X100851693Y-73531767D01*
X100861392Y-73514122D01*
X100872071Y-73497864D01*
X100884408Y-73481962D01*
X100901815Y-73441734D01*
X100906951Y-73431251D01*
X100928072Y-73392834D01*
X100933077Y-73373340D01*
X100939383Y-73354923D01*
X100947373Y-73336460D01*
X100947372Y-73336460D01*
X100947374Y-73336458D01*
X100954231Y-73293155D01*
X100956596Y-73281736D01*
X100967500Y-73239272D01*
X100967500Y-73219141D01*
X100969027Y-73199742D01*
X100972175Y-73179867D01*
X100968050Y-73136230D01*
X100967500Y-73124561D01*
X100967500Y-66606466D01*
X100987185Y-66539427D01*
X100999350Y-66523493D01*
X101072533Y-66442216D01*
X101100232Y-66394241D01*
X101167179Y-66278284D01*
X101176472Y-66249684D01*
X101225674Y-66098256D01*
X101245460Y-65910000D01*
X101225674Y-65721744D01*
X101190637Y-65613911D01*
X101167179Y-65541715D01*
X101072533Y-65377783D01*
X100945870Y-65237110D01*
X100792730Y-65125848D01*
X100619802Y-65048855D01*
X100434648Y-65009500D01*
X100434646Y-65009500D01*
X100247281Y-65009500D01*
X100180242Y-64989815D01*
X100134487Y-64937011D01*
X100124543Y-64867853D01*
X100153568Y-64804297D01*
X100159600Y-64797819D01*
X101675782Y-63281637D01*
X106315044Y-58642373D01*
X106331190Y-58629439D01*
X106333159Y-58627341D01*
X106333162Y-58627340D01*
X106379384Y-58578117D01*
X106382001Y-58575416D01*
X106401624Y-58555795D01*
X106404094Y-58552609D01*
X106411681Y-58543725D01*
X106441693Y-58511767D01*
X106451389Y-58494127D01*
X106462075Y-58477861D01*
X106474407Y-58461963D01*
X106474406Y-58461963D01*
X106474408Y-58461962D01*
X106491819Y-58421725D01*
X106496951Y-58411250D01*
X106510614Y-58386399D01*
X106518072Y-58372834D01*
X106523077Y-58353340D01*
X106529383Y-58334923D01*
X106537373Y-58316460D01*
X106537372Y-58316460D01*
X106537374Y-58316458D01*
X106544231Y-58273155D01*
X106546596Y-58261736D01*
X106557500Y-58219272D01*
X106557500Y-58199141D01*
X106559027Y-58179742D01*
X106562175Y-58159867D01*
X106558050Y-58116230D01*
X106557500Y-58104561D01*
X106557500Y-48591280D01*
X106577185Y-48524241D01*
X106593810Y-48503608D01*
X106755048Y-48342369D01*
X106771190Y-48329438D01*
X106773157Y-48327342D01*
X106773162Y-48327340D01*
X106819384Y-48278117D01*
X106822001Y-48275416D01*
X106841623Y-48255796D01*
X106844086Y-48252619D01*
X106851684Y-48243720D01*
X106881693Y-48211767D01*
X106891392Y-48194122D01*
X106902071Y-48177864D01*
X106914408Y-48161962D01*
X106931815Y-48121734D01*
X106936951Y-48111251D01*
X106958072Y-48072834D01*
X106963077Y-48053340D01*
X106969383Y-48034923D01*
X106977373Y-48016460D01*
X106977372Y-48016460D01*
X106977374Y-48016458D01*
X106984231Y-47973155D01*
X106986596Y-47961736D01*
X106997500Y-47919272D01*
X106997500Y-47899141D01*
X106999027Y-47879742D01*
X107000978Y-47867423D01*
X107002175Y-47859867D01*
X106998050Y-47816230D01*
X106997500Y-47804561D01*
X106997500Y-46398826D01*
X107017185Y-46331787D01*
X107050375Y-46297252D01*
X107241401Y-46163495D01*
X107363329Y-46041566D01*
X107424648Y-46008084D01*
X107494340Y-46013068D01*
X107550274Y-46054939D01*
X107567189Y-46085916D01*
X107616204Y-46217331D01*
X107702454Y-46332546D01*
X107817669Y-46418796D01*
X107952517Y-46469091D01*
X108012127Y-46475500D01*
X108031496Y-46475499D01*
X108098534Y-46495180D01*
X108144292Y-46547982D01*
X108155500Y-46599499D01*
X108155500Y-48926000D01*
X108154191Y-48943970D01*
X108150685Y-48967906D01*
X108155028Y-49017546D01*
X108155500Y-49028353D01*
X108155500Y-49033941D01*
X108155916Y-49037502D01*
X108155917Y-49037517D01*
X108159116Y-49064885D01*
X108159482Y-49068469D01*
X108166162Y-49144819D01*
X108170423Y-49164039D01*
X108196621Y-49236020D01*
X108197804Y-49239424D01*
X108221916Y-49312187D01*
X108230496Y-49329908D01*
X108272613Y-49393946D01*
X108274550Y-49396986D01*
X108314130Y-49461154D01*
X108314131Y-49461155D01*
X108314772Y-49462194D01*
X108327202Y-49477453D01*
X108382937Y-49530035D01*
X108385525Y-49532549D01*
X109589181Y-50736205D01*
X109622666Y-50797528D01*
X109625500Y-50823886D01*
X109625500Y-57966000D01*
X109624191Y-57983970D01*
X109620685Y-58007906D01*
X109625028Y-58057546D01*
X109625500Y-58068353D01*
X109625500Y-58073941D01*
X109625916Y-58077502D01*
X109625917Y-58077517D01*
X109629116Y-58104885D01*
X109629482Y-58108469D01*
X109636162Y-58184819D01*
X109640423Y-58204039D01*
X109666621Y-58276020D01*
X109667804Y-58279424D01*
X109691916Y-58352187D01*
X109700496Y-58369908D01*
X109742613Y-58433946D01*
X109744550Y-58436986D01*
X109784130Y-58501154D01*
X109784131Y-58501155D01*
X109784772Y-58502194D01*
X109797202Y-58517453D01*
X109852937Y-58570035D01*
X109855525Y-58572549D01*
X116951234Y-65668258D01*
X116963015Y-65681890D01*
X116977460Y-65701293D01*
X117015634Y-65733325D01*
X117023609Y-65740633D01*
X117027559Y-65744583D01*
X117052028Y-65763931D01*
X117054779Y-65766172D01*
X117077735Y-65785434D01*
X117094238Y-65799282D01*
X117106681Y-65811298D01*
X117144129Y-65852889D01*
X117297269Y-65964151D01*
X117470197Y-66041144D01*
X117655352Y-66080500D01*
X117655354Y-66080500D01*
X117844648Y-66080500D01*
X117969790Y-66053900D01*
X118029803Y-66041144D01*
X118202730Y-65964151D01*
X118277266Y-65909998D01*
X118355870Y-65852889D01*
X118368316Y-65839067D01*
X118482533Y-65712216D01*
X118577179Y-65548284D01*
X118635674Y-65368256D01*
X118655460Y-65180000D01*
X118635674Y-64991744D01*
X118579151Y-64817784D01*
X118577179Y-64811715D01*
X118482533Y-64647783D01*
X118355870Y-64507110D01*
X118202730Y-64395848D01*
X118029802Y-64318855D01*
X117844648Y-64279500D01*
X117844646Y-64279500D01*
X117747886Y-64279500D01*
X117680847Y-64259815D01*
X117660205Y-64243181D01*
X111170819Y-57753795D01*
X111137334Y-57692472D01*
X111134500Y-57666114D01*
X111134500Y-50523999D01*
X111135809Y-50506028D01*
X111139315Y-50482094D01*
X111134972Y-50432452D01*
X111134500Y-50421645D01*
X111134500Y-50419657D01*
X111134500Y-50416059D01*
X111130879Y-50385082D01*
X111130515Y-50381508D01*
X111123837Y-50305174D01*
X111119580Y-50285972D01*
X111119160Y-50284819D01*
X111119160Y-50284816D01*
X111093347Y-50213896D01*
X111092199Y-50210593D01*
X111068464Y-50138964D01*
X111068462Y-50138961D01*
X111068078Y-50137801D01*
X111059504Y-50120091D01*
X111017376Y-50056038D01*
X111015461Y-50053033D01*
X110980969Y-49997112D01*
X110975229Y-49987806D01*
X110962802Y-49972551D01*
X110907061Y-49919963D01*
X110904473Y-49917449D01*
X109700818Y-48713794D01*
X109667333Y-48652471D01*
X109664499Y-48626113D01*
X109664500Y-46599499D01*
X109684185Y-46532459D01*
X109736989Y-46486705D01*
X109788500Y-46475499D01*
X109804561Y-46475499D01*
X109807872Y-46475499D01*
X109867483Y-46469091D01*
X110002331Y-46418796D01*
X110117546Y-46332546D01*
X110203796Y-46217331D01*
X110254091Y-46082483D01*
X110260500Y-46022873D01*
X110260499Y-44227128D01*
X110254091Y-44167517D01*
X110203796Y-44032669D01*
X110117546Y-43917454D01*
X110002331Y-43831204D01*
X109867483Y-43780909D01*
X109807873Y-43774500D01*
X109804550Y-43774500D01*
X108015439Y-43774500D01*
X108015420Y-43774500D01*
X108012128Y-43774501D01*
X108008848Y-43774853D01*
X108008840Y-43774854D01*
X107952515Y-43780909D01*
X107817669Y-43831204D01*
X107702454Y-43917454D01*
X107616204Y-44032669D01*
X107567189Y-44164083D01*
X107525317Y-44220016D01*
X107459852Y-44244433D01*
X107391580Y-44229581D01*
X107363326Y-44208430D01*
X107241404Y-44086508D01*
X107241401Y-44086505D01*
X107047830Y-43950965D01*
X106833663Y-43851097D01*
X106772501Y-43834709D01*
X106605407Y-43789936D01*
X106370000Y-43769340D01*
X106134592Y-43789936D01*
X105906336Y-43851097D01*
X105692170Y-43950965D01*
X105498598Y-44086505D01*
X105331505Y-44253598D01*
X105201575Y-44439159D01*
X105146998Y-44482784D01*
X105077500Y-44489978D01*
X105015145Y-44458455D01*
X104998425Y-44439159D01*
X104973624Y-44403740D01*
X104868495Y-44253599D01*
X104701401Y-44086505D01*
X104507830Y-43950965D01*
X104293663Y-43851097D01*
X104232501Y-43834709D01*
X104065407Y-43789936D01*
X103829999Y-43769340D01*
X103594592Y-43789936D01*
X103366336Y-43851097D01*
X103152170Y-43950965D01*
X102958598Y-44086505D01*
X102791508Y-44253595D01*
X102661269Y-44439596D01*
X102606692Y-44483220D01*
X102537193Y-44490413D01*
X102474839Y-44458891D01*
X102458119Y-44439595D01*
X102328109Y-44253921D01*
X102161081Y-44086893D01*
X101967576Y-43951399D01*
X101753492Y-43851569D01*
X101539999Y-43794364D01*
X101539999Y-44689498D01*
X101432315Y-44640320D01*
X101325763Y-44625000D01*
X101254237Y-44625000D01*
X101147685Y-44640320D01*
X101040000Y-44689498D01*
X101040000Y-43794364D01*
X101039999Y-43794364D01*
X100826507Y-43851569D01*
X100612421Y-43951400D01*
X100418921Y-44086890D01*
X100251890Y-44253921D01*
X100116400Y-44447421D01*
X100016569Y-44661507D01*
X99959364Y-44874999D01*
X99959364Y-44875000D01*
X100856314Y-44875000D01*
X100830507Y-44915156D01*
X100790000Y-45053111D01*
X100790000Y-45196889D01*
X100830507Y-45334844D01*
X100856314Y-45375000D01*
X99959364Y-45375000D01*
X100016569Y-45588492D01*
X100116399Y-45802576D01*
X100251893Y-45996081D01*
X100418918Y-46163106D01*
X100612423Y-46298600D01*
X100826509Y-46398430D01*
X101040000Y-46455634D01*
X101040000Y-45560501D01*
X101147685Y-45609680D01*
X101254237Y-45625000D01*
X101325763Y-45625000D01*
X101432315Y-45609680D01*
X101539999Y-45560501D01*
X101539999Y-46455633D01*
X101753491Y-46398430D01*
X101967576Y-46298600D01*
X102161081Y-46163106D01*
X102328109Y-45996078D01*
X102458119Y-45810405D01*
X102512696Y-45766780D01*
X102582194Y-45759586D01*
X102644549Y-45791109D01*
X102661265Y-45810400D01*
X102791505Y-45996401D01*
X102958599Y-46163495D01*
X103152170Y-46299035D01*
X103366337Y-46398903D01*
X103578059Y-46455633D01*
X103594592Y-46460063D01*
X103759306Y-46474474D01*
X103824375Y-46499926D01*
X103865354Y-46556517D01*
X103872499Y-46598002D01*
X103872499Y-58298718D01*
X103852814Y-58365757D01*
X103836180Y-58386399D01*
X100733469Y-61489110D01*
X100672146Y-61522595D01*
X100602454Y-61517611D01*
X100546521Y-61475739D01*
X100522104Y-61410275D01*
X100522466Y-61388479D01*
X100525460Y-61360000D01*
X100505674Y-61171744D01*
X100466225Y-61050334D01*
X100447179Y-60991715D01*
X100352533Y-60827783D01*
X100279350Y-60746505D01*
X100249120Y-60683513D01*
X100247500Y-60663533D01*
X100247500Y-55852965D01*
X100249770Y-55832401D01*
X100247561Y-55762095D01*
X100247500Y-55758200D01*
X100247500Y-55734414D01*
X100247500Y-55730524D01*
X100247012Y-55726660D01*
X100246994Y-55726516D01*
X100246076Y-55714860D01*
X100244700Y-55671057D01*
X100239082Y-55651723D01*
X100235139Y-55632682D01*
X100232616Y-55612707D01*
X100216480Y-55571953D01*
X100212697Y-55560904D01*
X100200468Y-55518809D01*
X100190222Y-55501485D01*
X100181661Y-55484009D01*
X100174253Y-55465297D01*
X100148489Y-55429837D01*
X100142074Y-55420070D01*
X100119763Y-55382344D01*
X100105530Y-55368111D01*
X100092893Y-55353316D01*
X100092805Y-55353195D01*
X100081063Y-55337033D01*
X100081060Y-55337031D01*
X100081060Y-55337030D01*
X100047287Y-55309090D01*
X100038647Y-55301228D01*
X95458628Y-50721209D01*
X95425143Y-50659886D01*
X95422990Y-50646506D01*
X95405674Y-50481744D01*
X95353932Y-50322500D01*
X95347179Y-50301715D01*
X95252533Y-50137783D01*
X95125870Y-49997110D01*
X94972730Y-49885848D01*
X94799802Y-49808855D01*
X94614648Y-49769500D01*
X94614646Y-49769500D01*
X94425354Y-49769500D01*
X94425352Y-49769500D01*
X94240197Y-49808855D01*
X94067269Y-49885848D01*
X93914129Y-49997110D01*
X93787466Y-50137783D01*
X93692820Y-50301715D01*
X93634326Y-50481742D01*
X93614540Y-50670000D01*
X93634326Y-50858257D01*
X93692820Y-51038284D01*
X93787466Y-51202216D01*
X93914129Y-51342889D01*
X93945986Y-51366034D01*
X93988652Y-51421364D01*
X93994631Y-51490977D01*
X93962026Y-51552772D01*
X93901187Y-51587129D01*
X93831431Y-51583141D01*
X93823856Y-51580154D01*
X93806458Y-51572625D01*
X93763171Y-51565769D01*
X93751736Y-51563401D01*
X93709274Y-51552500D01*
X93709272Y-51552500D01*
X93689142Y-51552500D01*
X93669743Y-51550973D01*
X93649868Y-51547825D01*
X93649867Y-51547825D01*
X93629261Y-51549772D01*
X93606230Y-51551950D01*
X93594561Y-51552500D01*
X84972966Y-51552500D01*
X84952403Y-51550229D01*
X84882095Y-51552439D01*
X84878200Y-51552500D01*
X84850524Y-51552500D01*
X84846652Y-51552988D01*
X84846635Y-51552990D01*
X84846493Y-51553008D01*
X84834874Y-51553922D01*
X84791057Y-51555299D01*
X84771724Y-51560916D01*
X84752678Y-51564860D01*
X84732705Y-51567383D01*
X84691953Y-51583518D01*
X84680905Y-51587301D01*
X84638807Y-51599532D01*
X84621480Y-51609779D01*
X84604012Y-51618336D01*
X84585295Y-51625746D01*
X84549825Y-51651516D01*
X84540067Y-51657927D01*
X84502344Y-51680237D01*
X84502342Y-51680238D01*
X84502343Y-51680238D01*
X84488107Y-51694473D01*
X84473319Y-51707103D01*
X84457033Y-51718936D01*
X84429091Y-51752711D01*
X84421230Y-51761349D01*
X83069400Y-53113181D01*
X83008077Y-53146666D01*
X82981719Y-53149500D01*
X82925352Y-53149500D01*
X82740197Y-53188855D01*
X82567269Y-53265848D01*
X82414129Y-53377110D01*
X82287466Y-53517783D01*
X82192820Y-53681715D01*
X82134326Y-53861742D01*
X82114540Y-54049999D01*
X82134326Y-54238257D01*
X82192820Y-54418284D01*
X82287466Y-54582216D01*
X82414129Y-54722889D01*
X82567269Y-54834151D01*
X82740197Y-54911144D01*
X82925352Y-54950500D01*
X82925354Y-54950500D01*
X83114648Y-54950500D01*
X83238084Y-54924262D01*
X83299803Y-54911144D01*
X83472730Y-54834151D01*
X83625871Y-54722888D01*
X83752533Y-54582216D01*
X83847179Y-54418284D01*
X83905674Y-54238256D01*
X83922989Y-54073505D01*
X83949572Y-54008894D01*
X83958619Y-53998798D01*
X85113599Y-52843819D01*
X85174923Y-52810334D01*
X85201281Y-52807500D01*
X87730270Y-52807500D01*
X87797309Y-52827185D01*
X87843064Y-52879989D01*
X87853008Y-52949147D01*
X87848202Y-52969816D01*
X87844326Y-52981743D01*
X87824540Y-53170000D01*
X87844326Y-53358257D01*
X87902819Y-53538281D01*
X87902821Y-53538284D01*
X87958887Y-53635393D01*
X87975500Y-53697392D01*
X87975500Y-54432611D01*
X87955815Y-54499650D01*
X87903011Y-54545405D01*
X87901936Y-54545890D01*
X87767269Y-54605848D01*
X87614129Y-54717110D01*
X87487466Y-54857783D01*
X87392820Y-55021715D01*
X87334326Y-55201742D01*
X87314540Y-55389999D01*
X87334326Y-55578257D01*
X87392820Y-55758284D01*
X87487466Y-55922216D01*
X87614129Y-56062889D01*
X87767269Y-56174151D01*
X87940197Y-56251144D01*
X88125352Y-56290500D01*
X88125354Y-56290500D01*
X88314648Y-56290500D01*
X88438238Y-56264230D01*
X88499803Y-56251144D01*
X88672730Y-56174151D01*
X88764655Y-56107364D01*
X88825870Y-56062889D01*
X88855557Y-56029919D01*
X88952533Y-55922216D01*
X89047179Y-55758284D01*
X89099799Y-55596334D01*
X89130047Y-55546975D01*
X89218264Y-55458758D01*
X89231883Y-55446988D01*
X89251294Y-55432539D01*
X89283324Y-55394366D01*
X89290638Y-55386386D01*
X89291234Y-55385789D01*
X89294583Y-55382441D01*
X89313927Y-55357974D01*
X89316161Y-55355232D01*
X89364667Y-55297427D01*
X89364668Y-55297424D01*
X89365449Y-55296494D01*
X89376018Y-55279904D01*
X89376534Y-55278797D01*
X89376539Y-55278791D01*
X89408445Y-55210366D01*
X89409958Y-55207241D01*
X89443824Y-55139811D01*
X89443824Y-55139809D01*
X89444374Y-55138715D01*
X89450830Y-55120142D01*
X89451077Y-55118943D01*
X89451079Y-55118940D01*
X89466345Y-55045001D01*
X89467101Y-55041596D01*
X89484500Y-54968188D01*
X89484500Y-54968185D01*
X89484780Y-54967004D01*
X89486781Y-54947425D01*
X89484552Y-54870804D01*
X89484500Y-54867198D01*
X89484500Y-53697392D01*
X89501112Y-53635393D01*
X89557179Y-53538284D01*
X89615674Y-53358256D01*
X89635460Y-53170000D01*
X89615674Y-52981744D01*
X89611797Y-52969814D01*
X89609804Y-52899975D01*
X89645886Y-52840143D01*
X89708587Y-52809316D01*
X89729730Y-52807500D01*
X93318719Y-52807500D01*
X93385758Y-52827185D01*
X93406400Y-52843819D01*
X97876181Y-57313600D01*
X97909666Y-57374923D01*
X97912500Y-57401281D01*
X97912500Y-58723533D01*
X97892815Y-58790572D01*
X97880650Y-58806505D01*
X97807466Y-58887783D01*
X97712820Y-59051715D01*
X97654326Y-59231742D01*
X97634540Y-59420000D01*
X97654326Y-59608257D01*
X97712820Y-59788284D01*
X97807466Y-59952216D01*
X97934129Y-60092889D01*
X98087269Y-60204151D01*
X98260197Y-60281144D01*
X98445352Y-60320500D01*
X98445354Y-60320500D01*
X98634648Y-60320500D01*
X98832551Y-60278435D01*
X98832869Y-60279933D01*
X98887305Y-60272631D01*
X98950584Y-60302255D01*
X98987802Y-60361387D01*
X98992500Y-60395197D01*
X98992500Y-60663533D01*
X98972815Y-60730572D01*
X98960650Y-60746505D01*
X98887466Y-60827783D01*
X98792820Y-60991715D01*
X98734326Y-61171742D01*
X98714540Y-61360000D01*
X98734326Y-61548257D01*
X98792820Y-61728284D01*
X98887466Y-61892216D01*
X99014129Y-62032889D01*
X99167269Y-62144151D01*
X99340197Y-62221144D01*
X99525352Y-62260500D01*
X99662718Y-62260500D01*
X99729757Y-62280185D01*
X99775512Y-62332989D01*
X99785456Y-62402147D01*
X99756431Y-62465703D01*
X99750399Y-62472181D01*
X99176400Y-63046181D01*
X99115077Y-63079666D01*
X99088719Y-63082500D01*
X86182966Y-63082500D01*
X86155914Y-63079513D01*
X86144234Y-63076902D01*
X86145035Y-63073317D01*
X86103004Y-63062392D01*
X86055620Y-63011045D01*
X86043518Y-62942231D01*
X86070541Y-62877799D01*
X86079056Y-62868361D01*
X89983600Y-58963819D01*
X90044924Y-58930334D01*
X90071282Y-58927500D01*
X93398053Y-58927500D01*
X93465092Y-58947185D01*
X93490203Y-58968528D01*
X93494129Y-58972889D01*
X93647269Y-59084151D01*
X93820197Y-59161144D01*
X94005352Y-59200500D01*
X94005354Y-59200500D01*
X94194648Y-59200500D01*
X94318084Y-59174262D01*
X94379803Y-59161144D01*
X94552730Y-59084151D01*
X94705871Y-58972888D01*
X94832533Y-58832216D01*
X94927179Y-58668284D01*
X94985674Y-58488256D01*
X95005460Y-58300000D01*
X94985674Y-58111744D01*
X94946077Y-57989877D01*
X94927179Y-57931715D01*
X94832533Y-57767783D01*
X94705870Y-57627110D01*
X94552730Y-57515848D01*
X94379802Y-57438855D01*
X94194648Y-57399500D01*
X94194646Y-57399500D01*
X94005354Y-57399500D01*
X94005352Y-57399500D01*
X93820197Y-57438855D01*
X93647269Y-57515848D01*
X93494129Y-57627110D01*
X93490203Y-57631472D01*
X93430717Y-57668121D01*
X93398053Y-57672500D01*
X90064280Y-57672500D01*
X89997241Y-57652815D01*
X89951486Y-57600011D01*
X89941542Y-57530853D01*
X89970567Y-57467297D01*
X89976599Y-57460819D01*
X90633600Y-56803819D01*
X90694923Y-56770334D01*
X90721281Y-56767500D01*
X93368053Y-56767500D01*
X93435092Y-56787185D01*
X93460203Y-56808528D01*
X93464129Y-56812889D01*
X93617269Y-56924151D01*
X93790197Y-57001144D01*
X93975352Y-57040500D01*
X93975354Y-57040500D01*
X94164648Y-57040500D01*
X94288083Y-57014262D01*
X94349803Y-57001144D01*
X94522730Y-56924151D01*
X94522729Y-56924150D01*
X94675870Y-56812889D01*
X94696480Y-56790000D01*
X94802533Y-56672216D01*
X94897179Y-56508284D01*
X94955674Y-56328256D01*
X94975460Y-56140000D01*
X94955674Y-55951744D01*
X94897179Y-55771716D01*
X94897179Y-55771715D01*
X94802533Y-55607783D01*
X94675870Y-55467110D01*
X94522730Y-55355848D01*
X94349802Y-55278855D01*
X94164648Y-55239500D01*
X94164646Y-55239500D01*
X93975354Y-55239500D01*
X93975352Y-55239500D01*
X93790197Y-55278855D01*
X93617269Y-55355848D01*
X93464129Y-55467110D01*
X93460203Y-55471472D01*
X93400717Y-55508121D01*
X93368053Y-55512500D01*
X90492966Y-55512500D01*
X90472398Y-55510229D01*
X90402082Y-55512439D01*
X90398188Y-55512500D01*
X90370524Y-55512500D01*
X90366671Y-55512986D01*
X90366662Y-55512987D01*
X90366508Y-55513007D01*
X90354884Y-55513921D01*
X90311057Y-55515298D01*
X90291720Y-55520916D01*
X90272680Y-55524859D01*
X90252709Y-55527383D01*
X90211951Y-55543519D01*
X90200905Y-55547301D01*
X90158806Y-55559532D01*
X90141480Y-55569779D01*
X90124012Y-55578336D01*
X90105295Y-55585746D01*
X90069825Y-55611516D01*
X90060067Y-55617927D01*
X90022344Y-55640237D01*
X90022342Y-55640238D01*
X90022343Y-55640238D01*
X90008107Y-55654473D01*
X89993319Y-55667103D01*
X89977033Y-55678936D01*
X89949091Y-55712711D01*
X89941230Y-55721349D01*
X80014954Y-65647625D01*
X79998806Y-65660563D01*
X79950646Y-65711847D01*
X79947941Y-65714639D01*
X79928377Y-65734204D01*
X79926003Y-65737264D01*
X79925984Y-65737286D01*
X79925879Y-65737423D01*
X79918317Y-65746274D01*
X79888306Y-65778233D01*
X79878606Y-65795877D01*
X79867928Y-65812133D01*
X79855592Y-65828036D01*
X79838185Y-65868262D01*
X79833047Y-65878750D01*
X79811927Y-65917166D01*
X79806919Y-65936670D01*
X79800619Y-65955069D01*
X79792625Y-65973542D01*
X79785769Y-66016831D01*
X79783401Y-66028267D01*
X79772500Y-66070727D01*
X79772500Y-66090858D01*
X79770973Y-66110256D01*
X79769741Y-66118038D01*
X79767825Y-66130133D01*
X79771212Y-66165957D01*
X79771950Y-66173767D01*
X79772500Y-66185437D01*
X79772500Y-70903533D01*
X79752815Y-70970572D01*
X79740650Y-70986505D01*
X79667466Y-71067783D01*
X79572820Y-71231715D01*
X79514326Y-71411742D01*
X79502327Y-71525909D01*
X79494540Y-71600000D01*
X77477500Y-71600000D01*
X77477500Y-63531280D01*
X77497185Y-63464241D01*
X77513814Y-63443604D01*
X79873600Y-61083819D01*
X79934923Y-61050334D01*
X79961281Y-61047500D01*
X82378053Y-61047500D01*
X82445092Y-61067185D01*
X82470203Y-61088528D01*
X82474129Y-61092889D01*
X82627269Y-61204151D01*
X82800197Y-61281144D01*
X82985352Y-61320500D01*
X82985354Y-61320500D01*
X83174648Y-61320500D01*
X83298084Y-61294262D01*
X83359803Y-61281144D01*
X83532730Y-61204151D01*
X83614642Y-61144639D01*
X83685870Y-61092889D01*
X83812533Y-60952216D01*
X83907179Y-60788284D01*
X83956653Y-60636019D01*
X83965674Y-60608256D01*
X83985460Y-60420000D01*
X83965674Y-60231744D01*
X83935332Y-60138363D01*
X83907179Y-60051715D01*
X83812533Y-59887783D01*
X83685870Y-59747110D01*
X83532730Y-59635848D01*
X83359802Y-59558855D01*
X83174648Y-59519500D01*
X83174646Y-59519500D01*
X82985354Y-59519500D01*
X82985352Y-59519500D01*
X82800197Y-59558855D01*
X82627269Y-59635848D01*
X82474129Y-59747110D01*
X82470203Y-59751472D01*
X82410717Y-59788121D01*
X82378053Y-59792500D01*
X79732966Y-59792500D01*
X79712398Y-59790229D01*
X79642081Y-59792439D01*
X79638187Y-59792500D01*
X79610524Y-59792500D01*
X79606671Y-59792986D01*
X79606662Y-59792987D01*
X79606508Y-59793007D01*
X79594884Y-59793921D01*
X79551055Y-59795298D01*
X79531717Y-59800917D01*
X79512667Y-59804862D01*
X79492707Y-59807383D01*
X79451951Y-59823519D01*
X79440905Y-59827301D01*
X79398806Y-59839532D01*
X79381480Y-59849779D01*
X79364012Y-59858336D01*
X79345295Y-59865746D01*
X79309825Y-59891516D01*
X79300067Y-59897927D01*
X79262344Y-59920237D01*
X79262342Y-59920238D01*
X79262343Y-59920238D01*
X79248107Y-59934473D01*
X79233319Y-59947103D01*
X79217033Y-59958936D01*
X79189091Y-59992711D01*
X79181230Y-60001349D01*
X76464954Y-62717625D01*
X76448806Y-62730563D01*
X76400646Y-62781847D01*
X76397941Y-62784639D01*
X76378377Y-62804204D01*
X76376003Y-62807264D01*
X76375984Y-62807286D01*
X76375879Y-62807423D01*
X76368317Y-62816274D01*
X76338306Y-62848233D01*
X76328606Y-62865877D01*
X76317928Y-62882133D01*
X76305592Y-62898036D01*
X76288185Y-62938262D01*
X76283047Y-62948750D01*
X76261927Y-62987166D01*
X76256919Y-63006670D01*
X76250619Y-63025069D01*
X76242625Y-63043542D01*
X76235769Y-63086831D01*
X76233401Y-63098267D01*
X76222500Y-63140727D01*
X76222500Y-63160858D01*
X76220973Y-63180256D01*
X76215374Y-63215606D01*
X76211170Y-63214940D01*
X76203286Y-63255607D01*
X76155016Y-63306121D01*
X76087097Y-63322519D01*
X76021096Y-63299595D01*
X76000982Y-63281637D01*
X75969349Y-63246504D01*
X75939120Y-63183512D01*
X75937500Y-63163533D01*
X75937500Y-61891280D01*
X75957185Y-61824241D01*
X75973819Y-61803599D01*
X76770600Y-61006819D01*
X76831923Y-60973334D01*
X76858281Y-60970500D01*
X76914648Y-60970500D01*
X77038083Y-60944262D01*
X77099803Y-60931144D01*
X77272730Y-60854151D01*
X77363389Y-60788284D01*
X77425870Y-60742889D01*
X77552533Y-60602216D01*
X77647179Y-60438284D01*
X77661179Y-60395197D01*
X77705674Y-60258256D01*
X77725460Y-60070000D01*
X77705674Y-59881744D01*
X77661929Y-59747112D01*
X77647179Y-59701715D01*
X77552533Y-59537783D01*
X77425870Y-59397110D01*
X77272730Y-59285848D01*
X77099802Y-59208855D01*
X76914648Y-59169500D01*
X76914646Y-59169500D01*
X76725354Y-59169500D01*
X76725352Y-59169500D01*
X76540197Y-59208855D01*
X76367269Y-59285848D01*
X76214129Y-59397110D01*
X76087466Y-59537783D01*
X75992820Y-59701715D01*
X75934326Y-59881742D01*
X75917011Y-60046489D01*
X75890426Y-60111103D01*
X75881371Y-60121208D01*
X74924954Y-61077625D01*
X74908806Y-61090563D01*
X74860646Y-61141847D01*
X74857941Y-61144639D01*
X74838377Y-61164204D01*
X74836003Y-61167264D01*
X74835984Y-61167286D01*
X74835879Y-61167423D01*
X74828317Y-61176274D01*
X74798306Y-61208233D01*
X74788606Y-61225877D01*
X74777928Y-61242133D01*
X74765592Y-61258036D01*
X74748185Y-61298262D01*
X74743047Y-61308750D01*
X74721927Y-61347166D01*
X74716919Y-61366670D01*
X74710619Y-61385069D01*
X74702625Y-61403542D01*
X74695769Y-61446831D01*
X74693401Y-61458267D01*
X74682500Y-61500727D01*
X74682500Y-61520858D01*
X74680973Y-61540256D01*
X74677825Y-61560131D01*
X74681950Y-61603767D01*
X74682500Y-61615437D01*
X74682500Y-63163533D01*
X74662815Y-63230572D01*
X74650650Y-63246505D01*
X74577466Y-63327783D01*
X74482820Y-63491715D01*
X74424326Y-63671742D01*
X74404540Y-63860000D01*
X71181442Y-63860000D01*
X71170017Y-43660000D01*
X71584671Y-43660000D01*
X71584937Y-43664058D01*
X71601545Y-43917454D01*
X71603966Y-43954380D01*
X71604757Y-43958361D01*
X71604758Y-43958362D01*
X71660726Y-44239738D01*
X71660728Y-44239745D01*
X71661519Y-44243722D01*
X71662819Y-44247553D01*
X71662823Y-44247566D01*
X71737901Y-44468735D01*
X71756348Y-44523077D01*
X71758141Y-44526713D01*
X71758144Y-44526720D01*
X71885032Y-44784025D01*
X71885038Y-44784036D01*
X71886828Y-44787665D01*
X71889079Y-44791034D01*
X71889082Y-44791039D01*
X72042069Y-45020000D01*
X72050727Y-45032957D01*
X72245242Y-45254758D01*
X72467043Y-45449273D01*
X72594649Y-45534536D01*
X72692711Y-45600060D01*
X72712335Y-45613172D01*
X72715968Y-45614963D01*
X72715974Y-45614967D01*
X72973279Y-45741855D01*
X72976923Y-45743652D01*
X73176992Y-45811566D01*
X73252433Y-45837176D01*
X73252435Y-45837176D01*
X73256278Y-45838481D01*
X73545620Y-45896034D01*
X73840000Y-45915329D01*
X74134380Y-45896034D01*
X74423722Y-45838481D01*
X74703077Y-45743652D01*
X74967665Y-45613172D01*
X75212957Y-45449273D01*
X75434758Y-45254758D01*
X75629273Y-45032957D01*
X75793172Y-44787665D01*
X75923652Y-44523077D01*
X76018481Y-44243722D01*
X76076034Y-43954380D01*
X76095329Y-43660000D01*
X76076034Y-43365620D01*
X76018481Y-43076278D01*
X75923652Y-42796923D01*
X75793172Y-42532336D01*
X75751929Y-42470612D01*
X75631532Y-42290424D01*
X75629273Y-42287043D01*
X75434758Y-42065242D01*
X75212957Y-41870727D01*
X75208828Y-41867968D01*
X74971039Y-41709082D01*
X74971034Y-41709079D01*
X74967665Y-41706828D01*
X74964036Y-41705038D01*
X74964025Y-41705032D01*
X74706720Y-41578144D01*
X74706713Y-41578141D01*
X74703077Y-41576348D01*
X74699230Y-41575042D01*
X74427566Y-41482823D01*
X74427553Y-41482819D01*
X74423722Y-41481519D01*
X74419745Y-41480728D01*
X74419738Y-41480726D01*
X74138362Y-41424758D01*
X74138361Y-41424757D01*
X74134380Y-41423966D01*
X74130330Y-41423700D01*
X74130326Y-41423700D01*
X73844058Y-41404937D01*
X73840000Y-41404671D01*
X73835942Y-41404937D01*
X73549673Y-41423700D01*
X73549667Y-41423700D01*
X73545620Y-41423966D01*
X73541640Y-41424757D01*
X73541637Y-41424758D01*
X73260261Y-41480726D01*
X73260250Y-41480728D01*
X73256278Y-41481519D01*
X73252449Y-41482818D01*
X73252433Y-41482823D01*
X72980769Y-41575042D01*
X72980762Y-41575044D01*
X72976923Y-41576348D01*
X72973286Y-41578141D01*
X72973280Y-41578144D01*
X72715976Y-41705032D01*
X72715964Y-41705038D01*
X72712336Y-41706828D01*
X72708973Y-41709075D01*
X72708961Y-41709082D01*
X72470424Y-41868467D01*
X72470414Y-41868473D01*
X72467043Y-41870727D01*
X72463992Y-41873402D01*
X72463985Y-41873408D01*
X72248290Y-42062568D01*
X72248282Y-42062575D01*
X72245242Y-42065242D01*
X72242575Y-42068282D01*
X72242568Y-42068290D01*
X72053408Y-42283985D01*
X72053402Y-42283992D01*
X72050727Y-42287043D01*
X72048473Y-42290414D01*
X72048467Y-42290424D01*
X71889082Y-42528961D01*
X71889075Y-42528973D01*
X71886828Y-42532336D01*
X71885038Y-42535964D01*
X71885032Y-42535976D01*
X71758144Y-42793280D01*
X71758141Y-42793286D01*
X71756348Y-42796923D01*
X71755044Y-42800762D01*
X71755042Y-42800769D01*
X71662823Y-43072433D01*
X71662818Y-43072449D01*
X71661519Y-43076278D01*
X71660728Y-43080250D01*
X71660726Y-43080261D01*
X71610476Y-43332891D01*
X71603966Y-43365620D01*
X71603700Y-43369667D01*
X71603700Y-43369673D01*
X71585584Y-43646076D01*
X71584671Y-43660000D01*
X71170017Y-43660000D01*
X71170009Y-43646076D01*
X71174092Y-43614450D01*
X71223181Y-43427913D01*
X71512712Y-42327691D01*
X71538690Y-42278309D01*
X72308068Y-41385451D01*
X72361783Y-41349102D01*
X73532994Y-40947544D01*
X73710450Y-40886703D01*
X73750666Y-40880000D01*
X127134541Y-40880000D01*
X127201580Y-40899685D01*
G37*
%TD.AperFunction*%
%TD*%
M02*
