%TF.GenerationSoftware,KiCad,Pcbnew,7.0.2*%
%TF.CreationDate,2024-06-27T10:52:01-03:00*%
%TF.ProjectId,Irrigation_IoT,49727269-6761-4746-996f-6e5f496f542e,rev?*%
%TF.SameCoordinates,Original*%
%TF.FileFunction,Soldermask,Bot*%
%TF.FilePolarity,Negative*%
%FSLAX46Y46*%
G04 Gerber Fmt 4.6, Leading zero omitted, Abs format (unit mm)*
G04 Created by KiCad (PCBNEW 7.0.2) date 2024-06-27 10:52:01*
%MOMM*%
%LPD*%
G01*
G04 APERTURE LIST*
%ADD10C,2.250000*%
%ADD11R,1.700000X1.700000*%
%ADD12O,1.700000X1.700000*%
%ADD13C,2.000000*%
%ADD14C,1.800000*%
%ADD15R,1.800000X1.800000*%
%ADD16C,3.500000*%
%ADD17O,1.200000X1.900000*%
%ADD18C,1.450000*%
%ADD19R,2.600000X2.600000*%
%ADD20O,2.600000X2.600000*%
%ADD21C,2.400000*%
%ADD22C,2.500000*%
%ADD23R,4.600000X2.000000*%
%ADD24O,4.200000X2.000000*%
%ADD25O,2.000000X4.200000*%
%ADD26R,1.500000X1.500000*%
%ADD27C,1.500000*%
%ADD28R,2.200000X2.200000*%
%ADD29O,2.200000X2.200000*%
G04 APERTURE END LIST*
D10*
%TO.C,F1*%
X151900000Y-73930000D03*
X129300000Y-73930000D03*
%TD*%
D11*
%TO.C,J6*%
X108910000Y-45125000D03*
D12*
X106370000Y-45125000D03*
X103830000Y-45125000D03*
X101290000Y-45125000D03*
%TD*%
D13*
%TO.C,BT3*%
X135470000Y-88020000D03*
X135470000Y-81520000D03*
X139970000Y-88020000D03*
X139970000Y-81520000D03*
%TD*%
D14*
%TO.C,J3*%
X168610000Y-56790000D03*
X168610000Y-52980000D03*
X168610000Y-49170000D03*
%TD*%
D15*
%TO.C,LED1*%
X145455000Y-84660000D03*
D14*
X147995000Y-84660000D03*
%TD*%
D16*
%TO.C,REF\u002A\u002A*%
X73840000Y-98140000D03*
%TD*%
D17*
%TO.C,J2*%
X107480000Y-99387500D03*
D18*
X108480000Y-96687500D03*
X113480000Y-96687500D03*
D17*
X114480000Y-99387500D03*
%TD*%
D16*
%TO.C,REF\u002A\u002A*%
X167770000Y-97950000D03*
%TD*%
D11*
%TO.C,J9*%
X157980000Y-79765000D03*
D12*
X157980000Y-77225000D03*
%TD*%
D14*
%TO.C,J8*%
X168635000Y-78105000D03*
X168635000Y-74295000D03*
%TD*%
D16*
%TO.C,REF\u002A\u002A*%
X167770000Y-43470000D03*
%TD*%
D19*
%TO.C,D2*%
X155500000Y-84560000D03*
D20*
X168200000Y-84560000D03*
%TD*%
D21*
%TO.C,K4*%
X145660000Y-66830000D03*
D22*
X143160000Y-61830000D03*
D21*
X155860000Y-66830000D03*
X155860000Y-56830000D03*
X145660000Y-56830000D03*
%TD*%
D13*
%TO.C,BT1*%
X94740000Y-88020000D03*
X94740000Y-81520000D03*
X99240000Y-88020000D03*
X99240000Y-81520000D03*
%TD*%
D14*
%TO.C,LED2*%
X122435000Y-44570000D03*
D15*
X124975000Y-44570000D03*
%TD*%
D16*
%TO.C,REF\u002A\u002A*%
X73840000Y-43660000D03*
%TD*%
D15*
%TO.C,LED3*%
X124975000Y-64580000D03*
D14*
X122435000Y-64580000D03*
%TD*%
D23*
%TO.C,J1*%
X158800000Y-89660000D03*
D24*
X158800000Y-95960000D03*
D25*
X163600000Y-92560000D03*
%TD*%
D14*
%TO.C,J7*%
X168610000Y-69260000D03*
X168610000Y-65450000D03*
X168610000Y-61640000D03*
%TD*%
D26*
%TO.C,RV1*%
X164140000Y-72770000D03*
D27*
X156640000Y-70970000D03*
%TD*%
D21*
%TO.C,K3*%
X145660000Y-53201200D03*
D22*
X143160000Y-48201200D03*
D21*
X155860000Y-53201200D03*
X155860000Y-43201200D03*
X145660000Y-43201200D03*
%TD*%
D11*
%TO.C,J4*%
X90770000Y-93390000D03*
D12*
X93310000Y-93390000D03*
X95850000Y-93390000D03*
X98390000Y-93390000D03*
%TD*%
D11*
%TO.C,J10*%
X161590000Y-79765000D03*
D12*
X161590000Y-77225000D03*
%TD*%
D11*
%TO.C,J5*%
X79530000Y-93390000D03*
D12*
X82070000Y-93390000D03*
X84610000Y-93390000D03*
X87150000Y-93390000D03*
%TD*%
D28*
%TO.C,D3*%
X128440000Y-95630000D03*
D29*
X118280000Y-95630000D03*
%TD*%
D13*
%TO.C,BT2*%
X115105000Y-88020000D03*
X115105000Y-81520000D03*
X119605000Y-88020000D03*
X119605000Y-81520000D03*
%TD*%
M02*
