%TF.GenerationSoftware,KiCad,Pcbnew,7.0.2*%
%TF.CreationDate,2024-06-27T10:52:01-03:00*%
%TF.ProjectId,Irrigation_IoT,49727269-6761-4746-996f-6e5f496f542e,rev?*%
%TF.SameCoordinates,Original*%
%TF.FileFunction,Soldermask,Top*%
%TF.FilePolarity,Negative*%
%FSLAX46Y46*%
G04 Gerber Fmt 4.6, Leading zero omitted, Abs format (unit mm)*
G04 Created by KiCad (PCBNEW 7.0.2) date 2024-06-27 10:52:01*
%MOMM*%
%LPD*%
G01*
G04 APERTURE LIST*
G04 Aperture macros list*
%AMRoundRect*
0 Rectangle with rounded corners*
0 $1 Rounding radius*
0 $2 $3 $4 $5 $6 $7 $8 $9 X,Y pos of 4 corners*
0 Add a 4 corners polygon primitive as box body*
4,1,4,$2,$3,$4,$5,$6,$7,$8,$9,$2,$3,0*
0 Add four circle primitives for the rounded corners*
1,1,$1+$1,$2,$3*
1,1,$1+$1,$4,$5*
1,1,$1+$1,$6,$7*
1,1,$1+$1,$8,$9*
0 Add four rect primitives between the rounded corners*
20,1,$1+$1,$2,$3,$4,$5,0*
20,1,$1+$1,$4,$5,$6,$7,0*
20,1,$1+$1,$6,$7,$8,$9,0*
20,1,$1+$1,$8,$9,$2,$3,0*%
G04 Aperture macros list end*
%ADD10C,2.250000*%
%ADD11RoundRect,0.250000X0.262500X0.450000X-0.262500X0.450000X-0.262500X-0.450000X0.262500X-0.450000X0*%
%ADD12R,1.700000X1.700000*%
%ADD13O,1.700000X1.700000*%
%ADD14C,2.000000*%
%ADD15RoundRect,0.250000X-0.475000X0.250000X-0.475000X-0.250000X0.475000X-0.250000X0.475000X0.250000X0*%
%ADD16C,1.800000*%
%ADD17RoundRect,0.200000X0.200000X0.275000X-0.200000X0.275000X-0.200000X-0.275000X0.200000X-0.275000X0*%
%ADD18R,1.800000X1.800000*%
%ADD19R,1.100000X1.400000*%
%ADD20R,0.900000X1.400000*%
%ADD21C,3.500000*%
%ADD22RoundRect,0.250000X-0.250000X-0.475000X0.250000X-0.475000X0.250000X0.475000X-0.250000X0.475000X0*%
%ADD23R,2.000000X1.500000*%
%ADD24R,2.000000X3.800000*%
%ADD25RoundRect,0.250000X0.250000X0.475000X-0.250000X0.475000X-0.250000X-0.475000X0.250000X-0.475000X0*%
%ADD26R,0.400000X1.350000*%
%ADD27O,1.200000X1.900000*%
%ADD28R,1.200000X1.900000*%
%ADD29C,1.450000*%
%ADD30R,1.500000X1.900000*%
%ADD31R,1.550000X2.350000*%
%ADD32RoundRect,0.250000X-0.450000X0.262500X-0.450000X-0.262500X0.450000X-0.262500X0.450000X0.262500X0*%
%ADD33R,1.600000X1.600000*%
%ADD34RoundRect,0.250000X0.475000X-0.250000X0.475000X0.250000X-0.475000X0.250000X-0.475000X-0.250000X0*%
%ADD35RoundRect,0.250000X0.450000X-0.262500X0.450000X0.262500X-0.450000X0.262500X-0.450000X-0.262500X0*%
%ADD36RoundRect,0.378000X-1.301100X-0.378000X1.301100X-0.378000X1.301100X0.378000X-1.301100X0.378000X0*%
%ADD37RoundRect,0.352600X-1.321300X-0.352600X1.321300X-0.352600X1.321300X0.352600X-1.321300X0.352600X0*%
%ADD38R,2.600000X2.600000*%
%ADD39O,2.600000X2.600000*%
%ADD40RoundRect,0.250000X-0.262500X-0.450000X0.262500X-0.450000X0.262500X0.450000X-0.262500X0.450000X0*%
%ADD41C,2.400000*%
%ADD42C,2.500000*%
%ADD43RoundRect,0.150000X0.587500X0.150000X-0.587500X0.150000X-0.587500X-0.150000X0.587500X-0.150000X0*%
%ADD44R,0.900000X0.900000*%
%ADD45R,0.900000X1.500000*%
%ADD46R,1.500000X0.900000*%
%ADD47R,4.600000X2.000000*%
%ADD48O,4.200000X2.000000*%
%ADD49O,2.000000X4.200000*%
%ADD50R,1.500000X1.500000*%
%ADD51C,1.500000*%
%ADD52R,2.200000X2.200000*%
%ADD53O,2.200000X2.200000*%
%ADD54RoundRect,0.200000X-0.200000X-0.275000X0.200000X-0.275000X0.200000X0.275000X-0.200000X0.275000X0*%
%ADD55R,0.300000X1.000000*%
%ADD56R,1.000000X0.300000*%
%ADD57R,3.350000X3.350000*%
G04 APERTURE END LIST*
D10*
%TO.C,F1*%
X151900000Y-73930000D03*
X129300000Y-73930000D03*
%TD*%
D11*
%TO.C,R9*%
X131692500Y-42250000D03*
X129867500Y-42250000D03*
%TD*%
D12*
%TO.C,J6*%
X108910000Y-45125000D03*
D13*
X106370000Y-45125000D03*
X103830000Y-45125000D03*
X101290000Y-45125000D03*
%TD*%
D14*
%TO.C,BT3*%
X135470000Y-88020000D03*
X135470000Y-81520000D03*
X139970000Y-88020000D03*
X139970000Y-81520000D03*
%TD*%
D15*
%TO.C,C14*%
X134460000Y-93350000D03*
X134460000Y-95250000D03*
%TD*%
D16*
%TO.C,J3*%
X168610000Y-56790000D03*
X168610000Y-52980000D03*
X168610000Y-49170000D03*
%TD*%
D17*
%TO.C,R3*%
X117655000Y-72910000D03*
X116005000Y-72910000D03*
%TD*%
D18*
%TO.C,LED1*%
X145455000Y-84660000D03*
D16*
X147995000Y-84660000D03*
%TD*%
D19*
%TO.C,D1*%
X107510000Y-83300000D03*
D20*
X105810000Y-83300000D03*
X105810000Y-85500000D03*
X107710000Y-85500000D03*
%TD*%
D21*
%TO.C,REF\u002A\u002A*%
X73840000Y-98140000D03*
%TD*%
D22*
%TO.C,C16*%
X73732500Y-87290000D03*
X75632500Y-87290000D03*
%TD*%
D23*
%TO.C,U4*%
X151610000Y-97880000D03*
X151610000Y-95580000D03*
D24*
X145310000Y-95580000D03*
D23*
X151610000Y-93280000D03*
%TD*%
D25*
%TO.C,C11*%
X139960000Y-93480000D03*
X138060000Y-93480000D03*
%TD*%
D26*
%TO.C,J2*%
X109680000Y-96687500D03*
X110330000Y-96687500D03*
X110980000Y-96687500D03*
X111630000Y-96687500D03*
X112280000Y-96687500D03*
D27*
X107480000Y-99387500D03*
D28*
X108080000Y-99387500D03*
D29*
X108480000Y-96687500D03*
D30*
X109980000Y-99387500D03*
X111980000Y-99387500D03*
D29*
X113480000Y-96687500D03*
D28*
X113880000Y-99387500D03*
D27*
X114480000Y-99387500D03*
%TD*%
D21*
%TO.C,REF\u002A\u002A*%
X167770000Y-97950000D03*
%TD*%
D22*
%TO.C,C7*%
X104290000Y-66410000D03*
X106190000Y-66410000D03*
%TD*%
D31*
%TO.C,D8*%
X164610000Y-62820000D03*
X164610000Y-58520000D03*
%TD*%
D32*
%TO.C,R1*%
X83170000Y-85477500D03*
X83170000Y-87302500D03*
%TD*%
D12*
%TO.C,J9*%
X157980000Y-79765000D03*
D13*
X157980000Y-77225000D03*
%TD*%
D33*
%TO.C,U1*%
X123360000Y-50480000D03*
X123360000Y-53020000D03*
X130980000Y-53020000D03*
X130980000Y-50480000D03*
%TD*%
D32*
%TO.C,R10*%
X119050000Y-57712500D03*
X119050000Y-55887500D03*
%TD*%
%TO.C,R8*%
X130320000Y-44817500D03*
X130320000Y-46642500D03*
%TD*%
D25*
%TO.C,C17*%
X74862500Y-82130000D03*
X72962500Y-82130000D03*
%TD*%
D34*
%TO.C,C13*%
X124190000Y-88000000D03*
X124190000Y-86100000D03*
%TD*%
D16*
%TO.C,J8*%
X168635000Y-78105000D03*
X168635000Y-74295000D03*
%TD*%
D21*
%TO.C,REF\u002A\u002A*%
X167770000Y-43470000D03*
%TD*%
D35*
%TO.C,R2*%
X85370000Y-52602500D03*
X85370000Y-50777500D03*
%TD*%
D36*
%TO.C,EN1*%
X81871600Y-81756000D03*
D37*
X88018600Y-81705200D03*
%TD*%
D38*
%TO.C,D2*%
X155500000Y-84560000D03*
D39*
X168200000Y-84560000D03*
%TD*%
D25*
%TO.C,C12*%
X89242500Y-85330000D03*
X87342500Y-85330000D03*
%TD*%
D40*
%TO.C,R13*%
X87380000Y-87400000D03*
X89205000Y-87400000D03*
%TD*%
D41*
%TO.C,K4*%
X145660000Y-66830000D03*
D42*
X143160000Y-61830000D03*
D41*
X155860000Y-66830000D03*
X155860000Y-56830000D03*
X145660000Y-56830000D03*
%TD*%
D35*
%TO.C,R15*%
X132140000Y-95212500D03*
X132140000Y-93387500D03*
%TD*%
D25*
%TO.C,C2*%
X105640000Y-92710000D03*
X103740000Y-92710000D03*
%TD*%
D22*
%TO.C,C15*%
X78170000Y-45800000D03*
X80070000Y-45800000D03*
%TD*%
D14*
%TO.C,BT1*%
X94740000Y-88020000D03*
X94740000Y-81520000D03*
X99240000Y-88020000D03*
X99240000Y-81520000D03*
%TD*%
D43*
%TO.C,Q4*%
X134447500Y-67320000D03*
X134447500Y-65420000D03*
X132572500Y-66370000D03*
%TD*%
%TO.C,Q3*%
X134147500Y-47110000D03*
X134147500Y-45210000D03*
X132272500Y-46160000D03*
%TD*%
D16*
%TO.C,LED2*%
X122435000Y-44570000D03*
D18*
X124975000Y-44570000D03*
%TD*%
D25*
%TO.C,C8*%
X152470000Y-84580000D03*
X150570000Y-84580000D03*
%TD*%
D21*
%TO.C,REF\u002A\u002A*%
X73840000Y-43660000D03*
%TD*%
D22*
%TO.C,C1*%
X110670000Y-75800000D03*
X112570000Y-75800000D03*
%TD*%
D25*
%TO.C,C10*%
X139940000Y-95590000D03*
X138040000Y-95590000D03*
%TD*%
D36*
%TO.C,IO0*%
X74879100Y-51766000D03*
D37*
X81026100Y-51715200D03*
%TD*%
D44*
%TO.C,IC1*%
X78050000Y-67730000D03*
X78050000Y-66330000D03*
X79450000Y-66330000D03*
X80850000Y-66330000D03*
X80850000Y-67730000D03*
X80850000Y-69130000D03*
X79450000Y-69130000D03*
X78050000Y-69130000D03*
X79450000Y-67730000D03*
D45*
X71730000Y-57480000D03*
X73000000Y-57480000D03*
X74270000Y-57480000D03*
X75540000Y-57480000D03*
X76810000Y-57480000D03*
X78080000Y-57480000D03*
X79350000Y-57480000D03*
X80620000Y-57480000D03*
X81890000Y-57480000D03*
X83160000Y-57480000D03*
X84430000Y-57480000D03*
X85700000Y-57480000D03*
X86970000Y-57480000D03*
X88240000Y-57480000D03*
D46*
X89490000Y-59245000D03*
X89490000Y-60515000D03*
X89490000Y-61785000D03*
X89490000Y-63055000D03*
X89490000Y-64325000D03*
X89490000Y-65595000D03*
X89490000Y-66865000D03*
X89490000Y-68135000D03*
X89490000Y-69405000D03*
X89490000Y-70675000D03*
X89490000Y-71945000D03*
X89490000Y-73215000D03*
D45*
X88240000Y-74980000D03*
X86970000Y-74980000D03*
X85700000Y-74980000D03*
X84430000Y-74980000D03*
X83160000Y-74980000D03*
X81890000Y-74980000D03*
X80620000Y-74980000D03*
X79350000Y-74980000D03*
X78080000Y-74980000D03*
X76810000Y-74980000D03*
X75540000Y-74980000D03*
X74270000Y-74980000D03*
X73000000Y-74980000D03*
X71730000Y-74980000D03*
%TD*%
D22*
%TO.C,C5*%
X110670000Y-77920000D03*
X112570000Y-77920000D03*
%TD*%
D18*
%TO.C,LED3*%
X124975000Y-64580000D03*
D16*
X122435000Y-64580000D03*
%TD*%
D47*
%TO.C,J1*%
X158800000Y-89660000D03*
D48*
X158800000Y-95960000D03*
D49*
X163600000Y-92560000D03*
%TD*%
D40*
%TO.C,R11*%
X130177500Y-63720000D03*
X132002500Y-63720000D03*
%TD*%
D32*
%TO.C,R7*%
X119020000Y-53832500D03*
X119020000Y-52007500D03*
%TD*%
D25*
%TO.C,C6*%
X74862500Y-79770000D03*
X72962500Y-79770000D03*
%TD*%
D31*
%TO.C,D9*%
X164220000Y-51700000D03*
X164220000Y-47400000D03*
%TD*%
D16*
%TO.C,J7*%
X168610000Y-69260000D03*
X168610000Y-65450000D03*
X168610000Y-61640000D03*
%TD*%
D50*
%TO.C,RV1*%
X164140000Y-72770000D03*
D51*
X156640000Y-70970000D03*
%TD*%
D41*
%TO.C,K3*%
X145660000Y-53201200D03*
D42*
X143160000Y-48201200D03*
D41*
X155860000Y-53201200D03*
X155860000Y-43201200D03*
X145660000Y-43201200D03*
%TD*%
D12*
%TO.C,J4*%
X90770000Y-93390000D03*
D13*
X93310000Y-93390000D03*
X95850000Y-93390000D03*
X98390000Y-93390000D03*
%TD*%
D31*
%TO.C,D7*%
X160990000Y-62620000D03*
X160990000Y-66920000D03*
%TD*%
D35*
%TO.C,R6*%
X145350000Y-90152500D03*
X145350000Y-88327500D03*
%TD*%
D43*
%TO.C,Q1*%
X80952500Y-87350000D03*
X80952500Y-85450000D03*
X79077500Y-86400000D03*
%TD*%
D11*
%TO.C,R17*%
X75532500Y-91940000D03*
X73707500Y-91940000D03*
%TD*%
%TO.C,R12*%
X132002500Y-61800000D03*
X130177500Y-61800000D03*
%TD*%
D12*
%TO.C,J10*%
X161590000Y-79765000D03*
D13*
X161590000Y-77225000D03*
%TD*%
D31*
%TO.C,D6*%
X138130000Y-62070000D03*
X138130000Y-66370000D03*
%TD*%
%TO.C,D5*%
X160660000Y-50950000D03*
X160660000Y-55250000D03*
%TD*%
D40*
%TO.C,R5*%
X115917500Y-68550000D03*
X117742500Y-68550000D03*
%TD*%
D12*
%TO.C,J5*%
X79530000Y-93390000D03*
D13*
X82070000Y-93390000D03*
X84610000Y-93390000D03*
X87150000Y-93390000D03*
%TD*%
D52*
%TO.C,D3*%
X128440000Y-95630000D03*
D53*
X118280000Y-95630000D03*
%TD*%
D32*
%TO.C,R14*%
X126310000Y-86137500D03*
X126310000Y-87962500D03*
%TD*%
D25*
%TO.C,C9*%
X151740000Y-90140000D03*
X149840000Y-90140000D03*
%TD*%
%TO.C,C3*%
X105640000Y-90620000D03*
X103740000Y-90620000D03*
%TD*%
D11*
%TO.C,R16*%
X78197500Y-47740000D03*
X80022500Y-47740000D03*
%TD*%
D31*
%TO.C,D4*%
X138110000Y-46400000D03*
X138110000Y-50700000D03*
%TD*%
D54*
%TO.C,R4*%
X116005000Y-70900000D03*
X117655000Y-70900000D03*
%TD*%
D55*
%TO.C,IC2*%
X102740000Y-74870000D03*
X103240000Y-74870000D03*
X103740000Y-74870000D03*
X104240000Y-74870000D03*
X104740000Y-74870000D03*
X105240000Y-74870000D03*
X105740000Y-74870000D03*
D56*
X106640000Y-73970000D03*
X106640000Y-73470000D03*
X106640000Y-72970000D03*
X106640000Y-72470000D03*
X106640000Y-71970000D03*
X106640000Y-71470000D03*
X106640000Y-70970000D03*
D55*
X105740000Y-70070000D03*
X105240000Y-70070000D03*
X104740000Y-70070000D03*
X104240000Y-70070000D03*
X103740000Y-70070000D03*
X103240000Y-70070000D03*
X102740000Y-70070000D03*
D56*
X101840000Y-70970000D03*
X101840000Y-71470000D03*
X101840000Y-71970000D03*
X101840000Y-72470000D03*
X101840000Y-72970000D03*
X101840000Y-73470000D03*
X101840000Y-73970000D03*
D57*
X104240000Y-72470000D03*
%TD*%
D14*
%TO.C,BT2*%
X115105000Y-88020000D03*
X115105000Y-81520000D03*
X119605000Y-88020000D03*
X119605000Y-81520000D03*
%TD*%
D43*
%TO.C,Q2*%
X90867500Y-52690000D03*
X90867500Y-50790000D03*
X88992500Y-51740000D03*
%TD*%
D33*
%TO.C,U5*%
X123360000Y-56690000D03*
X123360000Y-59230000D03*
X130980000Y-59230000D03*
X130980000Y-56690000D03*
%TD*%
M02*
