M48
; DRILL file {KiCad 7.0.2} date Thu Jun 27 10:52:04 2024
; FORMAT={-:-/ absolute / metric / decimal}
; #@! TF.CreationDate,2024-06-27T10:52:04-03:00
; #@! TF.GenerationSoftware,Kicad,Pcbnew,7.0.2
; #@! TF.FileFunction,Plated,1,2,PTH
FMAT,2
METRIC
; #@! TA.AperFunction,Plated,PTH,ViaDrill
T1C0.400
; #@! TA.AperFunction,Plated,PTH,ViaDrill
T2C0.500
; #@! TA.AperFunction,Plated,PTH,ComponentDrill
T3C0.600
; #@! TA.AperFunction,Plated,PTH,ComponentDrill
T4C0.850
; #@! TA.AperFunction,Plated,PTH,ComponentDrill
T5C0.900
; #@! TA.AperFunction,Plated,PTH,ComponentDrill
T6C1.000
; #@! TA.AperFunction,Plated,PTH,ComponentDrill
T7C1.100
; #@! TA.AperFunction,Plated,PTH,ComponentDrill
T8C1.200
; #@! TA.AperFunction,Plated,PTH,ComponentDrill
T9C1.300
; #@! TA.AperFunction,Plated,PTH,ComponentDrill
T10C1.500
; #@! TA.AperFunction,Plated,PTH,ComponentDrill
T11C2.200
%
G90
G05
T1
X72.59Y-71.64
X72.69Y-67.14
X72.82Y-63.27
X72.86Y-61.37
X72.96Y-65.46
X72.99Y-69.42
X73.01Y-59.68
X73.29Y-47.19
X74.42Y-71.3
X74.47Y-67.79
X75.31Y-63.86
X75.77Y-54.53
X76.75Y-97.02
X76.82Y-60.07
X78.49Y-72.71
X79.0Y-98.82
X80.4Y-71.6
X80.97Y-54.21
X81.78Y-90.34
X81.85Y-83.88
X82.56Y-71.57
X83.02Y-54.05
X83.08Y-60.42
X83.16Y-83.97
X84.08Y-71.6
X84.42Y-46.56
X85.81Y-85.33
X85.83Y-88.59
X86.25Y-65.35
X86.31Y-67.49
X86.54Y-70.24
X86.95Y-96.05
X87.42Y-89.65
X88.22Y-55.39
X88.73Y-53.17
X89.48Y-83.46
X89.84Y-78.75
X89.95Y-76.69
X90.91Y-99.23
X91.43Y-48.74
X92.41Y-70.04
X93.13Y-77.41
X93.5Y-79.1
X94.07Y-56.14
X94.1Y-58.3
X94.52Y-50.67
X95.72Y-46.55
X96.3Y-65.35
X96.35Y-67.49
X96.99Y-84.77
X98.2Y-49.89
X98.38Y-99.3
X98.54Y-59.42
X98.66Y-67.2
X98.68Y-71.27
X99.53Y-73.97
X99.62Y-61.36
X100.34Y-65.91
X101.31Y-92.68
X101.81Y-88.78
X102.13Y-57.44
X102.3Y-50.21
X102.43Y-99.34
X102.88Y-76.93
X104.12Y-85.51
X104.24Y-72.47
X104.68Y-77.98
X107.38Y-61.41
X107.67Y-92.71
X107.77Y-63.97
X108.75Y-68.06
X110.53Y-85.5
X110.77Y-63.7
X110.96Y-98.45
X111.59Y-88.45
X112.78Y-70.93
X113.29Y-51.08
X114.67Y-76.32
X115.4Y-92.74
X115.8Y-78.18
X116.42Y-48.87
X116.96Y-45.31
X117.355Y-84.77
X117.73Y-75.03
X117.75Y-65.18
X118.86Y-99.18
X119.6Y-47.36
X122.27Y-91.59
X123.33Y-70.22
X124.55Y-95.96
X124.73Y-99.23
X128.22Y-89.85
X130.4Y-90.81
X133.46Y-48.89
X134.15Y-43.64
X134.7Y-63.39
X137.72Y-84.77
X142.15Y-91.41
X142.5Y-84.7
X143.44Y-81.17
X146.67Y-79.88
X147.5Y-91.08
X148.53Y-97.84
X148.55Y-93.48
X149.94Y-82.02
X150.06Y-87.39
X153.63Y-91.25
X153.9Y-96.59
X158.8Y-92.88
X158.8Y-98.93
X161.43Y-82.64
X164.24Y-97.81
X164.63Y-88.0
X165.56Y-82.4
X167.22Y-89.47
X168.95Y-89.44
T2
X147.24Y-75.6
T4
X108.48Y-96.688
X113.48Y-96.688
T5
X122.435Y-44.57
X122.435Y-64.58
X124.975Y-44.57
X124.975Y-64.58
X145.455Y-84.66
X147.995Y-84.66
X168.61Y-49.17
X168.61Y-52.98
X168.61Y-56.79
X168.61Y-61.64
X168.61Y-65.45
X168.61Y-69.26
X168.635Y-74.295
X168.635Y-78.105
T6
X79.53Y-93.39
X82.07Y-93.39
X84.61Y-93.39
X87.15Y-93.39
X90.77Y-93.39
X93.31Y-93.39
X95.85Y-93.39
X98.39Y-93.39
X101.29Y-45.125
X103.83Y-45.125
X106.37Y-45.125
X108.91Y-45.125
X156.64Y-70.97
X157.98Y-77.225
X157.98Y-79.765
X161.59Y-77.225
X161.59Y-79.765
X164.14Y-72.77
T7
X94.74Y-81.52
X94.74Y-88.02
X99.24Y-81.52
X99.24Y-88.02
X115.105Y-81.52
X115.105Y-88.02
X118.28Y-95.63
X119.605Y-81.52
X119.605Y-88.02
X128.44Y-95.63
X135.47Y-81.52
X135.47Y-88.02
X139.97Y-81.52
X139.97Y-88.02
T8
X145.66Y-43.201
X145.66Y-53.201
X145.66Y-56.83
X145.66Y-66.83
X155.86Y-43.201
X155.86Y-53.201
X155.86Y-56.83
X155.86Y-66.83
T9
X155.5Y-84.56
X168.2Y-84.56
T10
X129.3Y-73.93
X143.16Y-48.201
X143.16Y-61.83
X151.9Y-73.93
T11
X73.84Y-43.66
X73.84Y-98.14
X167.77Y-43.47
X167.77Y-97.95
T3
G00X107.48Y-99.737
M15
G01X107.48Y-99.037
M16
G05
G00X114.48Y-99.037
M15
G01X114.48Y-99.737
M16
G05
T6
G00X157.5Y-89.66
M15
G01X160.1Y-89.66
M16
G05
G00X157.7Y-95.96
M15
G01X159.9Y-95.96
M16
G05
G00X163.6Y-91.46
M15
G01X163.6Y-93.66
M16
G05
T0
M30
